<svg width="333" height="223" viewBox="0 0 333 223" fill="none" xmlns="http://www.w3.org/2000/svg">
<g clip-path="url(#clip0_1111_2996)">
<path d="M333 105.649V123.227L166.869 219.665V202.087L333 105.649Z" fill="#652465"/>
<path d="M333 122.029V126.506L166.869 222.944V218.467L333 122.029Z" fill="#26B9AC"/>
<path d="M166.869 202.087V219.665L0 123.221V105.637L166.869 202.087Z" fill="#722C6C"/>
<path d="M166.869 218.467V222.944L0 126.499V122.023L166.869 218.467Z" fill="#26B9AC"/>
<path d="M333 105.454V112.724L166.869 209.162V201.892L333 105.454Z" fill="#1591A9"/>
<path d="M166.869 201.892V209.161L0 112.717V105.441L166.869 201.892Z" fill="#1591A9"/>
<path d="M333 105.454L166.869 201.892L0 105.442L166.869 9.00977L333 105.454Z" fill="#1FA9AA"/>
<path d="M300.902 86.7603L133.725 182.795" stroke="#1591A9" stroke-miterlimit="10"/>
<path d="M267.064 67.2344L99.8804 163.269" stroke="#1591A9" stroke-miterlimit="10"/>
<path d="M233.542 48.0361L66.3643 144.071" stroke="#1591A9" stroke-miterlimit="10"/>
<path d="M200.026 28.5103L32.8479 124.551" stroke="#1591A9" stroke-miterlimit="10"/>
<path d="M31.5051 87.0879L199.742 183.078" stroke="#1591A9" stroke-miterlimit="10"/>
<path d="M65.0212 68.2114L233.258 164.208" stroke="#1591A9" stroke-miterlimit="10"/>
<path d="M98.5439 48.6855L266.775 144.682" stroke="#1591A9" stroke-miterlimit="10"/>
<path d="M131.732 29.166L299.969 125.156" stroke="#1591A9" stroke-miterlimit="10"/>
<path d="M288.57 98.3168C281.465 102.421 281.427 109.035 288.463 113.146C295.499 117.256 306.98 117.244 314.086 113.146C321.191 109.047 321.21 102.427 314.149 98.3168C307.087 94.206 295.657 94.2313 288.57 98.3168Z" fill="#0B77A7"/>
<path d="M298.935 102.831C297.605 103.6 297.599 104.842 298.935 105.605C299.677 105.984 300.498 106.182 301.331 106.182C302.164 106.182 302.985 105.984 303.727 105.605C305.051 104.842 305.057 103.6 303.727 102.831C302.984 102.454 302.164 102.257 301.331 102.257C300.498 102.257 299.677 102.454 298.935 102.831Z" fill="#652465"/>
<path d="M304.704 54.9839H297.933V104.218H304.704V54.9839Z" fill="#652465"/>
<path d="M304.704 54.9839H303.279V104.218H304.704V54.9839Z" fill="#722C6C"/>
<path d="M303.279 102.623C303.431 102.692 303.582 102.755 303.721 102.831C305.038 103.6 305.032 104.842 303.721 105.605C303.583 105.683 303.439 105.75 303.292 105.807L303.279 102.623Z" fill="#722C6C"/>
<path d="M283.243 54.1076C283.241 57.6844 284.301 61.1813 286.287 64.1558C288.274 67.1304 291.098 69.449 294.402 70.8184C297.706 72.1878 301.343 72.5464 304.851 71.8489C308.359 71.1514 311.582 69.4291 314.111 66.8999C316.64 64.3707 318.362 61.1482 319.06 57.64C319.757 54.1318 319.399 50.4956 318.029 47.1912C316.66 43.8869 314.341 41.0629 311.367 39.0765C308.392 37.0901 304.895 36.0305 301.319 36.0317C298.945 36.0309 296.594 36.4979 294.4 37.406C292.207 38.3141 290.214 39.6455 288.535 41.3242C286.856 43.0028 285.525 44.9958 284.617 47.1893C283.709 49.3827 283.242 51.7336 283.243 54.1076Z" fill="#148FAA"/>
<path d="M310.189 44.4234C311.013 42.8455 311.497 41.1121 311.608 39.3354C313.937 40.9438 315.854 43.0772 317.207 45.5634C318.559 48.0497 319.308 50.8191 319.392 53.648C319.477 56.4769 318.895 59.2861 317.694 61.8488C316.493 64.4114 314.706 66.6558 312.478 68.4005C315.119 64.8282 316.347 60.4055 315.924 55.9829C315.502 51.5603 313.459 47.45 310.189 44.4423V44.4234Z" fill="#26B9AC"/>
<path d="M288.633 36.0319C288.633 38.5408 289.377 40.9934 290.771 43.0795C292.165 45.1655 294.146 46.7914 296.464 47.7515C298.782 48.7117 301.333 48.9629 303.793 48.4734C306.254 47.9839 308.514 46.7758 310.288 45.0017C312.062 43.2277 313.271 40.9674 313.76 38.5067C314.25 36.046 313.998 33.4954 313.038 31.1775C312.078 28.8596 310.452 26.8784 308.366 25.4845C306.28 24.0907 303.827 23.3467 301.319 23.3467C299.653 23.3467 298.003 23.6748 296.464 24.3123C294.925 24.9498 293.527 25.8842 292.349 27.0621C291.171 28.24 290.236 29.6384 289.599 31.1775C288.961 32.7165 288.633 34.3661 288.633 36.0319Z" fill="#148FAA"/>
<path d="M301.319 23.3467C303.792 23.3423 306.212 24.0623 308.28 25.4178C310.349 26.7733 311.975 28.7049 312.958 30.9741C313.941 33.2434 314.238 35.7508 313.812 38.1869C313.386 40.623 312.256 42.881 310.561 44.6821C310.442 44.5623 310.309 44.4551 310.189 44.3416C311.535 41.7708 311.958 38.8161 311.387 35.971C310.816 33.126 309.286 30.5631 307.053 28.7105C304.819 26.858 302.018 25.828 299.116 25.7927C296.215 25.7574 293.389 26.7189 291.111 28.5166C292.286 26.9133 293.823 25.6096 295.597 24.7113C297.37 23.8131 299.331 23.3456 301.319 23.3467Z" fill="#26B9AC"/>
<path d="M285.544 77.2525C285.544 78.2725 285.846 79.2697 286.413 80.1178C286.98 80.9659 287.785 81.6269 288.728 82.0173C289.67 82.4076 290.707 82.5097 291.707 82.3108C292.708 82.1118 293.627 81.6206 294.348 80.8993C295.069 80.178 295.56 79.2591 295.759 78.2587C295.958 77.2582 295.856 76.2213 295.466 75.2789C295.076 74.3365 294.415 73.5311 293.567 72.9644C292.718 72.3977 291.721 72.0952 290.701 72.0952C289.333 72.0952 288.022 72.6386 287.054 73.6058C286.087 74.5729 285.544 75.8847 285.544 77.2525Z" fill="#26B9AC"/>
<path d="M301.319 89.7487C301.705 89.7477 302.083 89.6324 302.404 89.4172C302.726 89.2021 302.976 88.8968 303.124 88.5396C303.273 88.1825 303.312 87.7895 303.237 87.4101C303.163 87.0306 302.978 86.6817 302.706 86.4072L292.359 76.061C292.18 75.8673 291.964 75.7117 291.723 75.6035C291.483 75.4954 291.223 75.4369 290.959 75.4316C290.695 75.4262 290.433 75.4742 290.189 75.5725C289.944 75.6708 289.721 75.8176 289.535 76.0039C289.348 76.1902 289.201 76.4123 289.102 76.6568C289.003 76.9014 288.954 77.1634 288.959 77.4271C288.964 77.6909 289.022 77.9509 289.129 78.1918C289.237 78.4326 289.392 78.6493 289.585 78.8288L299.938 89.175C300.118 89.3574 300.333 89.502 300.57 89.6005C300.808 89.699 301.062 89.7494 301.319 89.7487Z" fill="#652465"/>
<path d="M299.402 34.0709C297.679 34.0762 296.008 34.6622 294.66 35.7341C293.311 36.806 292.363 38.3013 291.969 39.9785C291.701 38.8531 291.691 37.6817 291.941 36.5522C292.191 35.4227 292.693 34.3644 293.41 33.4567C294.127 32.549 295.04 31.8155 296.081 31.3112C297.122 30.8069 298.264 30.5449 299.421 30.5449C300.578 30.5449 301.719 30.8069 302.76 31.3112C303.801 31.8155 304.715 32.549 305.432 33.4567C306.149 34.3644 306.651 35.4227 306.901 36.5522C307.15 37.6817 307.141 38.8531 306.873 39.9785C306.477 38.295 305.524 36.795 304.167 35.7224C302.811 34.6497 301.131 34.0677 299.402 34.0709Z" fill="#26B9AC"/>
<path d="M294.087 54.7635C293.013 54.7637 291.971 55.1269 291.13 55.7942C290.288 56.4615 289.697 57.3936 289.453 58.4392C289.284 57.7384 289.276 57.0084 289.431 56.3043C289.585 55.6001 289.897 54.9401 290.343 54.3739C290.789 53.8077 291.357 53.35 292.006 53.0353C292.654 52.7206 293.366 52.5571 294.087 52.5571C294.808 52.5571 295.519 52.7206 296.168 53.0353C296.816 53.35 297.385 53.8077 297.831 54.3739C298.277 54.9401 298.589 55.6001 298.743 56.3043C298.897 57.0084 298.889 57.7384 298.721 58.4392C298.476 57.3936 297.885 56.4615 297.044 55.7942C296.203 55.1269 295.16 54.7637 294.087 54.7635Z" fill="#26B9AC"/>
<path d="M174.573 180.872C178.501 183.141 178.52 186.811 174.636 189.068C170.753 191.325 164.397 191.331 160.476 189.068C156.554 186.804 156.535 183.135 160.438 180.872C164.341 178.608 170.658 178.621 174.573 180.872Z" fill="#0B77A7"/>
<path d="M157.531 178.558C157.531 177.724 157.818 176.915 158.344 176.267C158.87 175.62 159.603 175.173 160.419 175.002C160.163 174.448 160.051 173.839 160.092 173.23C160.133 172.621 160.327 172.033 160.655 171.519C160.984 171.004 161.436 170.581 161.971 170.287C162.506 169.994 163.106 169.839 163.716 169.839H163.893C163.873 169.349 163.952 168.859 164.125 168.401C164.298 167.942 164.563 167.523 164.902 167.169C165.242 166.815 165.65 166.533 166.101 166.341C166.552 166.149 167.037 166.049 167.528 166.049C168.018 166.049 168.504 166.149 168.955 166.341C169.406 166.533 169.814 166.815 170.153 167.169C170.493 167.523 170.757 167.942 170.931 168.401C171.104 168.859 171.183 169.349 171.162 169.839H171.339C171.946 169.84 172.544 169.993 173.077 170.285C173.609 170.577 174.061 170.998 174.389 171.509C174.717 172.02 174.911 172.605 174.955 173.211C174.998 173.817 174.888 174.424 174.636 174.977C175.327 175.121 175.96 175.463 176.46 175.961C176.959 176.459 177.302 177.092 177.448 177.781C177.594 178.471 177.536 179.189 177.28 179.846C177.025 180.504 176.584 181.073 176.011 181.484C176.056 181.71 176.08 181.94 176.08 182.171C176.08 183.136 175.697 184.061 175.015 184.743C174.332 185.425 173.407 185.809 172.442 185.809H162.613C161.649 185.807 160.725 185.423 160.043 184.741C159.361 184.059 158.977 183.135 158.975 182.171C158.976 181.94 158.999 181.71 159.045 181.484C158.58 181.149 158.201 180.71 157.938 180.202C157.675 179.694 157.536 179.13 157.531 178.558Z" fill="#1590AB"/>
<path d="M163.13 171.522H162.953C162.414 171.521 161.881 171.64 161.393 171.872C160.906 172.103 160.476 172.44 160.135 172.858C160.277 172.045 160.691 171.303 161.31 170.755C161.928 170.208 162.715 169.887 163.54 169.845C163.272 170.363 163.131 170.938 163.13 171.522Z" fill="#26B9AC"/>
<path d="M176.767 180.241C176.766 179.406 176.478 178.596 175.952 177.947C175.425 177.299 174.691 176.851 173.873 176.679C174.131 176.126 174.246 175.516 174.205 174.907C174.165 174.298 173.971 173.709 173.642 173.194C173.313 172.68 172.86 172.257 172.324 171.964C171.788 171.672 171.187 171.52 170.576 171.522H170.406C170.406 170.77 170.174 170.037 169.74 169.422C169.307 168.808 168.694 168.343 167.985 168.091C167.277 167.84 166.508 167.814 165.784 168.017C165.06 168.221 164.417 168.643 163.943 169.227C164.103 168.333 164.592 167.531 165.313 166.978C166.034 166.426 166.936 166.164 167.841 166.243C168.746 166.322 169.589 166.737 170.203 167.405C170.818 168.074 171.16 168.949 171.162 169.857H171.339C171.944 169.86 172.539 170.014 173.069 170.304C173.6 170.595 174.049 171.014 174.377 171.522C174.704 172.031 174.9 172.613 174.945 173.217C174.99 173.82 174.884 174.425 174.636 174.977C175.247 175.102 175.815 175.382 176.285 175.791C176.755 176.2 177.112 176.724 177.321 177.311C177.529 177.898 177.583 178.529 177.476 179.143C177.369 179.757 177.105 180.333 176.711 180.815C176.744 180.626 176.763 180.434 176.767 180.241Z" fill="#26B9AC"/>
<path d="M161.276 178.886C157.796 180.897 157.777 184.15 161.226 186.155C164.675 188.16 170.305 188.166 173.791 186.155C177.278 184.144 177.284 180.897 173.823 178.886C170.362 176.875 164.75 176.868 161.276 178.886Z" fill="#1590AB"/>
<path d="M170.74 180.909C170.053 180.909 169.386 181.141 168.848 181.568C168.31 181.995 167.932 182.592 167.777 183.261C167.719 183.032 167.689 182.797 167.688 182.561C167.724 181.777 168.061 181.036 168.629 180.494C169.196 179.951 169.952 179.648 170.737 179.648C171.522 179.648 172.277 179.951 172.845 180.494C173.413 181.036 173.75 181.777 173.785 182.561C173.784 182.797 173.756 183.032 173.703 183.261C173.547 182.592 173.169 181.996 172.631 181.569C172.093 181.142 171.427 180.91 170.74 180.909Z" fill="#26B9AC"/>
<path d="M163.54 176.427C163.113 176.427 162.699 176.572 162.364 176.837C162.03 177.103 161.796 177.474 161.699 177.889C161.666 177.747 161.649 177.601 161.648 177.454C161.648 176.953 161.848 176.472 162.202 176.117C162.557 175.762 163.038 175.563 163.54 175.563C164.042 175.563 164.523 175.762 164.877 176.117C165.232 176.472 165.431 176.953 165.431 177.454C165.432 177.601 165.413 177.748 165.375 177.889C165.278 177.475 165.044 177.105 164.711 176.839C164.378 176.574 163.966 176.428 163.54 176.427Z" fill="#26B9AC"/>
<path d="M173.596 27.1171C177.524 29.3868 177.543 33.0562 173.659 35.3133C169.775 37.5704 163.427 37.583 159.499 35.3133C155.571 33.0436 155.558 29.3868 159.461 27.1171C163.363 24.8474 169.656 24.8663 173.596 27.1171Z" fill="#0B77A7"/>
<path d="M156.554 24.8033C156.554 23.9682 156.842 23.1586 157.369 22.5109C157.896 21.8632 158.63 21.417 159.448 21.2474C159.223 20.7703 159.107 20.2492 159.108 19.7216C159.111 18.7633 159.492 17.8451 160.169 17.1663C160.845 16.4875 161.762 16.103 162.72 16.0964H162.891C162.891 15.1315 163.274 14.2062 163.956 13.524C164.638 12.8418 165.564 12.4585 166.528 12.4585C167.493 12.4585 168.419 12.8418 169.101 13.524C169.783 14.2062 170.166 15.1315 170.166 16.0964H170.336C170.947 16.0955 171.548 16.2488 172.084 16.5419C172.62 16.8351 173.073 17.2586 173.402 17.7734C173.731 18.2882 173.924 18.8775 173.965 19.487C174.005 20.0964 173.892 20.7062 173.634 21.26C174.324 21.404 174.958 21.7458 175.457 22.2439C175.956 22.7419 176.3 23.3745 176.446 24.0645C176.591 24.7545 176.533 25.472 176.278 26.1294C176.023 26.7868 175.581 27.3556 175.008 27.7665C175.054 27.9928 175.077 28.223 175.078 28.4537C175.078 29.4186 174.694 30.3439 174.012 31.0261C173.33 31.7083 172.405 32.0916 171.44 32.0916H161.636C160.672 32.0899 159.748 31.7059 159.068 31.0239C158.387 30.3418 158.004 29.4175 158.004 28.4537C158.006 28.2233 158.027 27.9934 158.067 27.7665C157.598 27.4285 157.215 26.9834 156.952 26.468C156.689 25.9527 156.553 25.3819 156.554 24.8033Z" fill="#1590AB"/>
<path d="M162.153 17.767H161.976C161.438 17.766 160.905 17.8855 160.419 18.1168C159.932 18.3481 159.504 18.6852 159.164 19.1036C159.305 18.2909 159.718 17.5503 160.336 17.0037C160.954 16.4571 161.739 16.1371 162.563 16.0962C162.295 16.6127 162.155 17.1854 162.153 17.767Z" fill="#26B9AC"/>
<path d="M175.79 26.4865C175.789 25.6509 175.501 24.8411 174.974 24.1926C174.447 23.544 173.714 23.0963 172.896 22.9243C173.123 22.4476 173.239 21.9262 173.237 21.3985C173.237 20.4354 172.854 19.5116 172.173 18.8306C171.492 18.1495 170.568 17.7669 169.605 17.7669H169.429C169.429 17.0161 169.197 16.2836 168.764 15.6699C168.331 15.0562 167.719 14.5914 167.012 14.3393C166.305 14.0872 165.537 14.0602 164.814 14.2618C164.09 14.4635 163.447 14.884 162.972 15.4657C163.132 14.5715 163.621 13.7694 164.342 13.2172C165.063 12.6649 165.965 12.4025 166.87 12.4816C167.775 12.5606 168.618 12.9754 169.232 13.6442C169.847 14.3131 170.189 15.1878 170.191 16.0962H170.362C170.972 16.0954 171.574 16.2486 172.109 16.5417C172.645 16.8349 173.098 17.2584 173.427 17.7732C173.756 18.288 173.949 18.8773 173.99 19.4868C174.031 20.0962 173.917 20.706 173.659 21.2598C174.477 21.4294 175.211 21.8757 175.738 22.5234C176.265 23.171 176.553 23.9806 176.553 24.8157C176.553 25.6486 176.264 26.4557 175.733 27.098C175.769 26.8961 175.788 26.6915 175.79 26.4865Z" fill="#26B9AC"/>
<path d="M160.299 25.1311C156.819 27.1423 156.8 30.3956 160.249 32.4005C163.697 34.4054 169.328 34.4117 172.814 32.4005C176.301 30.3893 176.307 27.1423 172.846 25.1311C169.384 23.1198 163.779 23.1261 160.299 25.1311Z" fill="#1590AB"/>
<path d="M169.763 27.1546C169.076 27.155 168.41 27.3876 167.872 27.8145C167.334 28.2414 166.956 28.8376 166.8 29.5063C166.744 29.2772 166.716 29.0422 166.718 28.8064C166.718 27.9988 167.038 27.2242 167.61 26.6532C168.181 26.0821 168.955 25.7612 169.763 25.7612C170.57 25.7612 171.345 26.0821 171.916 26.6532C172.487 27.2242 172.808 27.9988 172.808 28.8064C172.806 29.042 172.779 29.2767 172.726 29.5063C172.57 28.8376 172.192 28.2414 171.654 27.8145C171.116 27.3876 170.45 27.155 169.763 27.1546Z" fill="#26B9AC"/>
<path d="M162.563 22.6719C162.136 22.6721 161.721 22.8168 161.387 23.0824C161.053 23.348 160.818 23.7188 160.722 24.1346C160.689 23.9919 160.672 23.846 160.671 23.6995C160.671 23.1979 160.87 22.7168 161.225 22.3621C161.58 22.0074 162.061 21.8081 162.563 21.8081C163.064 21.8081 163.545 22.0074 163.9 22.3621C164.255 22.7168 164.454 23.1979 164.454 23.6995C164.454 23.846 164.437 23.9919 164.404 24.1346C164.307 23.7188 164.072 23.348 163.738 23.0824C163.404 22.8168 162.989 22.6721 162.563 22.6719Z" fill="#26B9AC"/>
<path d="M175.273 103.733C179.195 106.003 179.22 109.672 175.33 111.929C171.44 114.186 165.097 114.192 161.169 111.929C157.241 109.666 157.235 106.003 161.132 103.733C165.028 101.463 171.352 101.482 175.273 103.733Z" fill="#0B77A7"/>
<path d="M158.225 101.419C158.227 100.584 158.516 99.776 159.043 99.1288C159.569 98.4816 160.302 98.0348 161.119 97.863C160.861 97.3092 160.747 96.6994 160.788 96.0899C160.828 95.4805 161.022 94.8911 161.351 94.3764C161.679 93.8616 162.133 93.438 162.668 93.1449C163.204 92.8518 163.805 92.6985 164.416 92.6993H164.593C164.632 91.7615 165.032 90.8751 165.709 90.2254C166.387 89.5757 167.289 89.2129 168.227 89.2129C169.166 89.2129 170.068 89.5757 170.746 90.2254C171.423 90.8751 171.823 91.7615 171.862 92.6993H172.032C172.643 92.6985 173.244 92.8518 173.78 93.1449C174.316 93.438 174.769 93.8616 175.098 94.3764C175.427 94.8911 175.62 95.4805 175.661 96.0899C175.701 96.6994 175.587 97.3092 175.33 97.863C176.019 98.008 176.65 98.3501 177.148 98.8476C177.646 99.3451 177.989 99.9767 178.135 100.665C178.28 101.354 178.222 102.07 177.969 102.727C177.715 103.383 177.275 103.952 176.704 104.363C176.749 104.59 176.773 104.82 176.774 105.05C176.774 105.528 176.681 106.001 176.499 106.442C176.317 106.883 176.049 107.285 175.712 107.622C175.375 107.96 174.974 108.228 174.533 108.411C174.092 108.594 173.619 108.688 173.142 108.688H163.313C162.835 108.688 162.362 108.594 161.921 108.411C161.479 108.229 161.078 107.961 160.74 107.623C160.403 107.285 160.135 106.884 159.952 106.443C159.769 106.001 159.675 105.528 159.675 105.05C159.677 104.82 159.698 104.59 159.738 104.363C159.27 104.028 158.889 103.586 158.626 103.074C158.363 102.562 158.225 101.995 158.225 101.419Z" fill="#1590AB"/>
<path d="M163.83 94.3827H163.653C163.112 94.3819 162.578 94.5021 162.089 94.7345C161.6 94.9668 161.17 95.3055 160.829 95.7256C160.967 94.9103 161.381 94.1668 162 93.6187C162.619 93.0705 163.407 92.7506 164.233 92.7119C163.964 93.2273 163.825 93.8011 163.83 94.3827Z" fill="#26B9AC"/>
<path d="M177.461 103.102C177.462 102.268 177.176 101.458 176.65 100.81C176.124 100.163 175.39 99.7161 174.573 99.5463C174.831 98.9926 174.945 98.3827 174.904 97.7733C174.864 97.1639 174.67 96.5745 174.342 96.0597C174.013 95.545 173.56 95.1214 173.024 94.8283C172.488 94.5351 171.887 94.3819 171.276 94.3827H171.099C171.098 93.6324 170.865 92.9008 170.432 92.2881C169.999 91.6754 169.387 91.2117 168.68 90.9604C167.973 90.709 167.206 90.6825 166.483 90.8843C165.76 91.0862 165.118 91.5065 164.643 92.0878C164.803 91.1935 165.292 90.3914 166.013 89.8392C166.734 89.287 167.636 89.0246 168.541 89.1036C169.446 89.1827 170.289 89.5974 170.903 90.2663C171.518 90.9352 171.86 91.8098 171.862 92.7182H172.033C172.643 92.7174 173.244 92.8707 173.78 93.1638C174.316 93.4569 174.769 93.8805 175.098 94.3953C175.427 94.91 175.62 95.4994 175.661 96.1088C175.701 96.7183 175.588 97.3281 175.33 97.8819C176.147 98.0537 176.879 98.5005 177.406 99.1477C177.933 99.7949 178.221 100.603 178.224 101.438C178.224 102.273 177.935 103.082 177.404 103.726C177.443 103.521 177.462 103.312 177.461 103.102Z" fill="#26B9AC"/>
<path d="M161.976 101.747C158.49 103.758 158.471 107.018 161.92 109.016C165.368 111.015 170.998 111.028 174.485 109.016C177.972 107.005 177.978 103.758 174.485 101.747C170.992 99.7356 165.45 99.7482 161.976 101.747Z" fill="#1590AB"/>
<path d="M171.433 103.77C170.747 103.771 170.08 104.003 169.542 104.43C169.004 104.857 168.627 105.453 168.47 106.122C168.417 105.895 168.389 105.662 168.388 105.429C168.388 105.029 168.467 104.633 168.62 104.263C168.773 103.894 168.997 103.558 169.28 103.275C169.563 102.992 169.899 102.768 170.268 102.615C170.638 102.462 171.034 102.383 171.433 102.383C171.833 102.383 172.229 102.462 172.599 102.615C172.968 102.768 173.304 102.992 173.587 103.275C173.869 103.558 174.094 103.894 174.247 104.263C174.4 104.633 174.479 105.029 174.479 105.429C174.477 105.662 174.45 105.895 174.397 106.122C174.24 105.453 173.862 104.857 173.324 104.43C172.787 104.003 172.12 103.771 171.433 103.77Z" fill="#26B9AC"/>
<path d="M164.24 99.3194C163.812 99.3182 163.396 99.4622 163.061 99.7279C162.725 99.9936 162.489 100.365 162.392 100.782C162.36 100.641 162.343 100.498 162.342 100.353C162.342 99.8517 162.541 99.3706 162.896 99.0159C163.251 98.6612 163.732 98.4619 164.233 98.4619C164.735 98.4619 165.216 98.6612 165.571 99.0159C165.926 99.3706 166.125 99.8517 166.125 100.353C166.124 100.498 166.107 100.641 166.074 100.782C165.978 100.367 165.744 99.9973 165.411 99.7318C165.078 99.4664 164.666 99.3211 164.24 99.3194Z" fill="#26B9AC"/>
<path d="M218.354 97.3019C210.227 101.999 210.189 109.59 218.228 114.262C226.266 118.934 239.412 118.953 247.545 114.262C255.678 109.571 255.691 101.999 247.614 97.3019C239.538 92.6049 226.462 92.6301 218.354 97.3019Z" fill="#0B77A7"/>
<path d="M231.178 104.414C230.2 104.981 230.194 105.895 231.178 106.457C231.724 106.736 232.329 106.882 232.943 106.882C233.557 106.882 234.162 106.736 234.708 106.457C235.686 105.895 235.692 104.981 234.708 104.414C234.162 104.134 233.557 103.988 232.943 103.988C232.329 103.988 231.724 104.134 231.178 104.414Z" fill="#652465"/>
<path d="M246.095 78.0026C246.095 78.7508 245.873 79.4822 245.457 80.1043C245.042 80.7263 244.451 81.2112 243.76 81.4975C243.068 81.7838 242.308 81.8587 241.574 81.7128C240.84 81.5668 240.166 81.2065 239.637 80.6775C239.108 80.1485 238.748 79.4744 238.602 78.7406C238.456 78.0068 238.531 77.2462 238.817 76.555C239.103 75.8637 239.588 75.2729 240.21 74.8573C240.832 74.4416 241.564 74.2197 242.312 74.2197C243.315 74.2197 244.277 74.6183 244.987 75.3277C245.696 76.0371 246.095 76.9993 246.095 78.0026Z" fill="#26B9AC"/>
<path d="M234.456 87.2455C234.172 87.2427 233.895 87.1564 233.659 86.9973C233.423 86.8382 233.24 86.6132 233.131 86.3505C233.022 86.0878 232.993 85.7989 233.047 85.5197C233.101 85.2405 233.236 84.9834 233.435 84.7803L241.07 77.1452C241.341 76.8743 241.708 76.7222 242.091 76.7222C242.474 76.7222 242.842 76.8743 243.113 77.1452C243.384 77.4161 243.536 77.7835 243.536 78.1666C243.536 78.5497 243.384 78.9171 243.113 79.188L235.478 86.8168C235.345 86.9528 235.186 87.0608 235.01 87.1345C234.835 87.2081 234.646 87.2458 234.456 87.2455Z" fill="#482912"/>
<path d="M234.456 87.2455C234.172 87.2427 233.895 87.1564 233.659 86.9973C233.423 86.8382 233.24 86.6132 233.131 86.3505C233.022 86.0878 232.993 85.7989 233.047 85.5197C233.101 85.2405 233.236 84.9834 233.435 84.7803L241.07 77.1452C241.341 76.8743 241.708 76.7222 242.091 76.7222C242.474 76.7222 242.842 76.8743 243.113 77.1452C243.384 77.4161 243.536 77.7835 243.536 78.1666C243.536 78.5497 243.384 78.9171 243.113 79.188L235.478 86.8168C235.345 86.9528 235.186 87.0608 235.01 87.1345C234.835 87.2081 234.646 87.2458 234.456 87.2455Z" fill="#652465"/>
<path d="M235.433 61.604H230.44V105.435H235.433V61.604Z" fill="#652465"/>
<path d="M235.434 61.604H234.381V105.435H235.434V61.604Z" fill="#722C6C"/>
<path d="M206.52 46.359C206.518 51.5858 208.067 56.6956 210.97 61.042C213.874 65.3884 218.001 68.7762 222.83 70.7767C227.659 72.7772 232.972 73.3006 238.099 72.2808C243.225 71.2609 247.934 68.7436 251.629 65.0472C255.325 61.3508 257.841 56.6414 258.86 51.5148C259.878 46.3882 259.354 41.0746 257.352 36.2462C255.35 31.4178 251.962 27.2915 247.614 24.3893C243.267 21.4871 238.157 19.9394 232.93 19.9419C225.925 19.9436 219.207 22.7275 214.255 27.6815C209.302 32.6355 206.52 39.3538 206.52 46.359Z" fill="#148FAA"/>
<path d="M203.582 40.7351C203.582 43.0582 204.27 45.3291 205.561 47.2607C206.852 49.1923 208.686 50.6978 210.832 51.5868C212.979 52.4758 215.34 52.7084 217.619 52.2552C219.897 51.802 221.99 50.6833 223.633 49.0406C225.276 47.398 226.394 45.305 226.847 43.0266C227.301 40.7481 227.068 38.3864 226.179 36.2401C225.29 34.0939 223.785 32.2594 221.853 30.9688C219.921 29.6781 217.65 28.9893 215.327 28.9893C212.212 28.9893 209.225 30.2268 207.022 32.4295C204.819 34.6323 203.582 37.6199 203.582 40.7351Z" fill="#148FAA"/>
<path d="M256.088 49.7888C256.094 44.7011 254.631 39.7198 251.874 35.4439C249.116 31.1681 245.183 27.7796 240.546 25.6858C235.909 23.5921 230.766 22.8823 225.735 23.6417C220.704 24.4011 216 26.5974 212.188 29.9666C214.456 27.0822 217.301 24.7023 220.541 22.9785C223.78 21.2547 227.343 20.225 231.003 19.9549C234.663 19.6849 238.339 20.1804 241.796 21.4099C245.254 22.6395 248.417 24.5761 251.084 27.0962C253.752 29.6163 255.865 32.6646 257.289 36.0467C258.712 39.4289 259.416 43.0706 259.354 46.7397C259.292 50.4088 258.466 54.0247 256.929 57.3569C255.392 60.689 253.177 63.6643 250.426 66.093C254.096 61.4509 256.091 55.7061 256.088 49.7888Z" fill="#26B9AC"/>
<path d="M234.696 106.456C234.595 106.515 234.49 106.566 234.381 106.608V104.256C234.493 104.302 234.602 104.355 234.708 104.413C235.679 104.994 235.673 105.895 234.696 106.456Z" fill="#693C1E"/>
<path d="M223.782 54.7823C221.905 54.7837 220.084 55.419 218.614 56.5851C217.143 57.7512 216.11 59.3798 215.681 61.2069C215.532 60.5873 215.456 59.9526 215.454 59.3154C215.454 57.1066 216.331 54.9881 217.893 53.4262C219.455 51.8643 221.573 50.9868 223.782 50.9868C225.991 50.9868 228.11 51.8643 229.671 53.4262C231.233 54.9881 232.111 57.1066 232.111 59.3154C232.109 59.9526 232.033 60.5873 231.884 61.2069C231.455 59.3798 230.421 57.7512 228.951 56.5851C227.48 55.419 225.659 54.7837 223.782 54.7823Z" fill="#26B9AC"/>
<path d="M240.9 35.893C239.731 35.8933 238.598 36.2883 237.682 37.0138C236.766 37.7394 236.123 38.753 235.856 39.8902C235.765 39.5017 235.718 39.104 235.717 38.7049C235.764 37.3625 236.33 36.0908 237.296 35.1577C238.262 34.2246 239.553 33.7031 240.896 33.7031C242.24 33.7031 243.53 34.2246 244.497 35.1577C245.463 36.0908 246.029 37.3625 246.076 38.7049C246.076 39.1044 246.027 39.5025 245.931 39.8902C245.665 38.7546 245.024 37.7419 244.111 37.0164C243.197 36.2909 242.066 35.895 240.9 35.893Z" fill="#26B9AC"/>
<path d="M138.869 82.6241C142.753 84.8749 142.778 88.5064 138.932 90.7383C135.086 92.9702 128.8 92.9828 124.917 90.7383C121.033 88.4938 121.02 84.8749 124.879 82.6241C128.737 80.3733 134.979 80.4048 138.869 82.6241Z" fill="#0B77A7"/>
<path d="M133.517 60.9546H130.276V86.2179H133.517V60.9546Z" fill="#652465"/>
<path d="M133.51 57.9033H132.482V86.2181H133.51V57.9033Z" fill="#722C6C"/>
<path d="M125.579 60.715C122.061 62.7514 122.035 66.0362 125.528 68.0664C129.021 70.0965 134.702 70.0965 138.226 68.0664C141.75 66.0362 141.75 62.7514 138.226 60.715C134.702 58.6785 129.097 58.6912 125.579 60.715Z" fill="#148FAA"/>
<path d="M131.896 0L140.868 64.3908H122.925L131.896 0Z" fill="#148FAA"/>
<path d="M131.896 0L140.761 63.609L140.868 64.3845L140.723 65.2798C140.264 66.4904 139.363 67.4818 138.201 68.0539C137.911 68.2178 137.571 68.3502 137.274 68.4889L131.896 0Z" fill="#26B9AC"/>
<path d="M130.755 85.556C130.618 85.6049 130.499 85.6951 130.415 85.8142C130.331 85.9332 130.286 86.0754 130.286 86.2211C130.286 86.3668 130.331 86.509 130.415 86.6281C130.499 86.7472 130.618 86.8373 130.755 86.8863C131.11 87.0678 131.503 87.1624 131.902 87.1624C132.301 87.1624 132.695 87.0678 133.05 86.8863C133.187 86.8373 133.306 86.7472 133.39 86.6281C133.474 86.509 133.519 86.3668 133.519 86.2211C133.519 86.0754 133.474 85.9332 133.39 85.8142C133.306 85.6951 133.187 85.6049 133.05 85.556C132.695 85.3744 132.301 85.2798 131.902 85.2798C131.503 85.2798 131.11 85.3744 130.755 85.556Z" fill="#652465"/>
<path d="M132.489 85.3481C132.682 85.3916 132.869 85.4616 133.044 85.5562C133.175 85.6153 133.288 85.7084 133.371 85.8259C133.454 85.9435 133.504 86.0811 133.516 86.2245C133.503 86.3677 133.452 86.5048 133.368 86.6212C133.283 86.7377 133.169 86.8294 133.037 86.8865C132.866 86.984 132.681 87.0542 132.489 87.0946V85.3481Z" fill="#722C6C"/>
<path d="M50.4445 116.828C42.3176 121.525 42.2483 129.116 50.3184 133.788C58.3886 138.46 71.5025 138.478 79.6294 133.788C87.7563 129.097 87.7815 121.525 79.705 116.828C71.6286 112.131 58.5525 112.156 50.4445 116.828Z" fill="#0B77A7"/>
<path d="M63.2685 123.94C62.2913 124.501 62.285 125.415 63.2685 125.982C63.8148 126.262 64.4199 126.408 65.0338 126.408C65.6477 126.408 66.2528 126.262 66.7992 125.982C67.7764 125.415 67.7827 124.501 66.7992 123.94C66.2528 123.66 65.6477 123.514 65.0338 123.514C64.4199 123.514 63.8148 123.66 63.2685 123.94Z" fill="#652465"/>
<path d="M78.1856 97.529C78.1856 98.2771 77.9638 99.0085 77.5481 99.6306C77.1324 100.253 76.5416 100.738 75.8504 101.024C75.1592 101.31 74.3985 101.385 73.6647 101.239C72.9309 101.093 72.2569 100.733 71.7278 100.204C71.1988 99.6748 70.8385 99.0008 70.6926 98.267C70.5466 97.5332 70.6215 96.7726 70.9078 96.0813C71.1941 95.3901 71.679 94.7993 72.3011 94.3836C72.9232 93.968 73.6546 93.7461 74.4027 93.7461C75.406 93.7461 76.3682 94.1446 77.0776 94.8541C77.7871 95.5635 78.1856 96.5257 78.1856 97.529Z" fill="#26B9AC"/>
<path d="M66.5471 106.765C66.3573 106.766 66.1693 106.729 65.994 106.657C65.8186 106.584 65.6595 106.478 65.5257 106.343C65.2562 106.071 65.105 105.704 65.105 105.322C65.105 104.939 65.2562 104.572 65.5257 104.3L73.1545 96.6714C73.4254 96.3997 73.7931 96.2467 74.1768 96.2461C74.5605 96.2455 74.9287 96.3974 75.2004 96.6682C75.4721 96.9391 75.6251 97.3069 75.6257 97.6905C75.6263 98.0742 75.4745 98.4424 75.2036 98.7141L67.5685 106.343C67.4347 106.478 67.2756 106.584 67.1002 106.657C66.9249 106.729 66.7368 106.766 66.5471 106.765Z" fill="#482912"/>
<path d="M66.5471 106.765C66.3573 106.766 66.1693 106.729 65.994 106.657C65.8186 106.584 65.6595 106.478 65.5257 106.343C65.2562 106.071 65.105 105.704 65.105 105.322C65.105 104.939 65.2562 104.572 65.5257 104.3L73.1545 96.6714C73.4254 96.3997 73.7931 96.2467 74.1768 96.2461C74.5605 96.2455 74.9287 96.3974 75.2004 96.6682C75.4721 96.9391 75.6251 97.3069 75.6257 97.6905C75.6263 98.0742 75.4745 98.4424 75.2036 98.7141L67.5685 106.343C67.4347 106.478 67.2756 106.584 67.1002 106.657C66.9249 106.729 66.7368 106.766 66.5471 106.765Z" fill="#722C6C"/>
<path d="M67.5244 81.1299H62.531V124.961H67.5244V81.1299Z" fill="#652465"/>
<path d="M67.5243 81.1299H66.4714V124.961H67.5243V81.1299Z" fill="#722C6C"/>
<path d="M38.6106 65.8535C38.6119 71.0809 40.1636 76.1905 43.0694 80.5358C45.9753 84.8811 50.1048 88.2668 54.9353 90.2646C59.7659 92.2625 65.0805 92.7826 70.2067 91.7593C75.3329 90.736 80.0405 88.2151 83.7337 84.5157C87.427 80.8163 89.9399 76.1046 90.9547 70.9766C91.9694 65.8487 91.4404 60.535 89.4345 55.7077C87.4286 50.8805 84.036 46.7568 79.6858 43.8582C75.3357 40.9596 70.2235 39.4164 64.9961 39.4239C57.9932 39.4322 51.2801 42.2209 46.3324 47.1768C41.3847 52.1328 38.6073 58.8506 38.6106 65.8535Z" fill="#148FAA"/>
<path d="M35.6726 60.2298C35.6714 62.5531 36.3592 64.8247 37.6491 66.7571C38.939 68.6895 40.773 70.196 42.9191 71.086C45.0653 71.976 47.4272 72.2095 49.7061 71.757C51.9849 71.3045 54.0784 70.1863 55.7217 68.5438C57.3651 66.9014 58.4844 64.8085 58.9381 62.5299C59.3918 60.2512 59.1596 57.8892 58.2708 55.7426C57.3819 53.5959 55.8764 51.7611 53.9447 50.4702C52.013 49.1793 49.7418 48.4902 47.4184 48.4902C44.3043 48.4902 41.3177 49.7269 39.1151 51.9283C36.9125 54.1297 35.6743 57.1157 35.6726 60.2298Z" fill="#148FAA"/>
<path d="M88.1788 69.3151C88.1797 64.2289 86.7124 59.2506 83.953 54.9781C81.1936 50.7055 77.2594 47.3204 72.623 45.2292C67.9867 43.1381 62.8452 42.4298 57.8161 43.1894C52.787 43.9491 48.0841 46.1444 44.2722 49.5117C46.542 46.6311 49.3869 44.2547 52.6257 42.534C55.8645 40.8134 59.4261 39.7861 63.0837 39.5176C66.7414 39.2492 70.4148 39.7455 73.8701 40.9748C77.3254 42.2042 80.4868 44.1397 83.1528 46.6581C85.8189 49.1766 87.9313 52.2226 89.3553 55.6023C90.7794 58.982 91.484 62.6213 91.4242 66.2882C91.3644 69.9552 90.5415 73.5696 89.0079 76.901C87.4744 80.2325 85.2639 83.208 82.5171 85.6382C86.1897 80.9905 88.1848 75.2386 88.1788 69.3151Z" fill="#26B9AC"/>
<path d="M66.7867 125.982C66.6921 126.039 66.5786 126.083 66.4714 126.133V123.782C66.5837 123.828 66.6931 123.881 66.7993 123.939C67.7702 124.5 67.7639 125.415 66.7867 125.982Z" fill="#722C6C"/>
<path d="M55.8731 74.3082C53.9963 74.3096 52.175 74.9449 50.7045 76.111C49.234 77.2771 48.2005 78.9057 47.7714 80.7328C47.6228 80.1132 47.5466 79.4785 47.5444 78.8413C47.5444 76.6324 48.4219 74.514 49.9838 72.9521C51.5458 71.3902 53.6642 70.5127 55.8731 70.5127C58.0819 70.5127 60.2004 71.3902 61.7623 72.9521C63.3242 74.514 64.2017 76.6324 64.2017 78.8413C64.1995 79.4785 64.1234 80.1132 63.9747 80.7328C63.5457 78.9057 62.5121 77.2771 61.0416 76.111C59.5711 74.9449 57.7498 74.3096 55.8731 74.3082Z" fill="#26B9AC"/>
<path d="M73.0031 55.4192C71.8352 55.4169 70.7009 55.8102 69.785 56.5348C68.8691 57.2595 68.2256 58.273 67.9593 59.4101C67.7796 58.6492 67.7744 57.8575 67.9441 57.0943C68.1138 56.3311 68.454 55.6162 68.9392 55.0031C69.4244 54.39 70.042 53.8946 70.7457 53.5541C71.4495 53.2135 72.2212 53.0366 73.0031 53.0366C73.7849 53.0366 74.5567 53.2135 75.2604 53.5541C75.9642 53.8946 76.5818 54.39 77.067 55.0031C77.5522 55.6162 77.8924 56.3311 78.0621 57.0943C78.2318 57.8575 78.2266 58.6492 78.0469 59.4101C77.7806 58.273 77.1371 57.2595 76.2212 56.5348C75.3053 55.8102 74.171 55.4169 73.0031 55.4192Z" fill="#26B9AC"/>
<path d="M206.223 121.184C210.107 123.435 210.132 127.067 206.286 129.299C202.44 131.531 196.154 131.543 192.264 129.299C188.374 127.054 188.368 123.435 192.233 121.184C196.098 118.934 202.352 118.953 206.223 121.184Z" fill="#0B77A7"/>
<path d="M200.877 99.5146H197.636V124.778H200.877V99.5146Z" fill="#652465"/>
<path d="M200.87 96.4634H199.843V124.778H200.87V96.4634Z" fill="#722C6C"/>
<path d="M192.939 99.2751C189.421 101.311 189.396 104.596 192.889 106.626C196.381 108.657 202.062 108.657 205.586 106.626C209.111 104.596 209.111 101.311 205.618 99.2751C202.125 97.2386 196.457 97.2512 192.939 99.2751Z" fill="#148FAA"/>
<path d="M199.257 38.5601L208.228 102.951H190.285L199.257 38.5601Z" fill="#148FAA"/>
<path d="M199.288 38.5601L208.115 102.169L208.222 102.945L208.077 103.84C207.618 105.05 206.717 106.042 205.555 106.614C205.265 106.778 204.925 106.91 204.628 107.049L199.288 38.5601Z" fill="#26B9AC"/>
<path d="M198.115 124.116C197.485 124.488 197.485 125.081 198.115 125.446C198.471 125.628 198.864 125.723 199.263 125.723C199.662 125.723 200.055 125.628 200.41 125.446C200.548 125.397 200.666 125.307 200.75 125.188C200.834 125.069 200.879 124.927 200.879 124.781C200.879 124.635 200.834 124.493 200.75 124.374C200.666 124.255 200.548 124.165 200.41 124.116C200.054 123.938 199.661 123.845 199.263 123.845C198.865 123.845 198.472 123.938 198.115 124.116Z" fill="#652465"/>
<path d="M199.849 123.908C200.042 123.954 200.228 124.024 200.404 124.116C200.534 124.176 200.647 124.27 200.73 124.387C200.813 124.504 200.863 124.641 200.877 124.785C200.862 124.927 200.811 125.064 200.726 125.18C200.642 125.296 200.529 125.388 200.398 125.447C200.226 125.543 200.041 125.613 199.849 125.655V123.908Z" fill="#722C6C"/>
</g>
<defs>
<clipPath id="clip0_1111_2996">
<rect width="333" height="222.944" fill="white"/>
</clipPath>
</defs>
</svg>
