<svg width="272" height="181" viewBox="0 0 272 181" fill="none" xmlns="http://www.w3.org/2000/svg">
<g clip-path="url(#clip0_978_2622)">
<path d="M97.2423 103.685C106.533 87.3423 124.255 74.7935 143.015 76.0024C129.177 91.0506 121.107 110.508 120.235 130.933C119.927 138.811 120.404 147.606 115.173 153.505C111.919 157.176 106.944 158.954 102.052 159.326C97.1607 159.699 92.2701 158.816 87.4438 157.935L86.2731 158.295C85.8273 139.501 87.9517 120.028 97.2423 103.685Z" fill="#B7E3F4"/>
<path d="M143.043 76.3958C129.17 83.0742 117.341 94.2278 110.079 107.831C108.509 110.771 107.173 113.891 106.589 117.19C106.006 120.49 106.414 123.632 107.541 126.766C108.571 129.632 109.957 132.444 110.273 135.51C110.606 138.742 109.417 141.764 107.277 144.162C104.658 147.096 101.14 148.915 97.6391 150.573C93.7515 152.415 89.6844 154.266 86.9309 157.704C86.5973 158.12 85.9706 157.578 86.3037 157.162C91.0943 151.182 99.2946 150.058 104.981 145.241C107.635 142.993 109.627 139.932 109.501 136.345C109.391 133.209 107.964 130.308 106.896 127.415C105.774 124.378 105.214 121.324 105.617 118.086C106.028 114.774 107.246 111.595 108.734 108.627C112.089 101.934 116.681 95.7881 121.942 90.4757C127.987 84.3694 135.033 79.3422 142.774 75.6118C143.253 75.3811 143.519 76.1666 143.043 76.3958Z" fill="white"/>
<path d="M112.206 103.284C110.079 101.729 108.575 99.4689 107.961 96.9068C107.347 94.3448 107.663 91.6478 108.854 89.2977C109.097 88.823 109.846 89.1777 109.603 89.653C108.49 91.8394 108.195 94.3516 108.772 96.7363C109.348 99.1209 110.758 101.221 112.747 102.657C113.179 102.97 112.635 103.595 112.206 103.284Z" fill="white"/>
<path d="M106.827 125.382C112.156 124.604 116.996 121.845 120.382 117.656C120.717 117.241 121.343 117.783 121.009 118.198C117.478 122.55 112.435 125.41 106.888 126.209C106.359 126.284 106.301 125.458 106.827 125.382Z" fill="white"/>
<path d="M128.397 85.3884C129.094 86.1616 129.973 86.7494 130.954 87.0991C131.934 87.4487 132.987 87.5493 134.016 87.3918C134.544 87.3094 134.601 88.1363 134.077 88.2181C132.939 88.3869 131.777 88.2744 130.692 87.8904C129.608 87.5065 128.634 86.8628 127.855 86.0156C127.775 85.9419 127.726 85.8405 127.718 85.7319C127.71 85.6234 127.744 85.5159 127.812 85.4313C127.884 85.3486 127.986 85.2977 128.096 85.2897C128.205 85.2817 128.313 85.3171 128.397 85.3884Z" fill="white"/>
<path d="M180.341 127.558C180.013 127.619 179.686 127.68 179.355 127.747C174.95 128.587 170.62 129.784 166.409 131.325C166.081 131.439 165.751 131.56 165.428 131.683C155.321 135.505 146.013 141.17 137.974 148.39C134.778 151.266 131.806 154.381 129.083 157.708C125.322 162.303 121.61 167.584 116.695 170.58C116.186 170.898 115.658 171.185 115.113 171.438L86.8023 159.695C86.7514 159.636 86.6974 159.583 86.6462 159.524L85.4944 159.107C85.6229 158.925 85.76 158.74 85.8885 158.559C85.9626 158.453 86.0429 158.35 86.117 158.245C86.1684 158.175 86.2202 158.106 86.2625 158.04C86.2796 158.017 86.2969 157.994 86.3113 157.977C86.3537 157.911 86.4 157.855 86.4397 157.796C87.2035 156.757 87.9758 155.722 88.7568 154.691C88.7595 154.685 88.7595 154.685 88.7685 154.681C94.7393 146.839 101.417 139.427 109.008 133.263C109.236 133.078 109.467 132.886 109.708 132.706C113.145 129.947 116.802 127.474 120.642 125.31C122.749 124.132 124.913 123.062 127.128 122.103C132.855 119.636 138.935 118.086 145.144 117.508C157.521 116.359 170.129 119.181 179.622 126.957C179.865 127.156 180.101 127.353 180.341 127.558Z" fill="#B7E3F4"/>
<path d="M180.129 127.891C165.031 124.871 148.871 126.655 134.884 133.144C131.859 134.547 128.914 136.233 126.462 138.516C124.01 140.8 122.443 143.554 121.456 146.735C120.554 149.643 119.967 152.723 118.374 155.361C116.694 158.142 113.925 159.839 110.772 160.465C106.914 161.232 103.011 160.566 99.2167 159.782C95.0039 158.912 90.6419 157.941 86.374 159.028C85.8569 159.16 85.6828 158.35 86.1992 158.218C93.6246 156.328 100.849 160.367 108.29 159.945C111.762 159.747 115.195 158.503 117.254 155.563C119.055 152.993 119.662 149.818 120.55 146.865C121.483 143.764 122.875 140.989 125.146 138.646C127.469 136.249 130.355 134.444 133.329 132.97C140.039 129.646 147.405 127.504 154.804 126.429C163.308 125.194 171.96 125.422 180.387 127.104C180.908 127.208 180.647 127.995 180.129 127.891Z" fill="white"/>
<path d="M139.319 130.795C138.557 128.273 138.716 125.562 139.769 123.146C140.821 120.731 142.698 118.768 145.063 117.609C145.543 117.376 145.928 118.11 145.447 118.344C143.242 119.419 141.494 121.247 140.519 123.499C139.544 125.75 139.405 128.276 140.129 130.62C140.285 131.129 139.474 131.301 139.319 130.795Z" fill="white"/>
<path d="M121.72 145.2C126.443 147.787 131.969 148.498 137.194 147.192C137.711 147.062 137.885 147.872 137.368 148.002C131.929 149.351 126.18 148.599 121.27 145.896C120.803 145.638 121.254 144.943 121.72 145.2Z" fill="white"/>
<path d="M163.02 126.254C163.112 127.291 163.46 128.29 164.032 129.159C164.605 130.029 165.384 130.743 166.301 131.237C166.772 131.489 166.32 132.183 165.852 131.933C164.842 131.383 163.982 130.593 163.347 129.634C162.712 128.674 162.322 127.574 162.211 126.429C162.191 126.322 162.213 126.211 162.272 126.12C162.331 126.028 162.423 125.963 162.528 125.936C162.635 125.914 162.747 125.934 162.84 125.994C162.932 126.053 162.997 126.147 163.02 126.254Z" fill="white"/>
<path d="M126.412 146.932C122.447 127.761 117.491 121.37 117.491 121.37L115.597 119.901L113.32 118.133L113.331 117.905L112.791 117.722L112.665 117.623L112.457 117.464L112.423 117.499L112.353 117.573L102.049 114.07L88.9781 109.63L82.9252 101.763C81.9394 100.482 80.6703 99.4459 79.2173 98.7371C77.7643 98.0284 76.1668 97.6658 74.5502 97.6778L55.2193 97.8208C52.6056 97.8402 50.0936 98.8366 48.1772 100.614L35.4713 112.4L15.6731 121.855L15.6397 121.822L15.4318 121.97L12.3728 123.433L12.499 124.09L10.6057 125.456C10.6057 125.456 5.64964 131.404 1.68479 149.242C0.676181 153.78 0.179705 163.517 0.000503593 175.515C-0.00849767 176.122 0.103249 176.724 0.329243 177.288C0.555236 177.851 0.89097 178.364 1.31692 178.796C1.74288 179.229 2.25055 179.572 2.81042 179.807C3.3703 180.041 3.9712 180.162 4.5782 180.162H110.324L123.523 180.162C124.129 180.162 124.73 180.041 125.289 179.807C125.849 179.573 126.356 179.23 126.782 178.798C127.208 178.366 127.544 177.854 127.77 177.291C127.997 176.728 128.109 176.126 128.101 175.519C127.926 162.464 127.429 151.854 126.412 146.932Z" fill="#61A9C5"/>
<path d="M139.979 16.7183C135.865 16.7183 131.919 18.3526 129.01 21.2617C126.101 24.1709 124.467 28.1165 124.467 32.2307C124.467 36.3448 126.101 40.2905 129.01 43.1996C131.919 46.1088 135.865 47.7431 139.979 47.7431H255.584C259.698 47.7431 263.643 46.1088 266.553 43.1996C269.462 40.2905 271.096 36.3448 271.096 32.2307C271.096 28.1165 269.462 24.1709 266.553 21.2617C263.643 18.3526 259.698 16.7183 255.584 16.7183H139.979Z" fill="#B3D6E3"/>
<path d="M139.979 19.8582C136.698 19.8582 133.551 21.1617 131.23 23.4821C128.91 25.8025 127.606 28.9496 127.606 32.2312C127.606 35.5127 128.91 38.6598 131.23 40.9802C133.551 43.3006 136.698 44.6042 139.979 44.6042H255.584C258.865 44.6042 262.012 43.3006 264.333 40.9802C266.653 38.6598 267.957 35.5127 267.957 32.2312C267.957 28.9496 266.653 25.8025 264.333 23.4821C262.012 21.1617 258.865 19.8582 255.584 19.8582H139.979Z" fill="white"/>
<path d="M67.9206 90.4153C81.9074 90.4153 93.2459 79.0768 93.2459 65.09C93.2459 51.1032 81.9074 39.7646 67.9206 39.7646C53.9338 39.7646 42.5952 51.1032 42.5952 65.09C42.5952 79.0768 53.9338 90.4153 67.9206 90.4153Z" fill="#DE9C85"/>
<path d="M61.4418 89.1758C61.3337 88.9376 61.2258 88.6986 61.1182 88.4587C61.1596 88.4601 61.2007 88.466 61.2421 88.4671L61.4418 89.1758Z" fill="#2F2E41"/>
<path d="M41.891 40.9169C43.1719 39.8951 44.6689 38.955 46.3066 39.0078C47.9442 39.0606 49.6049 40.5397 49.2656 42.1427C52.2737 36.8167 57.0615 32.7204 62.7888 30.5728C68.5161 28.4253 74.8169 28.3636 80.5851 30.3987C84.6553 31.8347 88.6468 34.7076 89.5818 38.9212C89.8218 40.0028 89.8733 41.1889 90.5487 42.0672C91.4002 43.1746 93.0294 43.4251 94.371 43.0355C94.3844 43.0317 94.3978 43.0277 94.4112 43.0237C94.6378 42.9463 94.8824 42.9387 95.1134 43.0019C95.3444 43.065 95.5512 43.196 95.7069 43.378C95.8626 43.5599 95.9602 43.7844 95.9869 44.0224C96.0137 44.2603 95.9684 44.5009 95.857 44.7129L94.7053 46.8607C96.1571 47.1843 97.6655 47.1522 99.1022 46.7672C99.3409 46.7046 99.5931 46.7174 99.8242 46.8038C100.055 46.8902 100.254 47.046 100.393 47.2498C100.532 47.4536 100.605 47.6954 100.601 47.9421C100.597 48.1888 100.517 48.4283 100.372 48.6277C96.5743 53.8414 90.23 57.2082 83.7557 57.1686C79.1542 57.1405 74.5054 55.5547 70.0271 56.6128C68.2946 57.0222 66.6757 57.8142 65.2893 58.9308C63.9028 60.0474 62.784 61.4603 62.0148 63.0657C61.2456 64.6711 60.8456 66.4284 60.8441 68.2086C60.8426 69.9888 61.2397 71.7467 62.0063 73.3534C60.6305 71.8486 57.971 72.2049 56.5637 73.6803C55.1565 75.1557 54.7922 77.3578 54.934 79.3918C55.1508 82.5027 56.3697 85.4341 57.6546 88.2871C46.8815 87.948 36.6919 80.3908 33.2621 70.1695C29.8179 59.9054 33.4275 47.6685 41.891 40.9169Z" fill="#1E1E1E"/>
<path opacity="0.2" d="M24.9268 141.144L32.0299 179.791L36.292 180.162L24.9268 141.144Z" fill="black"/>
<path opacity="0.2" d="M103.17 138.229L96.0665 179.763L91.8044 180.162L103.17 138.229Z" fill="black"/>
<path d="M47.9493 27.91C46.5873 28.4787 45.1662 27.8555 44.5702 26.4282C43.9651 24.9791 44.5303 23.508 45.914 22.9302C47.2979 22.3523 48.6937 22.9771 49.3086 24.4496C49.9142 25.9 49.3552 27.3229 47.9493 27.91ZM45.3404 20.0778L44.2575 20.53C43.9869 20.6416 43.6844 20.6477 43.4096 20.5469C43.1349 20.4461 42.908 20.2459 42.7738 19.9858L42.7202 19.8811C41.555 17.7797 41.4216 15.2258 42.3258 12.2943C43.1634 9.66453 43.5113 7.81506 42.8116 6.13954C42.0027 4.20232 40.2754 3.59548 38.0726 4.47455C37.2183 4.83129 36.9465 4.8256 36.2741 5.49255C36.1279 5.63939 35.9536 5.75528 35.7616 5.8333C35.5696 5.91132 35.3638 5.94987 35.1566 5.94667C34.9563 5.94431 34.7585 5.90164 34.575 5.82119C34.3916 5.74074 34.2262 5.62417 34.0887 5.47842C33.8239 5.19755 33.6756 4.82666 33.6736 4.44065C33.6717 4.05463 33.8163 3.68226 34.0782 3.39873C35.2083 2.21579 36.5713 1.27994 38.0812 0.650218C42.8139 -1.32601 45.1964 1.59161 46.2867 4.2026C47.3531 6.75645 46.7532 9.126 45.7893 12.1948C44.9816 14.7448 45.0287 16.6343 45.9462 18.513C46.0124 18.6551 46.0493 18.809 46.0545 18.9657C46.0598 19.1223 46.0333 19.2784 45.9767 19.4245C45.9202 19.5707 45.8346 19.7039 45.7253 19.8162C45.6159 19.9284 45.485 20.0174 45.3404 20.0778Z" fill="#61A9C5"/>
<path d="M165.515 39.629H142.514C142.441 39.6295 142.368 39.6156 142.301 39.588C142.233 39.5603 142.171 39.5196 142.12 39.4681C142.068 39.4166 142.027 39.3554 141.999 39.2879C141.971 39.2204 141.956 39.1481 141.956 39.075C141.956 39.0019 141.971 38.9296 141.999 38.8621C142.027 38.7947 142.068 38.7334 142.12 38.6819C142.171 38.6304 142.233 38.5897 142.301 38.5621C142.368 38.5345 142.441 38.5205 142.514 38.521H165.515C165.661 38.522 165.801 38.5808 165.904 38.6846C166.007 38.7884 166.065 38.9287 166.065 39.075C166.065 39.2213 166.007 39.3617 165.904 39.4654C165.801 39.5692 165.661 39.628 165.515 39.629Z" fill="#0075A2"/>
<path d="M194.693 39.8139H171.692C171.619 39.8144 171.546 39.8004 171.479 39.7728C171.411 39.7452 171.349 39.7044 171.298 39.6529C171.246 39.6014 171.205 39.5402 171.177 39.4727C171.148 39.4053 171.134 39.3329 171.134 39.2598C171.134 39.1868 171.148 39.1144 171.177 39.0469C171.205 38.9795 171.246 38.9182 171.298 38.8667C171.349 38.8153 171.411 38.7745 171.479 38.7469C171.546 38.7193 171.619 38.7053 171.692 38.7058H194.693C194.766 38.7053 194.838 38.7193 194.906 38.7469C194.974 38.7745 195.035 38.8153 195.087 38.8667C195.139 38.9182 195.18 38.9795 195.208 39.0469C195.236 39.1144 195.251 39.1868 195.251 39.2598C195.251 39.3329 195.236 39.4053 195.208 39.4727C195.18 39.5402 195.139 39.6014 195.087 39.6529C195.035 39.7044 194.974 39.7452 194.906 39.7728C194.838 39.8004 194.766 39.8144 194.693 39.8139Z" fill="#0075A2"/>
<path d="M223.871 39.9987H200.87C200.724 39.9977 200.584 39.9389 200.481 39.8351C200.377 39.7313 200.32 39.5909 200.32 39.4446C200.32 39.2984 200.377 39.158 200.481 39.0542C200.584 38.9504 200.724 38.8916 200.87 38.8906H223.871C223.944 38.8901 224.016 38.9041 224.084 38.9317C224.152 38.9593 224.213 39.0001 224.265 39.0516C224.317 39.1031 224.358 39.1643 224.386 39.2318C224.414 39.2992 224.429 39.3716 224.429 39.4446C224.429 39.5177 224.414 39.5901 224.386 39.6575C224.358 39.725 224.317 39.7862 224.265 39.8377C224.213 39.8892 224.152 39.93 224.084 39.9576C224.016 39.9852 223.944 39.9992 223.871 39.9987Z" fill="#0075A2"/>
<path d="M253.049 40.1835H230.048C229.902 40.1825 229.762 40.1237 229.659 40.0199C229.556 39.9161 229.498 39.7757 229.498 39.6294C229.498 39.4832 229.556 39.3428 229.659 39.239C229.762 39.1352 229.902 39.0764 230.048 39.0754H253.049C253.196 39.0764 253.336 39.1352 253.439 39.239C253.542 39.3428 253.6 39.4832 253.6 39.6294C253.6 39.7757 253.542 39.9161 253.439 40.0199C253.336 40.1237 253.196 40.1825 253.049 40.1835Z" fill="#0075A2"/>
<path d="M153.964 34.5308C156.325 34.5308 158.239 32.6168 158.239 30.2559C158.239 27.8949 156.325 25.981 153.964 25.981C151.603 25.981 149.689 27.8949 149.689 30.2559C149.689 32.6168 151.603 34.5308 153.964 34.5308Z" fill="#0075A2"/>
<path d="M183.318 34.5308C185.679 34.5308 187.593 32.6168 187.593 30.2559C187.593 27.8949 185.679 25.981 183.318 25.981C180.957 25.981 179.043 27.8949 179.043 30.2559C179.043 32.6168 180.957 34.5308 183.318 34.5308Z" fill="#0075A2"/>
<path d="M212.672 34.5308C215.033 34.5308 216.947 32.6168 216.947 30.2559C216.947 27.8949 215.033 25.981 212.672 25.981C210.311 25.981 208.397 27.8949 208.397 30.2559C208.397 32.6168 210.311 34.5308 212.672 34.5308Z" fill="#0075A2"/>
<path d="M242.027 34.5308C244.388 34.5308 246.302 32.6168 246.302 30.2559C246.302 27.8949 244.388 25.981 242.027 25.981C239.666 25.981 237.752 27.8949 237.752 30.2559C237.752 32.6168 239.666 34.5308 242.027 34.5308Z" fill="#0075A2"/>
</g>
<defs>
<clipPath id="clip0_978_2622">
<rect width="271.096" height="180.162" fill="white"/>
</clipPath>
</defs>
</svg>
