<svg width="212" height="172" viewBox="0 0 212 172" fill="none" xmlns="http://www.w3.org/2000/svg">
<g clip-path="url(#clip0_954_6254)">
<path d="M14.7772 101.458C8.32341 86.6021 8.81899 68.9527 14.7772 53.9051C21.1747 37.8776 34.454 25.3867 49.3101 16.6127C75.4745 1.17087 107.879 -3.86377 137.163 4.13309C144.732 6.19425 152.165 9.13394 158.394 13.8983C164.623 18.6626 169.578 25.398 171.076 33.102C172.124 38.4295 171.493 43.9484 172.203 49.3322C175.063 70.7323 195.112 80.6326 194.842 102.19C194.673 115.65 185.482 125.077 172.597 133.446C161.334 140.789 45.4131 171.898 14.7772 101.458Z" fill="white"/>
<path d="M105.998 172.001C164.539 172.001 211.996 169.379 211.996 166.144C211.996 162.909 164.539 160.287 105.998 160.287C47.4568 160.287 0 162.909 0 166.144C0 169.379 47.4568 172.001 105.998 172.001Z" fill="#F1F6E8"/>
<path d="M27.7639 96.9648C27.7639 97.0775 27.7639 97.2014 27.7639 97.3253C29.4759 112.057 32.6634 123.231 36.5154 131.824L44.76 135.417L38.3964 135.361H38.2161C43.0255 144.664 48.6233 150.319 53.6242 153.743C56.1836 155.525 58.9871 156.929 61.9477 157.91L62.3982 158.056C62.7811 158.18 63.1416 158.282 63.5245 158.372L67.7144 157.977C67.7144 157.775 67.7707 157.572 67.7933 157.369C67.8158 157.167 67.7933 157.121 67.7933 156.998C67.7933 156.874 67.7932 156.66 67.8496 156.491C70.0008 136.825 61.5872 122.622 51.9122 113.037L51.822 112.936C48.6947 109.865 45.3026 107.076 41.6852 104.601L40.5589 109.557L39.3312 103.036C35.7578 100.722 31.9891 98.7242 28.068 97.0662L27.7639 96.9648Z" fill="#B7E3F4"/>
<path d="M27.6174 97.0548L27.7976 97.3251L38.9595 113.961L39.1622 114.254L42.2032 118.793L42.3046 118.939L52.0135 133.401L52.0247 133.424L67.8382 156.986L68.0748 157.347L68.4464 157.898L68.8181 157.865L68.4464 157.313L67.8946 156.491L52.2838 133.232L52.0022 132.804L28.0229 97.066L27.8877 96.8633L27.6174 97.0548Z" fill="white"/>
<path d="M30.6973 113.154L30.573 113.406L42.2353 119.145L42.3596 118.892L30.6973 113.154Z" fill="white"/>
<path d="M30.1001 109.603L29.9758 109.855L39.1124 114.349L39.2367 114.097L30.1001 109.603Z" fill="white"/>
<path d="M51.9554 112.921L51.6738 112.926L52.0099 133.411L52.2915 133.406L51.9554 112.921Z" fill="white"/>
<path d="M69.8656 160.984C69.8656 160.984 60.6861 167.077 45.4358 160.77L49.6707 157.943L42.2821 159.328C36.245 156.298 29.3858 151.343 21.862 143.47L23.4726 142.343L21.22 142.771C19.9585 141.42 18.6632 139.989 17.3567 138.469C20.6676 137.785 24.0345 137.408 27.4147 137.342L31.0302 140.992L29.6223 137.309C41.9442 137.399 60.3933 141.206 69.8656 160.984Z" fill="#B7E3F4"/>
<path d="M17.4271 138.375L17.3091 138.668L70.4194 160.104L70.5374 159.812L17.4271 138.375Z" fill="white"/>
<path d="M31.1696 144.081L24.269 145.828L24.3409 146.112L31.2415 144.365L31.1696 144.081Z" fill="white"/>
<path d="M34.7903 145.476L26.8296 148.129L26.9222 148.407L34.8829 145.754L34.7903 145.476Z" fill="white"/>
<path d="M55.7077 144.686L55.9105 144.371C51.0204 141.219 45.5471 139.082 39.8154 138.086L39.7478 138.446C45.4312 139.439 50.858 141.561 55.7077 144.686Z" fill="#2E4882"/>
<path d="M125.629 31.875H62.8373C61.052 31.875 59.6047 33.3223 59.6047 35.1075V162.854C59.6047 164.64 61.052 166.087 62.8373 166.087H125.629C127.415 166.087 128.862 164.64 128.862 162.854V35.1075C128.862 33.3223 127.415 31.875 125.629 31.875Z" fill="#0075A2"/>
<path d="M129.763 31.875H66.9708C65.1855 31.875 63.7383 33.3223 63.7383 35.1075V162.854C63.7383 164.64 65.1855 166.087 66.9708 166.087H129.763C131.548 166.087 132.996 164.64 132.996 162.854V35.1075C132.996 33.3223 131.548 31.875 129.763 31.875Z" fill="#B3D6E3"/>
<path d="M128.242 48.3526V149.609C128.257 150.083 128.179 150.557 128.011 151.001C127.843 151.445 127.589 151.852 127.264 152.199C126.938 152.545 126.548 152.824 126.115 153.019C125.682 153.214 125.214 153.322 124.74 153.337H71.9941C71.5193 153.322 71.052 153.214 70.6189 153.019C70.1858 152.824 69.7954 152.545 69.4701 152.199C69.1448 151.852 68.8909 151.445 68.723 151.001C68.555 150.557 68.4763 150.083 68.4913 149.609V48.3526C68.4609 47.3925 68.8127 46.4596 69.4694 45.7585C70.1261 45.0575 71.0341 44.6456 71.9941 44.6133H124.74C125.7 44.6456 126.608 45.0575 127.264 45.7585C127.921 46.4596 128.273 47.3925 128.242 48.3526Z" fill="#D5EFF9"/>
<path d="M107.09 38.035H89.6437C89.5601 38.035 89.4799 38.0018 89.4207 37.9427C89.3616 37.8835 89.3284 37.8033 89.3284 37.7197C89.3284 37.636 89.3616 37.5558 89.4207 37.4967C89.4799 37.4375 89.5601 37.4043 89.6437 37.4043H107.09C107.174 37.4043 107.254 37.4375 107.313 37.4967C107.373 37.5558 107.406 37.636 107.406 37.7197C107.406 37.8033 107.373 37.8835 107.313 37.9427C107.254 38.0018 107.174 38.035 107.09 38.035Z" fill="#2E4882"/>
<path d="M125.415 154.091H71.3521C70.1801 154.067 69.0653 153.579 68.2523 152.735C67.4394 151.89 66.9947 150.758 67.0158 149.585V48.3295C67.0039 47.7487 67.1067 47.1713 67.3183 46.6303C67.5299 46.0894 67.8461 45.5955 68.249 45.1769C68.6518 44.7584 69.1333 44.4235 69.6658 44.1914C70.1983 43.9592 70.7713 43.8345 71.3521 43.8242H125.415C125.996 43.8345 126.569 43.9592 127.102 44.1914C127.634 44.4235 128.116 44.7584 128.519 45.1769C128.921 45.5955 129.238 46.0894 129.449 46.6303C129.661 47.1713 129.764 47.7487 129.752 48.3295V149.585C129.773 150.758 129.328 151.89 128.515 152.735C127.702 153.579 126.587 154.067 125.415 154.091ZM71.3521 45.3673C70.5804 45.3879 69.8483 45.7137 69.3162 46.2732C68.7842 46.8326 68.4957 47.5802 68.5138 48.352V149.608C68.4957 150.38 68.7842 151.127 69.3162 151.687C69.8483 152.246 70.5804 152.572 71.3521 152.593H125.415C126.187 152.572 126.919 152.246 127.451 151.687C127.983 151.127 128.272 150.38 128.254 149.608V48.352C128.272 47.5802 127.983 46.8326 127.451 46.2732C126.919 45.7137 126.187 45.3879 125.415 45.3673H71.3521Z" fill="white"/>
<path d="M-nan -nanL133.277 35.1079V144.304C133.277 144.46 133.151 144.586 132.996 144.586C132.84 144.586 132.714 144.46 132.714 144.304V35.1079C132.714 34.3252 132.403 33.5747 131.85 33.0212C131.296 32.4678 130.546 32.1569 129.763 32.1569H66.9709C66.1883 32.1569 65.4377 32.4678 64.8842 33.0212C64.3308 33.5747 64.0199 34.3252 64.0199 35.1079V122.589C64.0199 122.744 63.8939 122.871 63.7384 122.871C63.5829 122.871 63.4568 122.744 63.4568 122.589V35.1079C63.4568 34.1759 63.827 33.282 64.486 32.623C65.1451 31.964 66.0389 31.5938 66.9709 31.5938H129.797C130.723 31.6027 131.608 31.9768 132.26 32.6349C132.912 33.293 133.277 34.1817 133.277 35.1079L-nan -nanZ" fill="#0075A2" fill-opacity="0.3"/>
<path d="M74.1906 166.368H66.9709C66.0389 166.368 65.1451 165.997 64.486 165.338C63.827 164.679 63.4568 163.785 63.4568 162.853V148.076H64.0199V162.853C64.0199 163.636 64.3308 164.387 64.8842 164.94C65.4377 165.494 66.1883 165.804 66.9709 165.804H74.1906V166.368Z" fill="#2B7EC0"/>
<path d="M109.805 165.805H82.1987V166.368H109.805V165.805Z" fill="#2B7EC0"/>
<path d="M156.22 164.15C156.22 165.108 149.136 165.896 140.452 165.896C131.768 165.896 124.627 165.108 124.627 164.15C124.627 164.15 124.627 164.15 124.627 164.094V159.363H156.254V164.083C156.249 164.108 156.237 164.131 156.22 164.15Z" fill="#F49B51"/>
<path d="M156.22 159.408C156.22 160.377 149.136 161.154 140.452 161.154C131.768 161.154 124.627 160.377 124.627 159.408C124.627 158.439 131.711 157.662 140.452 157.662C149.192 157.662 156.22 158.439 156.22 159.408Z" fill="url(#paint0_linear_954_6254)"/>
<path d="M159.96 158.439C159.96 159.408 152.875 160.185 144.191 160.185C135.507 160.185 128.366 159.408 128.366 158.439C128.366 158.439 128.366 158.439 128.366 158.383V153.652H159.993V158.372C159.988 158.397 159.977 158.42 159.96 158.439Z" fill="#F49B51"/>
<path d="M159.96 153.697C159.96 154.666 152.875 155.454 144.191 155.454C135.507 155.454 128.366 154.666 128.366 153.697C128.366 152.728 135.451 151.951 144.191 151.951C152.931 151.951 159.96 152.728 159.96 153.697Z" fill="url(#paint1_linear_954_6254)"/>
<path d="M156.22 152.729C156.22 153.698 149.136 154.486 140.452 154.486C131.768 154.486 124.627 153.698 124.627 152.729V147.965H156.254V152.684C156.247 152.702 156.235 152.718 156.22 152.729Z" fill="#F49B51"/>
<path d="M140.396 149.732C149.135 149.732 156.22 148.95 156.22 147.986C156.22 147.022 149.135 146.24 140.396 146.24C131.656 146.24 124.571 147.022 124.571 147.986C124.571 148.95 131.656 149.732 140.396 149.732Z" fill="url(#paint2_linear_954_6254)"/>
<path d="M140.407 166.088C133.964 166.088 124.391 165.57 124.391 164.15H124.762C124.762 164.691 130.135 165.705 140.407 165.705H141.533V166.076L140.407 166.088Z" fill="#2E4882"/>
<path d="M146.692 165.986V165.614C148.291 165.535 149.767 165.434 151.062 165.299V165.67C149.767 165.761 148.291 165.862 146.692 165.986Z" fill="#2E4882"/>
<path d="M134.156 159.959C128.209 159.418 128.209 158.664 128.209 158.416H128.581C128.581 158.596 129.594 159.159 134.212 159.542L134.156 159.959Z" fill="#2E4882"/>
<path d="M144.225 160.354C142.445 160.354 140.7 160.354 139.033 160.253V159.881C142.006 159.993 145.295 160.016 148.37 159.881V160.354C147.03 160.354 145.633 160.354 144.225 160.354Z" fill="#2E4882"/>
<path d="M152.323 160.106V159.735C154.013 159.622 155.488 159.476 156.705 159.307V159.678C155.499 159.847 154.013 159.994 152.323 160.106Z" fill="#2E4882"/>
<path d="M129.797 149.485C124.515 148.945 124.515 148.269 124.515 148.01H124.898C124.898 148.01 125.033 148.618 129.831 149.136L129.797 149.485Z" fill="#2E4882"/>
<path d="M140.497 149.947C138.684 149.947 136.904 149.947 135.215 149.845V149.474C136.893 149.541 138.672 149.575 140.486 149.575C143.73 149.575 146.849 149.463 149.496 149.26V149.631C146.883 149.834 143.752 149.947 140.497 149.947Z" fill="#2E4882"/>
<path d="M161.829 147.029C161.829 147.986 154.745 148.775 146.005 148.775C137.264 148.775 130.18 147.986 130.18 147.029C130.18 147.029 130.18 147.029 130.18 146.973V142.242H161.807V146.961C161.82 146.982 161.828 147.005 161.829 147.029Z" fill="#F49B51"/>
<path d="M161.829 142.333C161.829 143.302 154.745 144.079 146.005 144.079C137.264 144.079 130.18 143.302 130.18 142.333C130.18 141.365 137.264 140.576 146.005 140.576C154.745 140.576 161.829 141.32 161.829 142.333Z" fill="url(#paint3_linear_954_6254)"/>
<path d="M158.901 142.333C158.901 142.987 153.123 143.46 146.005 143.46C138.886 143.46 133.176 142.942 133.176 142.333C133.176 141.725 138.943 141.207 146.061 141.207C153.179 141.207 158.901 141.635 158.901 142.333Z" fill="#C4B037"/>
<g opacity="0.38">
<path d="M132.917 85.004V130.44H93.3492C92.6637 130.49 91.9858 130.269 91.4613 129.824C90.9369 129.38 90.6078 128.748 90.5447 128.063V87.3692C90.6077 86.6856 90.9372 86.0542 91.462 85.6116C91.9868 85.169 92.6648 84.9508 93.3492 85.004H132.917Z" fill="#61A9C5"/>
</g>
<path d="M103.892 4.92224C100.729 5.01041 97.664 6.03449 95.0836 7.86497C92.5033 9.69544 90.5238 12.2501 89.3955 15.2057C88.2672 18.1613 88.0408 21.3852 88.7449 24.4695C89.4491 27.5538 91.0521 30.36 93.3513 32.5332C95.6505 34.7063 98.5426 36.1488 101.662 36.678C104.781 37.2073 107.987 36.7997 110.874 35.5067C113.762 34.2137 116.201 32.0934 117.883 29.414C119.565 26.7346 120.415 23.6165 120.325 20.4542C120.204 16.2158 118.405 12.1988 115.324 9.28629C112.242 6.37376 108.13 4.80406 103.892 4.92224ZM117.205 20.5443C117.278 23.0749 116.604 25.571 115.267 27.7205C113.929 29.8699 111.987 31.5773 109.684 32.629C107.382 33.6807 104.82 34.0301 102.319 33.6334C99.8189 33.2367 97.4909 32.1116 95.6266 30.3988C93.7623 28.686 92.4444 26.4615 91.8377 24.0036C91.231 21.5457 91.3625 18.9634 92.2157 16.5799C93.069 14.1963 94.6061 12.1172 96.6347 10.6026C98.6634 9.08807 101.094 8.20527 103.621 8.06466H103.982C107.331 7.97721 110.583 9.19679 113.049 11.4651C115.515 13.7335 117.002 16.8726 117.194 20.2176C117.205 20.2514 117.205 20.3641 117.205 20.488V20.5443Z" fill="url(#paint4_linear_954_6254)"/>
<path d="M117.193 20.1386C117.193 20.2512 117.193 20.3639 117.193 20.4878C117.262 23.0148 116.585 25.5062 115.247 27.6506C113.908 29.7951 111.967 31.4974 109.666 32.5451C107.365 33.5927 104.807 33.9391 102.31 33.5411C99.8139 33.143 97.4901 32.0181 95.6292 30.3069C93.7684 28.5958 92.453 26.3742 91.8475 23.9198C91.242 21.4653 91.3732 18.8869 92.2247 16.5066C93.0762 14.1263 94.6102 12.0497 96.6352 10.5362C98.6601 9.02275 101.086 8.13952 103.61 7.9969H103.97C107.32 7.90636 110.573 9.12307 113.041 11.3893C115.509 13.6556 116.999 16.7935 117.193 20.1386Z" fill="#F49B51"/>
<path d="M104.083 30.7155L103.948 28.3052C102.65 28.3724 101.359 28.0759 100.22 27.4492L100.715 25.816C101.778 26.4262 102.994 26.7193 104.218 26.6608C105.908 26.5594 107.012 25.5345 106.933 24.1491C106.854 22.7637 105.885 22.0766 104.072 21.4572C101.571 20.635 100.006 19.61 99.8932 17.5376C99.8503 16.5623 100.173 15.6062 100.798 14.8562C101.423 14.1063 102.305 13.6166 103.272 13.4828L103.137 11.0613L104.612 10.9824L104.748 13.3026C105.839 13.2468 106.926 13.4758 107.901 13.9672L107.394 15.5778C106.452 15.0854 105.392 14.8633 104.331 14.9358C102.495 15.0372 101.853 16.1747 101.909 17.1884C101.977 18.4274 102.9 19.0018 105.029 19.7564C107.552 20.6237 108.859 21.7951 108.983 23.9238C109.021 24.9505 108.679 25.9552 108.022 26.7452C107.365 27.5352 106.44 28.0546 105.423 28.2038L105.57 30.693L104.083 30.7155Z" fill="#FCC659"/>
<path d="M116.484 16.9506L116.382 16.6465C115.784 14.9345 114.826 13.3704 113.573 12.0591C112.32 10.7478 110.801 9.71974 109.118 9.04388L109.253 8.72852C110.978 9.41953 112.537 10.4714 113.822 11.8137C115.108 13.156 116.093 14.7577 116.709 16.5114C116.709 16.6353 116.788 16.7366 116.822 16.8493L116.484 16.9506Z" fill="#2E4882"/>
<path d="M109.118 9.0435C106.377 7.94448 103.338 7.83299 100.524 8.72813L100.423 8.40149C103.314 7.47675 106.438 7.5923 109.253 8.72813L109.118 9.0435Z" fill="#2E4882"/>
<path d="M115.988 26.795L115.684 26.6261C116.445 25.1453 116.911 23.5312 117.058 21.873H117.396C117.264 23.5919 116.785 25.2662 115.988 26.795Z" fill="#2E4882"/>
<path d="M114.028 8.40147C112.742 7.39211 111.305 6.59024 109.771 6.02494L109.895 5.67578C111.47 6.25287 112.945 7.07383 114.265 8.10863L114.028 8.40147Z" fill="#2E4882"/>
<path d="M114.096 33.7566L113.871 33.4525C117.156 30.9745 119.342 27.3106 119.963 23.2428C120.584 19.1751 119.59 15.0258 117.194 11.6808L117.498 11.4668C119.956 14.8937 120.979 19.1456 120.348 23.3158C119.717 27.4859 117.481 31.2446 114.119 33.7904L114.096 33.7566Z" fill="#2E4882"/>
<path d="M62.0826 58.4002C59.4779 59.0008 57.1098 60.3602 55.2777 62.3066C53.4456 64.253 52.2317 66.699 51.7897 69.3352C51.3476 71.9714 51.6971 74.6795 52.7941 77.1171C53.891 79.5547 55.6861 81.6122 57.9524 83.0297C60.2186 84.4471 62.8544 85.1606 65.5262 85.0802C68.198 84.9997 70.7859 84.1288 72.9628 82.5776C75.1397 81.0264 76.8078 78.8645 77.756 76.3653C78.7043 73.8662 78.8902 71.1419 78.2903 68.5371C77.8919 66.8072 77.1566 65.1727 76.1264 63.727C75.0963 62.2813 73.7914 61.0527 72.2863 60.1114C70.7812 59.17 69.1054 58.5344 67.3547 58.2408C65.6039 57.9472 63.8125 58.0014 62.0826 58.4002ZM75.7336 69.1228C76.3819 71.9289 75.8911 74.8776 74.3688 77.3225C72.8466 79.7674 70.4171 81.509 67.6129 82.1656C64.8067 82.8138 61.858 82.323 59.4131 80.8008C56.9682 79.2785 55.2266 76.849 54.5701 74.0448C53.9324 71.2902 54.3931 68.3956 55.8546 65.9751C57.3161 63.5547 59.6633 61.7991 62.398 61.0809L62.6909 61.002C65.4546 60.366 68.3573 60.8342 70.7809 62.3069C73.2045 63.7795 74.9574 66.1403 75.666 68.8863L75.7336 69.1228Z" fill="url(#paint5_linear_954_6254)"/>
<path d="M75.6549 68.7958L75.7224 69.0886C76.0465 70.4783 76.0935 71.9182 75.8606 73.326C75.6278 74.7339 75.1198 76.082 74.3656 77.2933C73.6114 78.5046 72.6258 79.5554 71.4652 80.3856C70.3046 81.2158 68.9917 81.809 67.6017 82.1314C64.7955 82.7797 61.8469 82.2889 59.402 80.7666C56.9571 79.2444 55.2155 76.8149 54.559 74.0106C53.9209 71.2546 54.3814 68.3585 55.8427 65.9363C57.304 63.514 59.6513 61.7562 62.3868 61.0355L62.6797 60.9679C65.4357 60.3298 68.3319 60.7903 70.7541 62.2516C73.1763 63.713 74.9341 66.0603 75.6549 68.7958Z" fill="#F49B51"/>
<path d="M66.5766 79.765L66.0585 77.7827C64.9987 78.0605 63.8821 78.0332 62.8372 77.7038L62.9724 76.2734C63.9551 76.5996 65.0111 76.6348 66.0134 76.3748C66.3049 76.3416 66.5863 76.2482 66.8398 76.1005C67.0932 75.9528 67.3132 75.754 67.4859 75.5168C67.6585 75.2796 67.7799 75.0091 67.8425 74.7225C67.905 74.4359 67.9074 74.1394 67.8493 73.8518C67.5677 72.7255 66.6216 72.3088 65.0222 72.0948C62.7696 71.8357 61.3505 71.2613 60.9112 69.5493C60.714 68.7482 60.8229 67.9023 61.2167 67.1774C61.6104 66.4524 62.2606 65.9004 63.04 65.6297L62.5218 63.6474L63.7383 63.332L64.2338 65.2355C65.1277 65.0042 66.0657 65.0042 66.9595 65.2355L66.8018 66.6547C65.9395 66.4162 65.0286 66.4162 64.1663 66.6547C62.657 67.0489 62.3191 68.0964 62.5331 68.9073C62.7921 69.9323 63.6594 70.2476 65.5404 70.5067C67.793 70.7995 69.0545 71.5542 69.5163 73.2999C69.7187 74.1456 69.6004 75.0362 69.1844 75.7997C68.7683 76.5632 68.084 77.1453 67.2636 77.4335L67.793 79.4722L66.5766 79.765Z" fill="#FCC659"/>
<path d="M74.5284 66.2833L74.3932 66.0468C73.6109 64.7307 72.5557 63.5974 71.2987 62.7231C70.0417 61.8489 68.6121 61.254 67.106 60.9784L67.1623 60.6855C68.7064 60.9694 70.1723 61.5793 71.4619 62.4747C72.7516 63.3701 73.8354 64.5303 74.641 65.8779L74.7875 66.1369L74.5284 66.2833Z" fill="#2E4882"/>
<path d="M67.1059 60.9791C64.6597 60.5169 62.1289 60.9148 59.9426 62.1054L59.7961 61.8576C62.034 60.6041 64.6388 60.17 67.1623 60.6299L67.1059 60.9791Z" fill="#2E4882"/>
<path d="M75.7337 74.506L75.4521 74.4272C75.8351 73.0732 75.9461 71.6568 75.7788 70.2598H76.0716C76.2363 71.6837 76.1216 73.126 75.7337 74.506Z" fill="#2E4882"/>
<path d="M71.0932 59.6164C69.8609 58.9952 68.5379 58.5733 67.1736 58.3661V58.0508C68.5733 58.2639 69.9304 58.6973 71.1945 59.3348L71.0932 59.6164Z" fill="#2E4882"/>
<path d="M75.3845 80.587L75.148 80.373C77.4467 77.7639 78.6365 74.3607 78.464 70.8877C78.2915 67.4146 76.7704 64.146 74.2244 61.7775L74.4384 61.541C77.0428 63.9688 78.5984 67.316 78.775 70.8721C78.9517 74.4282 77.7354 77.9131 75.3845 80.587Z" fill="#2E4882"/>
<path d="M96.3905 126.947L159.633 126.947C160.94 126.947 161.999 125.888 161.999 124.582V83.8769C161.999 82.5706 160.94 81.5116 159.633 81.5116H96.3905C95.0842 81.5116 94.0252 82.5706 94.0252 83.8769V124.582C94.0252 125.888 95.0842 126.947 96.3905 126.947Z" fill="#61A9C5"/>
<path d="M111.134 109.275H99.7467C99.3922 109.275 99.1047 109.563 99.1047 109.917V112.102C99.1047 112.457 99.3922 112.744 99.7467 112.744H111.134C111.488 112.744 111.776 112.457 111.776 112.102V109.917C111.776 109.563 111.488 109.275 111.134 109.275Z" fill="white"/>
<path d="M126.181 109.275H114.794C114.44 109.275 114.152 109.563 114.152 109.917V112.102C114.152 112.457 114.44 112.744 114.794 112.744H126.181C126.536 112.744 126.823 112.457 126.823 112.102V109.917C126.823 109.563 126.536 109.275 126.181 109.275Z" fill="white"/>
<path d="M141.229 109.275H129.842C129.487 109.275 129.2 109.563 129.2 109.917V112.102C129.2 112.457 129.487 112.744 129.842 112.744H141.229C141.584 112.744 141.871 112.457 141.871 112.102V109.917C141.871 109.563 141.584 109.275 141.229 109.275Z" fill="white"/>
<path d="M156.288 109.275H144.901C144.546 109.275 144.259 109.563 144.259 109.917V112.102C144.259 112.457 144.546 112.744 144.901 112.744H156.288C156.643 112.744 156.93 112.457 156.93 112.102V109.917C156.93 109.563 156.643 109.275 156.288 109.275Z" fill="white"/>
<path d="M156.141 116.066H141.161C140.732 116.066 140.384 116.414 140.384 116.844V118.758C140.384 119.188 140.732 119.535 141.161 119.535H156.141C156.571 119.535 156.919 119.188 156.919 118.758V116.844C156.919 116.414 156.571 116.066 156.141 116.066Z" fill="white"/>
<path d="M102 94.9143V90.4091C102 89.9281 102.191 89.4669 102.531 89.1268C102.871 88.7868 103.332 88.5957 103.813 88.5957H112.666C113.145 88.5987 113.603 88.791 113.941 89.1308C114.278 89.4705 114.468 89.9301 114.468 90.4091V94.9143C114.468 95.3933 114.278 95.8529 113.941 96.1926C113.603 96.5324 113.145 96.7247 112.666 96.7277H103.813C103.332 96.7277 102.871 96.5367 102.531 96.1966C102.191 95.8565 102 95.3953 102 94.9143ZM103.813 89.035C103.46 89.035 103.122 89.175 102.873 89.4243C102.624 89.6735 102.484 90.0115 102.484 90.364V94.8693C102.484 95.2218 102.624 95.5598 102.873 95.8091C103.122 96.0583 103.46 96.1983 103.813 96.1983H112.666C113.016 96.2075 113.356 96.0776 113.612 95.8371C113.867 95.5966 114.017 95.2649 114.029 94.9143V90.4091C114.029 90.0585 113.89 89.7222 113.643 89.4733C113.396 89.2243 113.061 89.083 112.711 89.08L103.813 89.035Z" fill="white"/>
<path d="M154.824 92.0096C154.824 91.9502 154.849 91.8935 154.891 91.8519C155.366 91.3781 155.742 90.8154 155.999 90.196C156.255 89.5765 156.388 88.9126 156.388 88.2421C156.388 87.5716 156.255 86.9076 155.999 86.2882C155.742 85.6688 155.366 85.1061 154.891 84.6322C154.869 84.6122 154.852 84.5878 154.84 84.5607C154.828 84.5335 154.822 84.5042 154.822 84.4746C154.822 84.4449 154.828 84.4156 154.84 84.3884C154.852 84.3613 154.869 84.3369 154.891 84.3169C154.933 84.2789 154.987 84.2578 155.043 84.2578C155.1 84.2578 155.154 84.2789 155.195 84.3169C155.714 84.8338 156.126 85.4482 156.407 86.1247C156.688 86.8011 156.833 87.5265 156.833 88.259C156.833 88.9915 156.688 89.7168 156.407 90.3933C156.126 91.0698 155.714 91.6842 155.195 92.2011C155.154 92.2391 155.1 92.2602 155.043 92.2602C154.987 92.2602 154.933 92.2391 154.891 92.2011C154.866 92.1767 154.846 92.1467 154.835 92.1134C154.823 92.0801 154.819 92.0446 154.824 92.0096Z" fill="white"/>
<path d="M153.731 85.7348C153.733 85.6776 153.753 85.6224 153.788 85.5771C153.808 85.5553 153.832 85.5378 153.859 85.5259C153.886 85.514 153.916 85.5078 153.945 85.5078C153.975 85.5078 154.004 85.514 154.031 85.5259C154.059 85.5378 154.083 85.5553 154.103 85.5771C154.805 86.2858 155.199 87.2432 155.199 88.2409C155.199 89.2386 154.805 90.1959 154.103 90.9046C154.083 90.9265 154.059 90.9439 154.031 90.9559C154.004 90.9678 153.975 90.9739 153.945 90.9739C153.916 90.9739 153.886 90.9678 153.859 90.9559C153.832 90.9439 153.808 90.9265 153.788 90.9046C153.75 90.8631 153.729 90.8089 153.729 90.7526C153.729 90.6963 153.75 90.6421 153.788 90.6005C154.4 89.9699 154.743 89.1255 154.743 88.2465C154.743 87.3675 154.4 86.5231 153.788 85.8925C153.753 85.8472 153.733 85.792 153.731 85.7348Z" fill="white"/>
<path d="M152.672 89.5864C152.673 89.527 152.698 89.4703 152.74 89.4287C153.053 89.1124 153.228 88.6854 153.228 88.2404C153.228 87.7955 153.053 87.3685 152.74 87.0522C152.718 87.0321 152.701 87.0077 152.689 86.9806C152.677 86.9534 152.671 86.9241 152.671 86.8945C152.671 86.8648 152.677 86.8355 152.689 86.8083C152.701 86.7812 152.718 86.7568 152.74 86.7368C152.782 86.6988 152.836 86.6777 152.892 86.6777C152.948 86.6777 153.003 86.6988 153.044 86.7368C153.243 86.9336 153.4 87.1679 153.508 87.4259C153.615 87.684 153.671 87.9608 153.671 88.2404C153.671 88.52 153.615 88.7968 153.508 89.0549C153.4 89.313 153.243 89.5472 153.044 89.7441C153.003 89.782 152.948 89.8031 152.892 89.8031C152.836 89.8031 152.782 89.782 152.74 89.7441C152.698 89.7025 152.673 89.6458 152.672 89.5864Z" fill="white"/>
<path d="M162.246 92.6289H161.773V83.6183C161.767 83.0577 161.54 82.522 161.142 82.1276C160.743 81.7333 160.205 81.5121 159.644 81.5121H140.283V81.0391H159.644C160.334 81.0391 160.996 81.3132 161.484 81.8011C161.972 82.289 162.246 82.9508 162.246 83.6409V92.6289Z" fill="#2E4882"/>
<path d="M162.235 97.3594H161.762V102.563H162.235V97.3594Z" fill="#2E4882"/>
<path d="M118.342 81.0156H105.942V81.4887H118.342V81.0156Z" fill="#2E4882"/>
<path d="M163.508 34.2054C160.164 33.3008 156.627 33.4081 153.344 34.5137C150.061 35.6193 147.18 37.6736 145.064 40.4168C142.949 43.16 141.695 46.4688 141.46 49.9249C141.225 53.381 142.021 56.8291 143.745 59.8331C145.47 62.8372 148.047 65.2622 151.151 66.8016C154.254 68.3411 157.744 68.9257 161.179 68.4816C164.615 68.0375 167.841 66.5847 170.451 64.3068C173.061 62.0288 174.936 59.0282 175.841 55.6843C176.444 53.4641 176.604 51.1467 176.31 48.8648C176.017 46.5828 175.276 44.3812 174.13 42.386C172.985 40.3908 171.457 38.6412 169.634 37.2375C167.811 35.8337 165.729 34.8033 163.508 34.2054ZM172.518 54.7945C171.54 58.4021 169.169 61.4738 165.928 63.3345C162.686 65.1951 158.838 65.6925 155.229 64.7173C151.7 63.708 148.703 61.3621 146.876 58.1781C145.048 54.994 144.535 51.223 145.444 47.6663C146.354 44.1097 148.614 41.0478 151.745 39.1315C154.876 37.2152 158.631 36.5955 162.212 37.4041L162.595 37.5055C166.132 38.4701 169.155 40.772 171.026 43.9247C172.896 47.0774 173.468 50.8339 172.62 54.4003L172.518 54.7945Z" fill="url(#paint6_linear_954_6254)"/>
<path d="M172.597 54.4119L172.496 54.7836C171.517 58.3913 169.147 61.4629 165.905 63.3236C162.663 65.1842 158.815 65.6816 155.207 64.7065C151.677 63.6972 148.68 61.3512 146.853 58.1672C145.026 54.9832 144.512 51.2121 145.422 47.6554C146.331 44.0988 148.591 41.0369 151.723 39.1206C154.854 37.2043 158.609 36.5846 162.19 37.3933L162.573 37.4946C166.114 38.4591 169.141 40.7645 171.012 43.9223C172.884 47.0801 173.452 50.8423 172.597 54.4119Z" fill="#F49B51"/>
<path d="M155.533 61.3727L156.153 58.7935C154.773 58.4565 153.516 57.7384 152.526 56.7211L153.551 55.1667C154.466 56.1349 155.638 56.8225 156.93 57.1491C158.743 57.5883 160.219 56.8337 160.568 55.3807C160.917 53.9278 160.117 52.869 158.417 51.6414C156.063 49.9969 154.733 48.4314 155.274 46.2125C155.541 45.1752 156.186 44.2749 157.081 43.6875C157.977 43.1001 159.059 42.8679 160.117 43.0363L160.748 40.457L162.325 40.84L161.728 43.3179C162.891 43.6081 163.96 44.1895 164.837 45.0073L163.789 46.5391C162.957 45.7244 161.917 45.1553 160.782 44.8947C158.811 44.4217 157.786 45.4128 157.538 46.4378C157.223 47.7668 158 48.6904 160.005 50.1096C162.37 51.8216 163.384 53.4885 162.832 55.7412C162.552 56.8322 161.878 57.781 160.94 58.4048C160.002 59.0286 158.866 59.2834 157.752 59.1201L157.11 61.767L155.533 61.3727Z" fill="#FCC659"/>
<path d="M172.901 50.8418C172.901 50.7291 172.901 50.6052 172.901 50.4926C172.812 48.5097 172.301 46.5685 171.402 44.799C170.502 43.0295 169.236 41.4724 167.686 40.2318L167.923 39.9277C169.514 41.1986 170.815 42.7945 171.739 44.6087C172.664 46.4228 173.191 48.4135 173.284 50.4475C173.284 50.594 173.284 50.7179 173.284 50.8418H172.901Z" fill="#2E4882"/>
<path d="M167.675 40.2319C165.149 38.2045 161.993 37.1247 158.754 37.1795V36.7966C162.078 36.7457 165.315 37.8527 167.911 39.9278L167.675 40.2319Z" fill="#2E4882"/>
<path d="M169.274 61.0124L168.993 60.7533C170.265 59.4617 171.268 57.9303 171.944 56.248L172.304 56.3832C171.603 58.1077 170.574 59.6797 169.274 61.0124Z" fill="#2E4882"/>
<path d="M173.07 41.1107C172.036 39.647 170.782 38.3515 169.353 37.27L169.601 36.9434C171.066 38.049 172.35 39.375 173.408 40.8742L173.07 41.1107Z" fill="#2E4882"/>
<path d="M165.084 67.7256L164.949 67.3314C169.186 65.7571 172.64 62.5914 174.578 58.5082C176.515 54.425 176.783 49.7468 175.323 45.4696L175.706 45.3457C177.2 49.7199 176.926 54.505 174.942 58.6799C172.957 62.8548 169.42 66.0888 165.084 67.6918V67.7256Z" fill="#2E4882"/>
<path d="M118.984 87.6278L131.284 95.9513L141.128 85.409L136.51 85.8708C136.51 85.5554 136.386 85.24 136.318 84.9247L136.228 84.4516C136.228 84.3728 136.228 84.2939 136.228 84.2151L135.879 82.8523C134.806 79.0572 132.991 75.5124 130.54 72.4225C128.173 69.4158 125.233 66.9083 121.89 65.0452C118.647 63.2407 115.08 62.0925 111.393 61.6662C107.822 61.2537 104.204 61.5523 100.749 62.5447C97.4096 63.509 94.2938 65.1244 91.581 67.2978C88.9531 69.3971 86.7672 71.9964 85.1497 74.9455C83.5904 77.7883 82.6104 80.9122 82.2664 84.1363C83.1714 81.1441 84.6605 78.361 86.6478 75.9479C88.5602 73.6298 90.9149 71.7154 93.5746 70.3163C96.1295 68.9611 98.9281 68.1265 101.808 67.861C104.569 67.6076 107.354 67.9102 109.996 68.7507C112.532 69.5478 114.882 70.8419 116.912 72.5577C118.846 74.1979 120.439 76.2035 121.597 78.4596C122.64 80.6459 123.31 82.9908 123.58 85.3977C123.659 85.9046 123.749 87.2224 123.749 87.2224L118.984 87.6278Z" fill="#0075A2"/>
<path d="M148.336 40.3226C149.589 40.9363 150.598 41.9567 151.197 43.2173C151.77 41.9469 152.759 40.91 154.001 40.2776C152.764 39.6394 151.776 38.6042 151.197 37.3379C150.612 38.63 149.602 39.6832 148.336 40.3226Z" fill="#FFE6A6"/>
<path d="M160.883 64.4132C161.604 64.7807 162.177 65.3852 162.505 66.1252C162.841 65.3865 163.416 64.7831 164.138 64.4132C163.399 64.0515 162.807 63.4471 162.46 62.7012C162.143 63.4339 161.588 64.0375 160.883 64.4132Z" fill="#FFE6A6"/>
<path d="M109.411 30.4563C110.29 30.9124 110.992 31.6499 111.404 32.5512C111.816 31.6499 112.518 30.9124 113.398 30.4563C112.518 30.0002 111.816 29.2627 111.404 28.3613C110.992 29.2627 110.29 30.0002 109.411 30.4563Z" fill="#FFE6A6"/>
<path d="M54.1646 66.8692C54.8766 67.2345 55.4442 67.8299 55.7752 68.5586C56.1061 67.8299 56.6737 67.2345 57.3858 66.8692C56.6737 66.5038 56.1061 65.9084 55.7752 65.1797C55.4472 65.9104 54.8788 66.5067 54.1646 66.8692Z" fill="#FFE6A6"/>
<path d="M106.144 33.9352C106.641 34.2089 107.036 34.6355 107.271 35.1516C107.499 34.6313 107.896 34.2029 108.397 33.9352C107.894 33.6703 107.496 33.241 107.271 32.7188C107.039 33.2367 106.643 33.664 106.144 33.9352Z" fill="#FFE6A6"/>
<path d="M7.9518 87.278L7.60265 87.4132C5.00085 80.5314 5.40633 73.0977 8.90918 64.0195L9.25834 64.1547C5.80054 73.1427 5.3838 80.4976 7.9518 87.278Z" fill="#2E4882"/>
<path d="M6.8818 92.6067L6.56643 92.7982C-0.946108 80.6565 3.43527 68.1544 8.7177 57.5332L9.05559 57.6909C3.81821 68.2332 -0.529372 80.6115 6.8818 92.6067Z" fill="#2E4882"/>
<path d="M166.278 16.7711C160.252 9.24728 154.114 5.19252 146.962 3.99862L147.018 3.62695C154.272 4.83211 160.534 8.9319 166.571 16.5345L166.278 16.7711Z" fill="#2E4882"/>
<path d="M171.966 19.8464C165.501 10.0249 156.986 0.0231811 142.896 0.383603V0.0119158C157.166 -0.359769 165.749 9.73205 172.27 19.6436L171.966 19.8464Z" fill="#2E4882"/>
<path d="M121.304 78.5601C120.161 76.3321 118.593 74.3499 116.687 72.7258C114.679 71.04 112.36 69.7655 109.861 68.9751C107.251 68.1474 104.501 67.8487 101.774 68.0966C100.409 68.2242 99.0588 68.4807 97.7419 68.8625L97.5955 68.3557C98.9452 67.9646 100.329 67.7044 101.729 67.5785C104.525 67.3213 107.344 67.6277 110.019 68.4795C112.586 69.288 114.967 70.5973 117.024 72.3316C118.987 73.9974 120.602 76.0335 121.778 78.3236L121.304 78.5601Z" fill="#2E4882"/>
<path d="M86.7942 76.1162L86.3887 75.7783C88.3257 73.4298 90.7062 71.4856 93.3944 70.0566L93.6422 70.5184C91.0138 71.9162 88.6868 73.8184 86.7942 76.1162Z" fill="#2E4882"/>
<path d="M135.564 82.9191C134.5 79.1588 132.705 75.6452 130.281 72.5795C127.927 69.6083 125.015 67.1253 121.71 65.2697C118.499 63.4732 114.967 62.3251 111.314 61.8907L111.37 61.3613C115.087 61.7807 118.685 62.9289 121.958 64.7403C125.326 66.627 128.295 69.1519 130.698 72.174C133.158 75.3005 134.983 78.878 136.07 82.705L135.564 82.9191Z" fill="#2E4882"/>
<path d="M131.317 96.3007L121.958 89.9595L122.251 89.5203L131.239 95.6136L138.582 87.752L138.965 88.1124L131.317 96.3007Z" fill="#2E4882"/>
</g>
<defs>
<linearGradient id="paint0_linear_954_6254" x1="140.424" y1="157.662" x2="140.424" y2="161.154" gradientUnits="userSpaceOnUse">
<stop stop-color="#FFD400"/>
<stop offset="1" stop-color="#FFEA61"/>
</linearGradient>
<linearGradient id="paint1_linear_954_6254" x1="144.163" y1="151.951" x2="144.163" y2="155.454" gradientUnits="userSpaceOnUse">
<stop stop-color="#FFD400"/>
<stop offset="1" stop-color="#FFEA61"/>
</linearGradient>
<linearGradient id="paint2_linear_954_6254" x1="140.396" y1="146.24" x2="140.396" y2="149.732" gradientUnits="userSpaceOnUse">
<stop stop-color="#FFD400"/>
<stop offset="1" stop-color="#FFEA61"/>
</linearGradient>
<linearGradient id="paint3_linear_954_6254" x1="146.005" y1="140.576" x2="146.005" y2="144.079" gradientUnits="userSpaceOnUse">
<stop stop-color="#FFD400"/>
<stop offset="1" stop-color="#FFEA61"/>
</linearGradient>
<linearGradient id="paint4_linear_954_6254" x1="104.337" y1="4.91602" x2="104.337" y2="36.9035" gradientUnits="userSpaceOnUse">
<stop stop-color="#FFD400"/>
<stop offset="1" stop-color="#FFEA61"/>
</linearGradient>
<linearGradient id="paint5_linear_954_6254" x1="65.1193" y1="58.0547" x2="65.1193" y2="85.0863" gradientUnits="userSpaceOnUse">
<stop stop-color="#FFD400"/>
<stop offset="1" stop-color="#FFEA61"/>
</linearGradient>
<linearGradient id="paint6_linear_954_6254" x1="158.936" y1="33.5977" x2="158.936" y2="68.6262" gradientUnits="userSpaceOnUse">
<stop stop-color="#FFD400"/>
<stop offset="1" stop-color="#FFEA61"/>
</linearGradient>
<clipPath id="clip0_954_6254">
<rect width="211.996" height="172" fill="white"/>
</clipPath>
</defs>
</svg>
