<svg width="210" height="173" viewBox="0 0 210 173" fill="none" xmlns="http://www.w3.org/2000/svg">
<path fill-rule="evenodd" clip-rule="evenodd" d="M5.38839 170.487H12.0971C18.7345 170.487 24.1943 165.011 24.1943 158.353C24.1943 151.48 18.9129 146.218 12.0971 146.218H5.38839V170.487ZM15.8083 144.607C23.5876 144.607 29.547 150.585 29.547 158.353C29.547 166.156 23.5876 172.134 15.8083 172.134H0V144.607H15.8083ZM53.7089 164.074C53.5827 169.769 48.9397 172.654 43.0349 172.654C37.1805 172.654 32.4365 169.769 32.4365 164.048C32.4365 158.328 37.2562 155.417 43.0349 155.417C48.9397 155.417 53.5827 158.404 53.7089 164.048V164.074ZM35.9188 164.048C35.9188 168.073 39.0479 171.591 43.0601 171.591C47.0976 171.591 50.1509 168.048 50.1509 164.048C50.1509 160.074 47.0471 156.48 43.0601 156.48C39.0226 156.48 35.9188 160.074 35.9188 164.048ZM116.245 172.654C122.15 172.654 126.793 169.769 126.919 164.074V164.048C126.793 158.404 122.15 155.417 116.245 155.417C110.467 155.417 105.647 158.328 105.647 164.048C105.647 169.769 110.391 172.654 116.245 172.654ZM116.271 171.591C112.258 171.591 109.129 168.073 109.129 164.048C109.129 160.074 112.233 156.48 116.271 156.48C120.258 156.48 123.361 160.074 123.361 164.048C123.361 168.048 120.308 171.591 116.271 171.591ZM77.3798 164.074C77.2536 169.769 72.6106 172.654 66.7058 172.654C60.8514 172.654 56.1074 169.769 56.1074 164.048C56.1074 158.328 60.9271 155.417 66.7058 155.417C72.6106 155.417 77.2536 158.404 77.3798 164.048V164.074ZM59.5897 164.048C59.5897 168.073 62.7188 171.591 66.731 171.591C70.7685 171.591 73.8218 168.048 73.8218 164.048C73.8218 160.074 70.718 156.48 66.731 156.48C62.6935 156.48 59.5897 160.074 59.5897 164.048ZM139.916 172.654C145.821 172.654 150.464 169.769 150.591 164.074V164.048C150.464 158.404 145.821 155.417 139.916 155.417C134.138 155.417 129.318 158.328 129.318 164.048C129.318 169.769 134.062 172.654 139.916 172.654ZM139.942 171.591C135.929 171.591 132.8 168.073 132.8 164.048C132.8 160.074 135.904 156.48 139.942 156.48C143.929 156.48 147.032 160.074 147.032 164.048C147.032 168.048 143.979 171.591 139.942 171.591ZM81.2533 144.607H92.8866C98.3463 144.607 102.878 149.189 102.878 154.666C102.878 159.892 98.8459 164.223 93.7787 164.689V164.724C96.2052 164.724 97.3169 166.328 98.6258 168.216L98.6259 168.216L98.6259 168.216C98.8569 168.549 99.094 168.891 99.3455 169.234C100.131 170.416 101.701 171.418 102.878 172.134H99.1671C96.3123 172.134 95.2418 171.239 93.7787 169.234C91.6376 166.228 89.8177 164.724 88.4974 164.724H86.6417V172.134H81.2533V144.607ZM86.6417 163.078H90.6028C95.2061 163.078 98.9887 159.283 98.9887 154.666C98.9887 150.084 95.1704 146.218 90.6028 146.218H86.6417V163.078ZM192.633 144.607H190.955L180.143 166.621C177.895 164.76 176.075 161.395 174.612 156.456C173.292 152.089 171.436 146.648 169.081 144.607H162.943C165.334 146.898 167.368 150.514 169.045 155.453L163.55 166.621C161.266 164.76 159.446 161.395 158.018 156.456C157.931 156.161 157.844 155.867 157.757 155.575C156.436 151.104 155.2 146.926 152.487 144.607H146.35C149.882 148.044 151.595 152.518 153.344 158.353C154.807 163.328 156.769 168.125 160.267 170.559L162.515 172.134C164.903 167.235 167.292 162.371 169.68 157.508L169.687 157.494L169.709 157.558C171.45 162.762 173.164 167.885 176.896 170.559L179.108 172.134C182.517 165.242 185.905 158.33 189.288 151.427L189.307 151.391C190.416 149.128 191.524 146.867 192.633 144.607ZM192.21 164.394C192.21 168.394 195.263 171.937 199.301 171.937C203.313 171.937 206.442 168.419 206.442 164.394C206.442 160.522 203.338 157.029 199.326 157.029C195.314 157.029 192.21 160.522 192.21 164.394ZM210 172.773H206.442V168.849C205.029 171.608 202.177 173.001 198.594 173.001C193.421 173.001 188.778 170.115 188.652 164.42V164.394C188.778 158.876 193.421 155.965 198.619 155.965C202.177 155.965 205.029 157.358 206.442 160.066V156.219H210V172.773Z" fill="#0075A2"/>
<path d="M15 122H195" stroke="#0075A2" stroke-width="5.40202" stroke-miterlimit="10" stroke-linecap="round"/>
<path d="M184 88.7371V81.2628C184 80.6627 183.684 80.0871 183.121 79.6627C182.559 79.2384 181.796 79 181 79C180.204 79 179.441 79.2384 178.879 79.6627C178.316 80.0871 178 80.6627 178 81.2628V88.7371C178 89.3373 178.316 89.9129 178.879 90.3372C179.441 90.7616 180.204 91 181 91C181.796 91 182.559 90.7616 183.121 90.3372C183.684 89.9129 184 89.3373 184 88.7371V88.7371Z" stroke="#0075A2" stroke-width="1.81643"/>
<path d="M179 41L130 45.1895V124.563L179 129V41Z" fill="#0075A2"/>
<path d="M139 117.988L170 121V49L139.043 51.4923L139 117.988Z" fill="#FFE56A" stroke="white" stroke-width="3.00001"/>
<path d="M31.4545 90.6763C31.9085 90.8823 32.4266 90.9939 32.9563 90.9998C33.4859 91.0056 34.0081 90.9055 34.4698 90.7095C34.9316 90.5136 35.3164 90.2288 35.5852 89.8842C35.8539 89.5395 35.997 89.1473 36 88.7474V81.2652C36 80.6645 35.6839 80.0883 35.1213 79.6634C34.5587 79.2386 33.7956 79 33 79C32.2043 79 31.4413 79.2386 30.8787 79.6634C30.3161 80.0883 30 80.6645 30 81.2652V88.7474C30.0011 89.1364 30.1357 89.5186 30.3906 89.8566C30.6455 90.1946 31.0121 90.477 31.4545 90.6763V90.6763Z" stroke="#0075A2" stroke-width="1.81643"/>
<path d="M36 129L81 124.563V45.1895L36 41V129Z" fill="#0075A2"/>
<path d="M72 51.4923L44 49V121L72 117.988V51.4923Z" fill="#FFE56A" stroke="white" stroke-width="3.00001"/>
<path d="M149 33.9199H61V42.7378H149V33.9199Z" fill="#0075A2" stroke="#0075A2" stroke-width="4.72677" stroke-miterlimit="10"/>
<path d="M179.659 23.1426C179.435 23.1426 179.213 23.1871 179.006 23.2734C178.798 23.3597 178.61 23.4863 178.452 23.6457C178.294 23.8052 178.168 23.9945 178.083 24.2026C177.998 24.4108 177.954 24.6338 177.955 24.8589C177.955 25.4535 177.167 26.413 175.018 27.5617C156.683 27.4603 141.816 16.4059 141.816 2.82444C141.816 2.36926 141.636 1.93274 141.315 1.61088C140.994 1.28902 140.559 1.10819 140.105 1.10819C139.651 1.10819 139.216 1.28902 138.895 1.61088C138.574 1.93274 138.394 2.36926 138.394 2.82444C138.396 4.30926 138.55 5.79 138.852 7.24352C136.508 8.59491 124.215 10.4193 105.428 10.4193H104.943C86.1557 10.4193 73.8624 8.62869 71.5182 7.24352C71.8239 5.79052 71.9774 4.30944 71.9762 2.82444C71.9909 2.59045 71.9576 2.35597 71.8784 2.13538C71.7992 1.9148 71.6758 1.71282 71.5158 1.54192C71.3558 1.37102 71.1626 1.23482 70.9481 1.14172C70.7336 1.04861 70.5024 1.00055 70.2686 1.00055C70.0349 1.00055 69.8037 1.04861 69.5892 1.14172C69.3747 1.23482 69.1815 1.37102 69.0215 1.54192C68.8615 1.71282 68.738 1.9148 68.6589 2.13538C68.5797 2.35597 68.5464 2.59045 68.561 2.82444C68.561 16.4059 53.6878 27.4603 35.3589 27.5617C33.2033 26.4265 32.4219 25.467 32.4219 24.8589C32.4219 24.6335 32.3777 24.4103 32.2917 24.2021C32.2057 23.9939 32.0797 23.8047 31.9208 23.6453C31.7619 23.4859 31.5733 23.3595 31.3657 23.2733C31.1581 23.187 30.9357 23.1426 30.711 23.1426C30.4863 23.1426 30.2638 23.187 30.0562 23.2733C29.8486 23.3595 29.66 23.4859 29.5011 23.6453C29.3423 23.8047 29.2162 23.9939 29.1302 24.2021C29.0443 24.4103 29 24.6335 29 24.8589C29 29.5145 36.6185 33.1226 52.2867 35.8998C66.3651 38.3931 85.0375 39.7715 104.922 39.7918H105.455C125.333 39.7918 144.005 38.3931 158.084 35.8998C173.752 33.1226 181.37 29.5145 181.37 24.8589C181.37 24.4037 181.19 23.9672 180.869 23.6453C180.548 23.3234 180.113 23.1426 179.659 23.1426Z" fill="#FFE56A"/>
<path d="M70.9961 12.7188C68.5043 19.7411 57.255 29.0624 49.4031 30.2436" stroke="white" stroke-width="3.00001"/>
<path d="M138.002 12.2884C140.374 19.3526 151.621 28.7373 159.451 30.0537" stroke="white" stroke-width="3.00001"/>
<path d="M163.193 29.3417C129.792 36.6511 70.7036 35.2374 47.0594 30.1691" stroke="white" stroke-width="3.00001"/>
<path d="M140.711 12.2341C118.537 18.5239 77.2474 15.087 70.0799 12.4721" stroke="white" stroke-width="3.00001"/>
<path d="M92.5519 11.0924C91.9378 16.963 88.5247 31.895 84.3538 35.923M80.427 11.0926C79.1102 17.683 74.2305 30.9299 69 35.1943M116.802 11.0924C117.416 16.963 120.829 31.895 125 35.923M104.677 11.0924V35.923M128.253 11.0924C129.551 17.5861 134.307 30.5426 139.45 35.0008" stroke="white" stroke-width="8.00002"/>
<path d="M92.5519 11.0924C91.945 16.8942 88.6042 31.5465 84.5 35.7771C84.0488 36.2421 83.5884 36.5813 83.1214 36.7688M80.427 11.0924C78.9956 18.2564 73.3541 33.286 67.6284 36.0931M116.802 11.0924C117.475 17.532 121.517 34.8748 126.232 36.7688M104.677 11.0924V38.1202M128.253 11.0924C129.446 17.0626 133.563 28.4957 138.216 33.7648C138.804 34.4305 139.4 34.9978 140 35.4433" stroke="#0075A2" stroke-width="4.00001"/>
<path d="M69.5886 2.8111C69.5886 17.4332 53.8599 29.2646 34.4263 29.2646" stroke="#0075A2" stroke-width="5.40202" stroke-miterlimit="10" stroke-linecap="round"/>
<path d="M139.422 2.8111C139.422 17.4332 155.15 29.2646 174.584 29.2646" stroke="#0075A2" stroke-width="5.40202" stroke-miterlimit="10" stroke-linecap="round"/>
<path d="M30.0276 24.8591C30.0276 32.1633 63.479 38.0622 104.744 38.0622" stroke="#0075A2" stroke-width="5.40202" stroke-miterlimit="10" stroke-linecap="round"/>
<path d="M178.976 24.8591C178.976 32.1633 145.558 38.0824 104.259 38.0824" stroke="#0075A2" stroke-width="5.40202" stroke-miterlimit="10" stroke-linecap="round"/>
<path d="M68.9758 7.70959C68.9758 10.1489 84.7046 12.1219 104.138 12.1219H104.623C124.064 12.1219 139.786 10.1489 139.786 7.70959" stroke="#0075A2" stroke-width="5.40202" stroke-miterlimit="10" stroke-linecap="round"/>
</svg>
