<svg width="250" height="181" viewBox="0 0 250 181" fill="none" xmlns="http://www.w3.org/2000/svg">
<path opacity="0.2" d="M193.239 140.928C191.298 132.579 177.748 136.032 177.748 136.032C177.748 136.032 168.205 151.411 165.532 151.927C162.86 152.442 171.4 137.292 171.4 137.292C166.251 137.07 152.93 144.566 152.93 144.566C152.93 144.566 153.309 161.826 150.655 161.632C148.001 161.438 151.058 146.265 151.058 146.265C146.024 148.153 141.202 154.613 141.202 154.613C135.113 165.027 147.4 171.702 147.4 171.702C147.4 171.702 147.4 175.356 145.653 180.336H147.077C147.979 178.712 148.893 177.326 149.588 176.862C150.273 178.476 151.881 179.604 153.968 180.336H170.198C176.385 178.565 173.637 176.794 170.271 173.891C166.859 170.946 159.514 172.218 157.383 171.106C155.252 169.995 158.447 168.574 162.764 168.67C167.081 168.765 169.125 173.228 176.095 173.518C183.065 173.808 188.759 159.536 188.759 159.536C183.886 161.413 178.61 159.417 178.324 157.666C178.037 155.916 187.548 155.019 189.558 154.37C191.569 153.72 195.18 149.277 193.239 140.928ZM149.317 176.216C149.409 176.421 149.495 176.636 149.593 176.859C149.473 176.66 149.38 176.443 149.317 176.216Z" fill="#0075A2"/>
<path opacity="0.2" d="M187.554 119.191C187.554 119.191 185.957 100.718 198.884 93.4327C198.884 93.4327 201.412 92.0553 203.246 94.5798C205.08 97.1043 199.844 99.2255 196.994 101.68C194.144 104.135 188.223 112.066 187.554 119.191Z" fill="#0075A2"/>
<path opacity="0.2" d="M187.071 117.371C187.071 117.371 194.659 104.146 202.201 103.765C209.742 103.383 208.177 107.414 205.922 107.621C203.668 107.829 199.134 107.386 195.471 110.211C191.808 113.035 187.071 117.371 187.071 117.371Z" fill="#0075A2"/>
<path opacity="0.2" d="M87.2357 98.3422C87.2357 98.3422 90.3947 80.1012 78.1394 71.5891C78.1394 71.5891 75.7389 69.9717 73.6978 72.3064C71.6568 74.641 76.6877 77.2629 79.3189 79.9861C81.9502 82.7093 87.175 91.182 87.2357 98.3422Z" fill="#0075A2"/>
<path opacity="0.2" d="M87.8693 96.578C87.8693 96.578 81.4337 82.6707 73.9582 81.557C66.4827 80.4433 67.6972 84.6069 69.9239 85.0358C72.1507 85.4648 76.7044 85.4618 80.1125 88.6307C83.5207 91.7996 87.8693 96.578 87.8693 96.578Z" fill="#0075A2"/>
<path opacity="0.2" d="M43.0036 129.885C43.1572 120.5 58.8096 118.89 58.8096 118.89C58.8096 118.89 72.8908 131.162 75.9377 130.67C78.9845 130.177 66.0543 117.765 66.0543 117.765C71.6359 115.566 87.9954 118.227 87.9954 118.227C87.9954 118.227 91.6573 136.238 94.5165 135.022C97.3758 133.806 90.4437 119.271 90.4437 119.271C96.4022 119.299 103.207 124.141 103.207 124.141C112.334 132.593 100.457 144.202 100.457 144.202C100.457 144.202 101.862 150.412 107.563 156.351C107.563 156.351 108.774 157.402 110.236 159.361L108.726 159.798C108.502 159.436 108.266 159.092 108.02 158.767C108.02 158.765 108.019 158.764 108.019 158.763C108.018 158.762 108.017 158.761 108.016 158.761L108.005 158.747C107.842 158.55 107.609 158.265 107.322 157.921C106.632 157.17 106.151 156.605 105.832 156.19C103.731 153.81 100.805 150.763 99.2808 150.385C99.3632 150.136 99.413 149.877 99.4288 149.613C99.3819 149.859 99.3322 150.116 99.2808 150.385C98.1003 156.565 85.4137 161.207 77.8417 161.843C70.2697 162.479 72.8918 159.58 75.9331 155.224C78.9744 150.867 87.315 149.372 89.3873 147.41C91.4596 145.449 87.6248 145.196 82.9195 146.946C78.2141 148.696 77.0354 154.098 69.4662 157.066C61.8969 160.033 52.2986 147.438 52.2986 147.438C58.0723 147.519 66.9222 141.845 66.8248 139.927C66.7273 138.01 52.5606 142.303 50.2051 142.401C47.8497 142.498 42.8464 139.27 43.0036 129.885Z" fill="#0075A2"/>
<path d="M101.963 143.784L102.147 143.305C97.1503 141.413 93.208 138.942 90.4287 135.961C88.2139 133.585 86.7282 130.88 86.0157 127.921C84.7975 122.882 86.252 118.809 86.2667 118.771L86.2106 118.245C86.1472 118.416 83.8257 122.776 85.0788 127.963C85.8143 131.008 87.3846 133.972 89.6601 136.413C92.4964 139.451 96.8901 141.868 101.963 143.784Z" fill="#1F2251"/>
<path d="M173.881 77.4572C173.881 77.4572 172.1 74.309 171.824 73.4963C171.549 72.6837 172.295 67.1487 170.432 65.364C168.57 63.5794 163.329 60.3288 162.823 61.9689C162.316 63.6089 164.516 67.4193 165.235 68.2771C165.954 69.135 164.132 71.7904 164.977 73.5111C165.822 75.2318 168.608 77.772 169.516 81.7752C170.423 85.7784 174.885 82.6311 175.133 81.8992C175.382 81.1672 173.881 77.4572 173.881 77.4572Z" fill="#DE9C85"/>
<path d="M153.401 52.5914C144.972 50.9582 142.291 51.5416 137.996 48.8469C129.759 43.6809 121.723 51.2081 118.901 59.4663C114.629 71.9678 109.492 63.1803 97.0733 70.3061C84.6543 77.4319 92.2401 88.0917 94.0624 91.1189C102.061 104.401 87.0061 112.205 85.4386 120.614C83.871 129.023 95.5821 142.08 108.188 140.589C120.793 139.099 178.232 124.267 169.999 105.762C161.766 87.2574 170.632 75.424 170.794 70.31C170.999 63.7952 165.336 54.9053 153.401 52.5914Z" fill="#1F2251"/>
<path d="M169.959 133.407C168.966 133.757 167.823 133.989 166.64 134.201C165.151 134.468 163.593 134.703 162.176 135.102C158.975 136.006 156.5 137.753 157.184 142.619C157.337 143.772 157.399 144.936 157.368 146.1C157.328 147.724 157.19 149.344 156.955 150.949C156.889 151.416 156.817 151.886 156.738 152.358C156.632 153.005 156.514 153.654 156.385 154.303C156.253 154.987 156.112 155.67 155.96 156.352C154.738 161.915 153.048 167.272 152.291 170.539C151.556 173.723 152.17 177.003 153.15 180.331H98.272C98.3639 170.232 98.8282 157.572 99.7531 144.815C99.7972 144.193 99.845 143.569 99.8919 142.945C99.9057 142.759 99.9204 142.572 99.9351 142.386C100.004 141.484 100.076 140.58 100.15 139.68C100.15 139.673 100.15 139.668 100.15 139.661C100.283 138.05 100.424 136.443 100.573 134.841C101.665 123.071 103.175 111.777 105.17 102.951C105.35 102.153 105.534 101.376 105.722 100.619H105.729C105.732 100.62 105.735 100.62 105.738 100.619C106.021 100.718 110.169 102.249 117.933 104.375H117.949C121.277 105.286 125.268 106.306 129.901 107.371C130.933 107.609 131.998 107.849 133.095 108.089C137.73 109.109 139.807 107.485 145.691 109.397C146.879 109.783 148.166 110.115 149.503 110.4C154.69 111.509 160.614 111.9 164.305 111.876H164.329C166.374 111.876 167.922 113.016 169.057 114.772C172.744 120.494 172.077 132.661 169.959 133.407Z" fill="white"/>
<path d="M168.95 76.527C170.33 75.0139 173.192 71.543 172.806 67.5152C172.474 64.0393 170.238 60.7268 166.16 57.6661C159.674 52.8002 153.593 51.0883 149.632 50.5088C145.329 49.8792 141.56 50.6859 141.45 50.7056L142.592 50.926C142.7 50.9043 153.624 48.9081 165.844 58.0754C169.797 61.0436 171.558 63.7039 171.876 67.0282C172.244 70.8592 170.129 73.2007 168.806 74.6499C168.74 74.7227 166.875 75.4438 166.875 75.4438C166.875 75.4438 168.913 76.5683 168.95 76.527Z" fill="#1F2251"/>
<path d="M140.259 116.629C147.858 117.528 148.546 114.94 149.177 112.156C149.44 111.003 149.746 108.995 150.097 106.588C150.243 105.58 150.4 104.502 150.566 103.385C150.884 101.235 151.29 99.0305 151.626 97.3157C151.994 95.4415 152.28 94.1507 152.28 94.1507L137.271 88.967L136.378 88.661C134.703 100.467 130.52 105.386 129.912 107.354C128.641 111.498 135.272 116.038 140.259 116.629Z" fill="#DE9C85"/>
<path d="M136.719 94.3493C137.959 98.8896 141.585 105.095 150.103 106.59C150.249 105.582 150.406 104.503 150.573 103.387C150.891 101.237 151.296 99.0323 151.633 97.3175L136.719 94.3493Z" fill="#D6826F"/>
<path d="M153.519 103.521C153.519 103.521 133.074 100.588 135.131 88.0945C137.189 75.601 135.924 66.8026 149.063 68.1514C162.203 69.5003 163.951 74.6643 164.297 78.9991C164.642 83.3338 158.89 103.962 153.519 103.521Z" fill="#DE9C85"/>
<path d="M151.252 71.3471C157.144 73.6267 158.823 78.6392 164.9 78.5113C169.886 78.4051 170.513 64.6778 159.54 60.8478C146.23 56.2002 147.234 51.4769 141.796 51.7051C132.822 52.0839 130.37 81.9242 130.936 82.4378C131.501 82.9513 134.217 87.0263 134.217 87.0263C134.217 87.0263 137.251 84.5864 136.802 83.3803C135.362 79.4843 138.046 75.5333 141.064 78.2191C143.617 80.4869 147.04 69.716 151.252 71.3471Z" fill="#1F2251"/>
<path d="M79.0864 96.637C80.0977 106.321 94.2699 121.084 98.7804 133.003C99.6759 135.364 100.191 137.614 100.148 139.693V139.707C100.062 143.779 101.658 143.655 104.08 141.22C111.095 134.164 125.042 107.688 125.042 107.688C125.042 107.688 120.839 107.226 112.303 103.638C110.345 102.813 108.158 101.827 105.742 100.642C105.739 100.643 105.736 100.643 105.733 100.642C105.73 100.641 105.728 100.641 105.725 100.642C104.53 100.052 103.278 99.4159 101.97 98.7345C99.162 97.2587 96.0949 95.5488 92.7649 93.5576C88.499 90.9967 78.6147 92.1173 79.0864 96.637Z" fill="white"/>
<path d="M168.626 88.4465C168.626 88.4465 171.06 93.5978 175.16 100.71C176.53 103.085 178.086 105.678 179.799 108.372C180.45 109.395 181.079 110.349 181.687 111.235L181.74 111.312C187.504 119.699 191.485 122.189 195.736 122.323C197.518 122.381 199.256 122.295 200.63 121.686C202.888 120.687 204.167 118.275 203.067 112.754C201.296 103.868 173.031 75.9185 173.031 75.9185C171.09 76.741 169.997 78.93 169.384 81.2518C168.476 84.7011 168.626 88.4465 168.626 88.4465Z" fill="white"/>
<path d="M153.307 112.273C153.307 112.273 189.244 111.081 193.962 110.873C198.681 110.664 201.289 121.336 201.289 121.336C201.289 121.336 180.098 133.018 157.017 135.896C133.936 138.775 153.307 112.273 153.307 112.273Z" fill="white"/>
<path d="M127.003 63.5068C127.003 63.5068 129.704 61.0738 130.227 60.389C130.75 59.7043 131.819 54.2195 134.159 53.1087C136.499 51.998 142.516 50.538 142.47 52.2518C142.424 53.9657 139.113 56.8965 138.155 57.4877C137.197 58.079 138.071 61.1633 136.719 62.5338C135.366 63.9042 131.905 65.4469 129.759 68.9601C127.613 72.4733 124.39 68.1032 124.39 67.3319C124.39 66.5606 127.003 63.5068 127.003 63.5068Z" fill="#DE9C85"/>
<path d="M79.8423 99.928C80.8675 102.925 87.6277 103.611 92.1547 104.386C93.4483 104.606 97.2288 102.231 101.971 98.7248C106.235 95.5765 111.275 91.5045 115.985 87.5869C124.374 80.6018 131.706 74.1085 131.706 74.1085C134.847 66.3432 126.65 61.9996 126.65 61.9996C126.65 61.9996 93.337 79.4773 87.3757 83.2994C77.999 89.3066 78.216 95.1761 79.8423 99.928Z" fill="white"/>
<path d="M129.747 61.3346C129.747 61.3346 129.82 56.8621 129.747 55.3854C129.673 53.9087 130.038 53.6913 130.607 53.9953C131.175 54.2993 131.086 57.7732 132.985 58.2513C134.884 58.7294 130.35 62.3755 129.747 61.3346Z" fill="#DE9C85"/>
<path d="M151.013 57.9805C137.83 57.3272 125.461 56.0128 116.185 54.2774C109.544 53.0358 101.646 51.0376 101.738 48.5663C101.752 48.215 101.922 47.8776 102.239 47.5657C104.399 45.4456 113.5 44.505 118.732 44.1322C127.804 43.4868 139.452 43.4612 151.534 44.0604C164.716 44.7136 177.084 46.028 186.361 47.7625C193.003 49.005 200.899 51.0032 200.807 53.4746C200.794 53.8248 200.623 54.1632 200.307 54.4751C198.147 56.5952 189.046 57.5358 183.814 57.9086C179.1 58.2441 173.691 58.4114 167.886 58.4114C162.523 58.4114 156.816 58.2677 151.013 57.9805ZM118.761 44.5936C106.702 45.4534 103.416 47.0374 102.531 47.9061C102.3 48.1334 102.179 48.3616 102.17 48.585C102.11 50.2033 107.377 52.1612 116.26 53.8218C125.518 55.5534 137.865 56.8658 151.033 57.5191C163.098 58.1172 174.73 58.0916 183.786 57.4472C195.844 56.5893 199.13 55.0034 200.015 54.1337C200.246 53.9074 200.368 53.6792 200.376 53.4559C200.436 51.8365 195.17 49.8787 186.286 48.218C177.027 46.4874 164.681 45.175 151.514 44.5218C145.716 44.2345 140.021 44.0909 134.66 44.0909C128.866 44.0909 123.465 44.2591 118.761 44.5936Z" fill="#1B1B1B"/>
<path d="M177.551 72.6162C168.791 70.1517 158.024 65.9852 147.232 60.8841C134.924 55.0667 123.696 48.5961 115.605 42.6646C111.663 39.7732 108.679 37.1631 106.738 34.9082C104.669 32.5047 103.864 30.5793 104.348 29.1685C104.582 28.4858 105.11 27.9525 105.919 27.5836C109.65 25.8855 118.655 28.0086 123.691 29.4253C132.45 31.8898 143.218 36.0563 154.01 41.1574C166.318 46.9748 177.546 53.4454 185.637 59.3768C189.579 62.2683 192.562 64.8784 194.503 67.1323C196.573 69.5358 197.378 71.4671 196.894 72.8729C196.66 73.5557 196.132 74.0889 195.323 74.4579C194.34 74.9045 192.992 75.0875 191.447 75.0875C187.125 75.0875 181.261 73.66 177.551 72.6162ZM106.125 28.1119C105.459 28.4159 105.028 28.838 104.848 29.3663C104.031 31.7599 108.066 36.4351 115.909 42.1904C123.97 48.1032 135.17 54.5551 147.444 60.3587C158.211 65.448 168.95 69.6066 177.683 72.0603C186.263 74.4746 192.451 75.1387 195.108 73.9296C195.775 73.6265 196.205 73.2045 196.385 72.6762C197.203 70.2825 193.168 65.6074 185.324 59.852C177.264 53.9393 166.063 47.4873 153.79 41.6838C143.023 36.5944 132.283 32.4358 123.551 29.9812C117.77 28.3549 113.076 27.5216 109.815 27.5216C108.235 27.5226 106.992 27.7174 106.125 28.1119Z" fill="#1B1B1B"/>
<path d="M123.032 28.4L121.237 28.4492L122.369 29.8206L121.863 31.5148L123.539 30.8792L125.021 31.8758L124.924 30.1128L126.345 29.0345L124.611 28.58L124.007 26.9174L123.032 28.4Z" fill="#0075A2"/>
<path d="M192.312 56.0407L190.833 57.0413L192.54 57.5873L193.051 59.2804L194.106 57.8519L195.901 57.8982L194.847 56.4687L195.445 54.804L193.738 55.3491L192.313 54.2747L192.312 56.0407Z" fill="#0075A2"/>
<path d="M184.14 34.9613L182.558 35.7955L184.193 36.5226L184.512 38.261L185.721 36.9555L187.5 37.1945L186.611 35.6598L187.392 34.0699L185.633 34.428L184.338 33.2061L184.14 34.9613Z" fill="#0075A2"/>
<path d="M111.682 51.5634L109.888 51.4778L110.911 52.9299L110.274 54.5808L111.994 54.0741L113.394 55.1799L113.434 53.414L114.937 52.4469L113.241 51.8625L112.77 50.1585L111.682 51.5634Z" fill="#0075A2"/>
<path d="M90.1576 79.4448L91.099 77.6739C91.1506 76.9425 91.266 76.2179 91.4438 75.5095V75.5095C92.3411 71.9569 94.7581 69.458 98.2536 67.6291C101.497 65.933 105.272 64.9511 110.457 64.9511C113.859 64.9511 116.25 64.0115 117.492 62.7926C118.838 61.4693 119.836 61.2273 118.898 60.1658L119.28 58.4372C119.233 58.5297 118.048 60.6439 116.817 61.8461C115.139 63.4842 112.999 64.3146 110.456 64.3146C105.163 64.3146 100.601 65.2374 97.2653 66.9817C92.889 69.2622 90.4803 74.5749 90.1079 79.5392L90.1576 79.4448Z" fill="#1F2251"/>
<path d="M100.15 139.672C100.19 137.606 99.6749 135.358 98.7822 133.003C99.3771 133.449 99.9774 134.078 100.574 134.854C101.691 136.311 102.79 138.287 103.787 140.54C103.887 140.762 103.984 140.988 104.082 141.217C105.064 143.555 105.883 145.967 106.533 148.434C107.795 153.203 108.393 158.041 107.797 161.409C107.13 165.167 107.279 168.535 108.569 172.33C109.396 174.757 110.689 177.356 112.538 180.341H98.272C98.3639 170.242 98.8282 157.582 99.7531 144.825C99.7972 144.203 99.845 143.58 99.8919 142.956C99.9057 142.77 99.9204 142.583 99.9351 142.397C100.004 141.495 100.076 140.591 100.15 139.69V139.672Z" fill="#F4F4F4"/>
<path d="M160.602 25L164.013 34.3139L160.099 33.2867L161.27 38.7529L156.184 29.2117L160.765 30.8016L160.602 25Z" fill="#0075A2"/>
<path d="M85.5742 29.1949L94.552 33.6713L90.9866 35.5651L95.6516 38.7527L85.2957 35.2405L89.739 33.3072L85.5742 29.1949Z" fill="#0075A2"/>
<path d="M175.161 100.711C176.531 103.086 178.087 105.68 179.8 108.373C180.451 109.397 181.08 110.351 181.687 111.236C181.839 111.266 181.993 111.288 182.147 111.3V111.3C183.282 111.399 184.136 111.351 184.75 111.211C187.013 110.692 186.053 108.867 184.067 107.857C181.561 106.584 175.268 100.81 175.161 100.711Z" fill="#F4F4F4"/>
<path d="M100.868 101.63C101.192 102.271 102.908 102.668 105.174 102.962C107.301 103.238 109.91 103.423 112.305 103.633C114.569 103.829 116.642 104.052 117.939 104.393C110.175 102.267 106.026 100.74 105.744 100.637C105.741 100.638 105.738 100.638 105.735 100.637C105.732 100.636 105.73 100.636 105.727 100.637C104.532 100.047 103.28 99.4107 101.972 98.7292C101.972 98.7292 99.9538 99.8183 100.868 101.63Z" fill="#F4F4F4"/>
</svg>
