<svg width="250" height="181" viewBox="0 0 250 181" fill="none" xmlns="http://www.w3.org/2000/svg">
<g clip-path="url(#clip0_1527_3080)">
<path opacity="0.5" d="M259 123.429H212.64C212.26 123.411 211.897 123.261 211.614 123.005C211.332 122.749 211.147 122.402 211.092 122.025L195.436 43.8233C195.076 42.0231 192.826 41.9286 192.358 43.7108L173.249 117.034C172.799 118.798 170.549 118.74 170.176 116.953L151 28.8823C150.617 27.1136 148.421 27.0371 147.94 28.7743L124.651 112.21C124.201 113.798 122.261 113.911 121.676 112.381L92.5095 36.2673C91.9244 34.7462 89.9893 34.8497 89.5348 36.4293L70.2105 103.691C69.7605 105.311 67.7398 105.365 67.2088 103.772L55.625 69.0609C55.5473 68.7365 55.3654 68.4464 55.1072 68.2352C54.8489 68.0239 54.5285 67.9032 54.195 67.8915C53.8616 67.8797 53.5335 67.9776 53.261 68.1701C52.9885 68.3627 52.7866 68.6392 52.6863 68.9574L39.2394 102.71C39.1322 103.012 38.9367 103.274 38.6783 103.464C38.4199 103.653 38.1105 103.76 37.7903 103.772H-12.8291" stroke="white" stroke-width="2.25015" stroke-miterlimit="10"/>
<path d="M93.2931 144.398C91.6864 144.45 90.082 144.236 88.5453 143.763C87.5078 143.446 86.5505 142.909 85.7384 142.189C84.9263 141.469 84.2782 140.583 83.838 139.592C83.0099 137.557 83.2575 135.127 84.513 132.927C85.4806 131.23 86.8487 129.952 88.0548 128.827L89.2204 127.738C89.7046 127.309 90.3372 127.086 90.9833 127.117C91.6294 127.148 92.2379 127.43 92.6788 127.903C93.1198 128.377 93.3584 129.004 93.3437 129.65C93.3289 130.297 93.0621 130.912 92.6001 131.365L91.4345 132.45C90.4399 133.377 89.4094 134.34 88.8108 135.384C88.3293 136.225 88.1808 137.125 88.4283 137.724C88.6045 138.053 88.8463 138.343 89.1389 138.575C89.4315 138.808 89.7686 138.977 90.1294 139.074C91.2695 139.382 92.4512 139.508 93.6307 139.448C96.3667 139.354 99.0937 139.082 101.794 138.633C106.587 137.962 111.542 137.283 116.479 138.385C117.119 138.53 117.676 138.924 118.026 139.479C118.376 140.035 118.491 140.706 118.346 141.347C118.201 141.987 117.808 142.544 117.253 142.894C116.697 143.244 116.025 143.359 115.385 143.214C111.335 142.314 107.033 142.899 102.478 143.538C99.5572 144.018 96.6075 144.304 93.6487 144.393L93.2931 144.398Z" fill="#AAD7E8"/>
<path d="M133.251 142.782C132.619 142.753 132.022 142.484 131.582 142.03C131.142 141.576 130.892 140.971 130.883 140.338C130.875 139.706 131.108 139.094 131.536 138.628C131.963 138.162 132.553 137.877 133.184 137.831L149.227 137.381C151.072 137.327 152.98 137.278 154.627 136.796C156.18 136.346 157.413 135.5 158.007 134.478C158.538 133.578 158.52 132.332 157.962 131.72C157.472 131.189 156.446 130.82 155.541 130.518L149.727 128.498C149.42 128.391 149.137 128.224 148.894 128.008C148.651 127.792 148.454 127.53 148.312 127.237C148.171 126.944 148.088 126.626 148.07 126.302C148.051 125.977 148.096 125.652 148.203 125.345C148.31 125.038 148.477 124.755 148.693 124.512C148.909 124.27 149.171 124.072 149.464 123.931C149.757 123.789 150.074 123.707 150.399 123.688C150.724 123.669 151.049 123.715 151.356 123.822L157.17 125.842C158.48 126.292 160.275 126.922 161.607 128.372C163.655 130.622 163.939 134.141 162.287 136.967C161.04 139.114 158.808 140.743 155.987 141.553C153.736 142.21 151.387 142.273 149.331 142.331L133.292 142.782H133.251Z" fill="#AAD7E8"/>
<path d="M121.019 138.218C122.473 138.191 123.684 140.361 123.202 142.129L120.2 153.15C119.939 154.123 119.21 154.64 118.4 154.424C116.353 153.884 114.8 151.08 115.034 148.403L115.444 143.997L111.101 144.087C110.448 144.087 109.886 143.164 110.052 142.336L111.047 137.327C111.105 137.044 111.294 136.877 111.519 136.909L121.019 138.218Z" fill="#0075A2"/>
<path d="M119.044 139.38C118.923 138.901 118.854 138.41 118.837 137.917L121.019 138.218C122.473 138.191 123.683 140.361 123.202 142.129L122.896 143.259C121.276 143.277 119.629 141.675 119.044 139.38Z" fill="#096386"/>
<path d="M127.009 138.218C125.56 138.191 124.35 140.361 124.831 142.129L127.815 153.15C128.081 154.123 128.81 154.64 129.615 154.424C131.663 153.884 133.215 151.08 132.977 148.403L132.567 143.997L136.915 144.087C137.567 144.087 138.13 143.164 137.963 142.336L136.964 137.327C136.91 137.044 136.721 136.877 136.514 136.909L127.009 138.218Z" fill="#0075A2"/>
<path d="M128.985 139.38C129.11 138.902 129.179 138.411 129.192 137.917L127.009 138.218C125.56 138.191 124.35 140.361 124.831 142.129L125.137 143.259C126.753 143.277 128.4 141.675 128.985 139.38Z" fill="#096386"/>
<path d="M60.4448 85.0187C60.3121 84.7193 60.1218 84.4491 59.8847 84.2233C59.6476 83.9975 59.3683 83.8206 59.0628 83.7028C58.7573 83.5849 58.4316 83.5284 58.1043 83.5365C57.777 83.5445 57.4544 83.6169 57.1551 83.7496C56.8564 83.8483 56.5383 83.873 56.228 83.8216C56.003 83.7946 55.778 83.7496 55.4855 83.6911C55.1929 83.6326 54.9049 83.5381 54.6124 83.4661C53.4512 83.1442 52.3215 82.718 51.2372 82.1925C49.4405 81.3247 47.8319 80.1121 46.5029 78.6238C47.1527 77.89 47.554 76.9695 47.6494 75.994C47.7448 75.0184 47.5293 74.0377 47.0339 73.1919C46.8101 72.8386 46.4551 72.5887 46.0471 72.4971C45.639 72.4056 45.2113 72.4798 44.858 72.7036C44.5047 72.9274 44.2548 73.2824 44.1632 73.6904C44.0717 74.0985 44.1459 74.5262 44.3697 74.8795C44.5073 75.1531 44.557 75.4626 44.5118 75.7655C44.4667 76.0684 44.3291 76.35 44.1177 76.5716C43.8392 76.8259 43.5006 77.0052 43.1337 77.0926C42.7669 77.18 42.3838 77.1726 42.0206 77.0712C41.1586 76.8017 40.4375 76.2035 40.0134 75.4061C39.5529 74.6267 39.4125 73.6991 39.6219 72.8184C39.7155 72.4395 39.8995 72.0888 40.1581 71.7965C40.4167 71.5042 40.7423 71.2788 41.107 71.1398C41.2509 71.0775 41.4076 71.0504 41.5641 71.0606C41.7206 71.0708 41.8724 71.1179 42.0071 71.1983C42.2928 71.4958 42.6839 71.6694 43.0962 71.6817C43.5085 71.6941 43.9093 71.5441 44.2122 71.2641C44.5152 70.9841 44.6962 70.5965 44.7164 70.1844C44.7366 69.7724 44.5944 69.3689 44.3202 69.0606C43.7827 68.5275 43.1038 68.1595 42.3637 68C41.6236 67.8405 40.8534 67.8962 40.1439 68.1606C39.113 68.5129 38.2136 69.1706 37.5653 70.0462C37.3634 68.7626 37.2297 67.4692 37.1647 66.1714C37.1415 65.8134 36.9769 65.4792 36.7073 65.2425C36.4376 65.0058 36.085 64.8858 35.7269 64.9091C35.3688 64.9324 35.0347 65.0969 34.7979 65.3666C34.5612 65.6362 34.4413 65.9889 34.4646 66.347C34.5355 68.1638 34.7659 69.9708 35.1531 71.7473L34.9371 71.4008C34.2918 70.3028 33.9012 69.0741 33.794 67.805C33.7849 67.6277 33.7409 67.454 33.6646 67.2937C33.5882 67.1334 33.4811 66.9897 33.3493 66.8708C33.2174 66.7519 33.0634 66.6602 32.8961 66.6008C32.7288 66.5414 32.5515 66.5156 32.3742 66.5247C32.1969 66.5339 32.0231 66.5779 31.8628 66.6542C31.7025 66.7305 31.5588 66.8376 31.4399 66.9695C31.3211 67.1013 31.2293 67.2553 31.1699 67.4226C31.1105 67.5899 31.0847 67.7673 31.0938 67.9446C31.2309 69.6515 31.7558 71.3046 32.6284 72.7779C33.5285 74.272 35.9317 77.7957 38.8074 78.8083C39.5054 79.4207 40.3332 79.8669 41.2285 80.1134C41.6879 80.2366 42.1615 80.2987 42.6371 80.2979H42.9611C44.5875 82.6382 46.7055 84.595 49.167 86.0313C50.4485 86.7787 51.7951 87.4083 53.1903 87.9124C53.5458 88.0294 53.8654 88.1554 54.2479 88.2679C54.6499 88.3937 55.0586 88.4973 55.472 88.5784C56.4846 88.7911 57.5322 88.7726 58.5367 88.5244L58.8247 88.4479C58.9513 88.4152 59.0747 88.3716 59.1937 88.3174C59.493 88.1836 59.7629 87.992 59.9879 87.7535C60.2129 87.5151 60.3885 87.2346 60.5048 86.9281C60.621 86.6215 60.6756 86.2951 60.6653 85.9674C60.655 85.6397 60.5801 85.3173 60.4448 85.0187V85.0187Z" fill="#AAD7E8"/>
<path d="M215.534 66.8425C215.177 66.8242 214.827 66.9485 214.561 67.1881C214.295 67.4278 214.135 67.7632 214.117 68.1206C214.005 69.3822 213.613 70.6029 212.969 71.6939C212.902 71.8064 212.83 71.9234 212.753 72.0404C213.144 70.2644 213.376 68.4571 213.446 66.64C213.458 66.4627 213.434 66.2849 213.377 66.1167C213.32 65.9485 213.23 65.7932 213.113 65.6597C212.876 65.39 212.542 65.2255 212.184 65.2022C212.007 65.1907 211.829 65.2142 211.661 65.2714C211.492 65.3286 211.337 65.4183 211.204 65.5356C210.934 65.7723 210.769 66.1065 210.746 66.4645C210.679 67.7621 210.545 69.0554 210.346 70.3393C209.697 69.4612 208.796 68.8019 207.762 68.4492C207.053 68.1874 206.284 68.133 205.546 68.2924C204.807 68.4518 204.129 68.8184 203.591 69.3492C203.306 69.656 203.156 70.063 203.172 70.4807C203.188 70.8985 203.369 71.2928 203.676 71.5769C203.983 71.8609 204.39 72.0115 204.808 71.9955C205.225 71.9794 205.62 71.7981 205.904 71.4914C206.035 71.4147 206.182 71.3695 206.333 71.3594C206.485 71.3492 206.637 71.3744 206.777 71.4329C207.142 71.572 207.468 71.7973 207.727 72.0895C207.987 72.3818 208.172 72.7324 208.266 73.1115C208.472 73.9924 208.331 74.9184 207.875 75.6991C207.451 76.4965 206.73 77.0948 205.868 77.3643C205.505 77.4661 205.121 77.4737 204.754 77.3863C204.387 77.2989 204.049 77.1194 203.771 76.8647C203.559 76.6424 203.421 76.36 203.376 76.0563C203.331 75.7526 203.381 75.4424 203.519 75.1681C203.629 74.9932 203.704 74.7982 203.739 74.5943C203.774 74.3904 203.769 74.1815 203.723 73.9797C203.678 73.7778 203.593 73.587 203.474 73.4179C203.354 73.2489 203.203 73.105 203.028 72.9945C202.853 72.8839 202.658 72.809 202.454 72.7738C202.25 72.7386 202.041 72.744 201.84 72.7895C201.638 72.8351 201.447 72.92 201.278 73.0393C201.109 73.1586 200.965 73.3101 200.854 73.485C200.358 74.3304 200.141 75.3114 200.237 76.2873C200.332 77.2631 200.734 78.1837 201.385 78.9168C200.847 79.5112 200.266 80.0661 199.648 80.5775C198.721 81.3201 197.716 81.9599 196.651 82.4856C195.567 83.0115 194.438 83.4363 193.276 83.7547C192.983 83.8312 192.668 83.9257 192.403 83.9842C192.137 84.0427 191.881 84.0877 191.66 84.1147C191.35 84.166 191.032 84.1413 190.733 84.0427C190.608 83.991 190.48 83.946 190.351 83.9077C190.033 83.822 189.701 83.8 189.375 83.843C189.049 83.886 188.734 83.9933 188.45 84.1585C188.165 84.3237 187.916 84.5436 187.717 84.8055C187.517 85.0675 187.372 85.3663 187.289 85.6847C187.206 86.0031 187.186 86.3348 187.232 86.6608C187.278 86.9867 187.388 87.3003 187.555 87.5836C187.723 87.8669 187.944 88.1143 188.208 88.3113C188.472 88.5084 188.772 88.6514 189.091 88.732L189.37 88.804C190.374 89.0522 191.422 89.0707 192.434 88.858C192.846 88.7769 193.253 88.6733 193.654 88.5475C194.036 88.435 194.36 88.309 194.711 88.192C196.108 87.687 197.456 87.0574 198.739 86.3109C201.203 84.8795 203.322 82.9237 204.945 80.582C205.053 80.582 205.161 80.582 205.269 80.582C205.746 80.5832 206.221 80.5211 206.682 80.3975C207.578 80.151 208.405 79.7048 209.103 79.0924C211.979 78.0798 214.373 74.5561 215.278 73.062C216.154 71.5902 216.679 69.9362 216.812 68.2286C216.822 67.8765 216.694 67.5345 216.455 67.2755C216.217 67.0166 215.886 66.8612 215.534 66.8425V66.8425Z" fill="#AAD7E8"/>
<path d="M191.358 85.8607C191.358 85.6762 191.358 85.4962 191.358 85.3117V84.0516C191.34 78.5005 189.332 73.1401 185.699 68.943C182.066 64.746 177.048 61.9905 171.557 61.1766C170.729 50.4298 161.962 41.9648 151.252 41.9648C148.108 41.9629 145.008 42.7063 142.206 44.1339C140.613 40.5648 138.025 37.5297 134.754 35.3911C131.482 33.2524 127.664 32.1006 123.755 32.0731C115.119 32.0731 107.743 37.586 104.773 45.367C101.486 43.1504 97.6122 41.9657 93.6479 41.9648C82.8472 41.9648 73.9906 50.6054 73.3066 61.5231C68.2124 62.7055 63.667 65.5737 60.407 69.6627C57.147 73.7518 55.3636 78.8221 55.3459 84.0516V85.3117C55.3459 85.4962 55.3459 85.6762 55.3459 85.8607C51.602 86.6923 48.2525 88.7729 45.8479 91.7606C43.4434 94.7483 42.1269 98.4652 42.115 102.3V102.926C42.1269 107.385 43.9033 111.659 47.0562 114.813C50.2091 117.966 54.4822 119.744 58.9416 119.757H71.3264C74.4046 126.876 82.5502 131.957 92.1178 131.957C96.4915 131.989 100.798 130.878 104.611 128.735C108.661 133.019 114.921 135.774 121.955 135.774C129.605 135.774 136.356 132.52 140.321 127.574C144.519 130.483 149.515 132.019 154.622 131.971C164.186 131.971 172.331 126.89 175.414 119.77H187.763C192.222 119.757 196.495 117.98 199.648 114.826C202.801 111.672 204.577 107.399 204.589 102.939V102.314C204.58 98.4764 203.265 94.7563 200.861 91.7659C198.456 88.7754 195.105 86.6928 191.358 85.8607V85.8607Z" fill="#AAD7E8"/>
<path d="M158.227 97.2325H145.105C144.955 97.2325 144.812 97.2918 144.707 97.3972C144.601 97.5027 144.542 97.6458 144.542 97.795C144.542 97.9442 144.601 98.0873 144.707 98.1928C144.812 98.2983 144.955 98.3576 145.105 98.3576H158.227C159.5 98.3566 160.75 98.0292 161.86 97.4067C162.969 96.7843 163.9 95.8875 164.564 94.8023C164.645 95.693 165.056 96.5213 165.714 97.1261C166.373 97.7309 167.234 98.0688 168.128 98.074H172.277C172.427 98.074 172.57 98.0148 172.675 97.9093C172.781 97.8038 172.84 97.6607 172.84 97.5115C172.84 97.3623 172.781 97.2192 172.675 97.1137C172.57 97.0082 172.427 96.949 172.277 96.949H168.128C167.478 96.9478 166.855 96.689 166.395 96.2293C165.935 95.7696 165.677 95.1464 165.675 94.4963V89.1319C165.677 89.1155 165.677 89.0989 165.675 89.0824C165.626 87.5009 164.964 86.0005 163.828 84.8986C162.693 83.7966 161.173 83.1796 159.591 83.178C159.442 83.178 159.299 83.2373 159.193 83.3428C159.088 83.4483 159.028 83.5914 159.028 83.7406C159.028 83.8898 159.088 84.0329 159.193 84.1383C159.299 84.2438 159.442 84.3031 159.591 84.3031C160.906 84.3043 162.166 84.8255 163.098 85.753C164.03 86.6804 164.557 87.9388 164.564 89.2534V90.8871C164.566 91.7203 164.404 92.5457 164.087 93.3161C163.769 94.0864 163.303 94.7865 162.714 95.3761C162.125 95.9656 161.426 96.4331 160.656 96.7517C159.886 97.0703 159.061 97.2337 158.227 97.2325V97.2325Z" fill="#A7CCD9"/>
<path d="M69.7243 86.1754C69.7243 86.0262 69.6651 85.8831 69.5596 85.7776C69.4541 85.6721 69.311 85.6129 69.1618 85.6129H55.0083C54.9345 85.6129 54.8613 85.6274 54.7931 85.6557C54.7248 85.6839 54.6628 85.7254 54.6106 85.7776C54.5583 85.8299 54.5169 85.8919 54.4886 85.9601C54.4604 86.0284 54.4458 86.1015 54.4458 86.1754C54.4458 86.2493 54.4604 86.3224 54.4886 86.3907C54.5169 86.4589 54.5583 86.5209 54.6106 86.5732C54.6628 86.6254 54.7248 86.6668 54.7931 86.6951C54.8613 86.7234 54.9345 86.7379 55.0083 86.7379H69.1618C69.311 86.7379 69.4541 86.6787 69.5596 86.5732C69.6651 86.4677 69.7243 86.3246 69.7243 86.1754Z" fill="#A7CCD9"/>
<path d="M105.349 73.9758H91.6094C88.5132 73.9758 85.9975 76.838 85.9975 80.3573C85.9975 83.2554 83.9859 85.6136 81.4972 85.6136H73.4641C73.315 85.6136 73.1719 85.6729 73.0664 85.7784C72.9609 85.8839 72.9016 86.0269 72.9016 86.1761C72.9016 86.3253 72.9609 86.4684 73.0664 86.5739C73.1719 86.6794 73.315 86.7387 73.4641 86.7387H79.409C78.6271 87.3161 77.9915 88.0688 77.553 88.9363C77.1146 89.8038 76.8856 90.762 76.8844 91.734V93.9347C76.8844 94.0839 76.9436 94.2269 77.0491 94.3324C77.1546 94.4379 77.2977 94.4972 77.4469 94.4972C77.5961 94.4972 77.7392 94.4379 77.8447 94.3324C77.9502 94.2269 78.0095 94.0839 78.0095 93.9347V91.734C78.0106 90.3821 78.5482 89.0859 79.5042 88.1299C80.4601 87.1739 81.7564 86.6364 83.1083 86.6352V86.4732C85.426 85.6856 87.1226 83.2464 87.1226 80.3573C87.1226 77.4681 89.1342 75.1009 91.6229 75.1009H105.349V73.9758Z" fill="#A7CCD9"/>
<path d="M180.086 109.79C178.436 109.793 176.854 110.449 175.688 111.616C174.521 112.783 173.864 114.364 173.862 116.014V117C173.843 117.052 173.832 117.107 173.831 117.162C173.831 117.463 173.831 117.733 173.862 117.986V118.22C173.863 118.295 173.878 118.37 173.907 118.44C174.033 119.34 174.303 119.889 174.749 120.146C174.908 120.24 175.09 120.29 175.275 120.29C175.448 120.292 175.619 120.248 175.77 120.164C175.89 120.092 175.978 119.978 176.019 119.845C176.059 119.712 176.048 119.568 175.989 119.442C175.93 119.316 175.826 119.216 175.697 119.163C175.569 119.109 175.425 119.105 175.293 119.151C175.081 118.788 174.975 118.374 174.987 117.954V116.014C174.99 114.663 175.527 113.367 176.483 112.412C177.439 111.456 178.734 110.918 180.086 110.916C180.235 110.916 180.378 110.856 180.484 110.751C180.589 110.645 180.649 110.502 180.649 110.353C180.649 110.204 180.589 110.061 180.484 109.955C180.378 109.85 180.235 109.79 180.086 109.79V109.79Z" fill="#A7CCD9"/>
<path d="M144.866 129.272C137.688 126.477 135.888 120.883 135.866 120.82C135.822 120.677 135.723 120.557 135.591 120.486C135.459 120.416 135.305 120.401 135.161 120.444C135.018 120.488 134.898 120.587 134.828 120.719C134.757 120.851 134.742 121.005 134.786 121.149C134.862 121.401 136.739 127.319 144.457 130.32C144.521 130.345 144.59 130.358 144.659 130.356C144.789 130.355 144.915 130.308 145.014 130.224C145.114 130.141 145.181 130.025 145.205 129.897C145.229 129.769 145.208 129.637 145.145 129.523C145.083 129.409 144.983 129.32 144.862 129.272H144.866Z" fill="#A7CCD9"/>
<path d="M151.702 61.7797H171.418C171.567 61.7797 171.71 61.7205 171.815 61.615C171.921 61.5095 171.98 61.3664 171.98 61.2172C171.98 61.068 171.921 60.9249 171.815 60.8194C171.71 60.7139 171.567 60.6547 171.418 60.6547H151.702C151.553 60.6547 151.409 60.7139 151.304 60.8194C151.198 60.9249 151.139 61.068 151.139 61.2172C151.139 61.3664 151.198 61.5095 151.304 61.615C151.409 61.7205 151.553 61.7797 151.702 61.7797Z" fill="#A7CCD9"/>
<path d="M73.3965 61.8875H91.0107C91.1599 61.8875 91.303 61.8282 91.4085 61.7227C91.514 61.6172 91.5732 61.4741 91.5732 61.3249C91.5732 61.1757 91.514 61.0327 91.4085 60.9272C91.303 60.8217 91.1599 60.7624 91.0107 60.7624H73.3965C73.2473 60.7624 73.1042 60.8217 72.9987 60.9272C72.8933 61.0327 72.834 61.1757 72.834 61.3249C72.834 61.4741 72.8933 61.6172 72.9987 61.7227C73.1042 61.8282 73.2473 61.8875 73.3965 61.8875V61.8875Z" fill="#A7CCD9"/>
<path d="M123.584 58.8723H117.216C114.05 58.8687 111.015 57.6098 108.776 55.3717C106.537 53.1335 105.277 50.0988 105.272 46.933V45.1329C105.272 44.9837 105.213 44.8406 105.108 44.7351C105.002 44.6296 104.859 44.5703 104.71 44.5703C104.561 44.5703 104.417 44.6296 104.312 44.7351C104.206 44.8406 104.147 44.9837 104.147 45.1329V46.933C104.147 49.5467 104.93 52.1005 106.393 54.2659C107.857 56.4313 109.935 58.1093 112.36 59.0838C111.16 59.5209 110.124 60.3169 109.392 61.3636C108.66 62.4103 108.268 63.657 108.269 64.9342V67.0808C108.269 67.23 108.329 67.3731 108.434 67.4786C108.54 67.5841 108.683 67.6434 108.832 67.6434C108.981 67.6434 109.124 67.5841 109.23 67.4786C109.335 67.3731 109.395 67.23 109.395 67.0808V64.8802C109.397 63.5286 109.935 62.2331 110.891 61.2774C111.846 60.3217 113.142 59.7837 114.493 59.7813C114.568 59.7803 114.641 59.765 114.709 59.7363C115.535 59.8976 116.375 59.9789 117.216 59.9793H123.584C123.733 59.9793 123.876 59.9201 123.982 59.8146C124.087 59.7091 124.147 59.566 124.147 59.4168C124.147 59.2676 124.087 59.1245 123.982 59.019C123.876 58.9135 123.733 58.8543 123.584 58.8543V58.8723Z" fill="#A7CCD9"/>
<path d="M119.264 108.818H117.464C114.856 108.824 112.309 109.609 110.151 111.072C107.992 112.535 106.32 114.611 105.349 117.031C104.91 115.833 104.113 114.798 103.067 114.066C102.021 113.335 100.775 112.942 99.4988 112.941H97.2981C97.1489 112.941 97.0059 113 96.9004 113.105C96.7949 113.211 96.7356 113.354 96.7356 113.503C96.7356 113.652 96.7949 113.795 96.9004 113.901C97.0059 114.006 97.1489 114.066 97.2981 114.066H99.4988C100.851 114.068 102.147 114.607 103.103 115.563C104.059 116.52 104.596 117.817 104.598 119.169C104.598 119.242 104.614 119.314 104.643 119.38C104.482 120.206 104.4 121.046 104.4 121.887V128.26C104.4 128.409 104.459 128.552 104.564 128.657C104.67 128.763 104.813 128.822 104.962 128.822C105.111 128.822 105.254 128.763 105.36 128.657C105.465 128.552 105.525 128.409 105.525 128.26V121.883C105.528 118.717 106.787 115.682 109.026 113.444C111.264 111.206 114.299 109.947 117.464 109.943H119.264C119.413 109.943 119.556 109.884 119.662 109.779C119.767 109.673 119.827 109.53 119.827 109.381C119.827 109.232 119.767 109.088 119.662 108.983C119.556 108.878 119.413 108.818 119.264 108.818V108.818Z" fill="#A7CCD9"/>
<path d="M191.534 85.402H178.704C179.894 84.1689 180.559 82.5213 180.558 80.8072V78.836C180.552 76.5558 179.643 74.3706 178.031 72.7583C176.419 71.1459 174.233 70.2374 171.953 70.2315H157.314C156.889 70.2325 156.465 70.261 156.045 70.317H153.831C152.143 70.317 150.766 68.6924 150.766 66.6942C150.766 64.0796 148.885 61.9509 146.572 61.9509H136.698V63.076H146.572C148.264 63.076 149.641 64.7006 149.641 66.6762C149.641 68.9264 151.018 70.7985 152.867 71.2935C151.273 72.1116 149.934 73.3533 148.999 74.8824C148.064 76.4115 147.568 78.1687 147.566 79.9611C147.566 80.1103 147.625 80.2534 147.731 80.3589C147.836 80.4644 147.979 80.5237 148.129 80.5237C148.278 80.5237 148.421 80.4644 148.526 80.3589C148.632 80.2534 148.691 80.1103 148.691 79.9611C148.691 77.8725 149.449 75.8548 150.823 74.2823C152.198 72.7098 154.096 71.6895 156.166 71.4106H159.622C159.721 71.4077 159.818 71.3782 159.901 71.325H171.953C173.94 71.3274 175.844 72.1176 177.249 73.5223C178.654 74.927 179.444 76.8315 179.446 78.818V80.7892C179.447 81.7152 179.214 82.6264 178.769 83.4388C178.325 84.2512 177.683 84.9387 176.904 85.438C176.81 85.4642 176.726 85.5156 176.661 85.5865C175.822 86.0717 174.871 86.3278 173.902 86.329H170.329V87.4541H174.68C176.57 87.4565 178.382 88.2083 179.718 89.5446C181.055 90.881 181.806 92.6927 181.809 94.5826V96.5942C181.806 99.1636 180.785 101.627 178.969 103.444C177.152 105.262 174.689 106.284 172.12 106.288H137.787C135.389 106.282 133.091 105.325 131.397 103.628C129.703 101.931 128.752 99.6312 128.75 97.2333V94.2181C128.753 92.1344 129.581 90.1368 131.054 88.663C132.527 87.1892 134.524 86.3596 136.608 86.356H154.366C154.515 86.356 154.658 86.2968 154.764 86.1913C154.869 86.0858 154.929 85.9427 154.929 85.7935C154.929 85.6443 154.869 85.5012 154.764 85.3957C154.658 85.2902 154.515 85.231 154.366 85.231H136.594C134.207 85.231 131.918 86.1793 130.23 87.8672C128.542 89.5551 127.594 91.8445 127.594 94.2316V97.2333C127.596 99.9312 128.669 102.518 130.577 104.426C132.484 106.333 135.071 107.406 137.769 107.408H172.097C174.96 107.401 177.703 106.261 179.727 104.237C181.751 102.213 182.891 99.4701 182.898 96.6077V94.5961C182.895 92.8185 182.32 91.089 181.257 89.664C180.195 88.239 178.701 87.1943 176.998 86.6846L177.246 86.5406H191.503C191.652 86.5406 191.795 86.4813 191.9 86.3758C192.006 86.2703 192.065 86.1272 192.065 85.978C192.065 85.8288 192.006 85.6857 191.9 85.5803C191.795 85.4748 191.652 85.4155 191.503 85.4155L191.534 85.402Z" fill="#A7CCD9"/>
<path d="M81.4302 100.488C81.281 100.488 81.1379 100.548 81.0324 100.653C80.9269 100.758 80.8677 100.902 80.8677 101.051V108.287C80.8641 111.223 79.6967 114.037 77.6214 116.113C75.5462 118.189 72.7324 119.358 69.7969 119.363C69.6477 119.363 69.5046 119.422 69.3991 119.527C69.2936 119.633 69.2344 119.776 69.2344 119.925C69.2344 120.074 69.2936 120.217 69.3991 120.323C69.5046 120.428 69.6477 120.488 69.7969 120.488C73.0315 120.484 76.1327 119.197 78.4199 116.91C80.7071 114.623 81.9937 111.522 81.9972 108.287V101.051C81.9972 100.977 81.9825 100.903 81.954 100.834C81.9254 100.766 81.8836 100.704 81.8309 100.651C81.7782 100.599 81.7156 100.558 81.6468 100.53C81.5781 100.502 81.5044 100.488 81.4302 100.488Z" fill="#A7CCD9"/>
<path d="M93.9539 73.4981C94.6276 73.4761 95.2894 73.3152 95.898 73.0256C96.5596 72.7646 97.2481 72.526 97.8242 72.3325C98.4002 72.139 99.1068 71.9455 99.7953 71.77C100.458 71.6557 101.089 71.401 101.645 71.0229C102.095 70.6449 102.095 69.9609 101.249 69.3983C100.403 68.8358 98.7062 68.4983 96.7486 69.1418C94.791 69.7853 93.5984 71.0454 93.2834 71.959C92.9683 72.8726 93.3689 73.4486 93.9539 73.4981Z" fill="#3A011F"/>
<path d="M152.647 74.2231C152.035 74.2231 151.4 73.8631 150.761 73.5571C150.122 73.251 149.488 72.918 148.916 72.657C148.344 72.396 147.683 72.1395 147.012 71.8919C146.342 71.6444 145.662 71.4014 145.253 70.9559C144.843 70.5103 144.915 69.8533 145.815 69.3808C146.715 68.9082 148.434 68.7642 150.316 69.5923C152.197 70.4203 153.259 71.8109 153.466 72.7425C153.673 73.6741 153.232 74.2366 152.647 74.2231Z" fill="#3A011F"/>
<path d="M138.201 82.9445C138.428 82.9909 138.638 83.0948 138.813 83.246C145.294 88.8399 151.238 85.8382 151.297 85.8067C151.454 85.6895 151.634 85.6077 151.825 85.567C152.017 85.5263 152.215 85.5278 152.405 85.5712C152.596 85.6146 152.775 85.6989 152.93 85.8184C153.085 85.9378 153.212 86.0895 153.303 86.263C153.393 86.4364 153.445 86.6275 153.454 86.8229C153.464 87.0183 153.431 87.2135 153.357 87.3948C153.284 87.5761 153.172 87.7393 153.029 87.873C152.886 88.0068 152.716 88.1079 152.53 88.1693C152.224 88.3313 144.907 92.0306 137.071 85.2621C136.862 85.0648 136.721 84.8055 136.669 84.5222C136.617 84.2389 136.657 83.9464 136.783 83.6875C136.909 83.4287 137.115 83.2169 137.37 83.0832C137.625 82.9495 137.916 82.9009 138.201 82.9445V82.9445Z" fill="#3A011F"/>
<path d="M94.5931 85.2845C94.8229 85.2527 95.0569 85.2806 95.2727 85.3655C103.234 88.5157 107.874 83.7229 107.901 83.6734C108.155 83.4755 108.471 83.3749 108.793 83.3898C109.114 83.4047 109.42 83.5341 109.655 83.7547C109.889 83.9752 110.038 84.2723 110.072 84.5925C110.107 84.9126 110.026 85.2347 109.845 85.5005C109.606 85.7525 103.918 91.6569 94.2916 87.8452C94.0285 87.728 93.8097 87.5298 93.6672 87.2795C93.5247 87.0292 93.4661 86.7399 93.4997 86.4538C93.5334 86.1678 93.6577 85.9 93.8544 85.6896C94.0511 85.4792 94.31 85.3373 94.5931 85.2845V85.2845Z" fill="#3A011F"/>
<path d="M123.066 93.9384C120.624 93.9464 118.22 93.3265 116.087 92.1383C115.986 92.0738 115.916 91.9721 115.891 91.8557C115.865 91.7393 115.887 91.6176 115.952 91.5173C115.983 91.4673 116.024 91.4241 116.073 91.3901C116.121 91.356 116.175 91.3318 116.233 91.3189C116.291 91.3059 116.35 91.3045 116.409 91.3146C116.467 91.3247 116.523 91.3461 116.573 91.3778C118.663 92.5107 121.013 93.0777 123.39 93.0224C125.767 92.9672 128.088 92.2916 130.123 91.0628C130.174 91.033 130.231 91.0137 130.29 91.006C130.349 90.9982 130.409 91.0022 130.466 91.0177C130.523 91.0332 130.577 91.0598 130.624 91.0961C130.671 91.1325 130.71 91.1777 130.74 91.2293C130.798 91.3326 130.814 91.4549 130.782 91.5696C130.751 91.6843 130.676 91.7819 130.573 91.8413C128.303 93.1978 125.711 93.9219 123.066 93.9384V93.9384Z" fill="#3A011F"/>
<path d="M114.165 93.3536C114.046 93.3715 113.924 93.3412 113.827 93.2695C113.73 93.1977 113.666 93.0904 113.648 92.971C113.63 92.8517 113.66 92.7301 113.732 92.633C113.803 92.536 113.911 92.4714 114.03 92.4535C115.065 92.0523 115.904 91.2649 116.37 90.2573C116.548 89.912 116.65 89.533 116.671 89.1452C116.692 88.7575 116.631 88.3697 116.492 88.0072C116.447 87.8979 116.447 87.7753 116.491 87.6658C116.536 87.5563 116.622 87.4688 116.73 87.4222C116.84 87.3757 116.964 87.3747 117.074 87.4194C117.185 87.4642 117.273 87.5509 117.32 87.6607C117.51 88.1368 117.597 88.6481 117.573 89.1604C117.55 89.6726 117.418 90.1739 117.185 90.6309C116.613 91.8685 115.577 92.8307 114.3 93.3085C114.258 93.3306 114.212 93.3458 114.165 93.3536Z" fill="#3A011F"/>
<path d="M132.769 93.3536C132.723 93.353 132.677 93.3454 132.634 93.3311C131.357 92.8533 130.32 91.8911 129.749 90.6534C129.516 90.1965 129.384 89.6951 129.361 89.1829C129.337 88.6707 129.424 88.1594 129.614 87.6832C129.66 87.5728 129.748 87.4852 129.859 87.4396C129.969 87.394 130.093 87.3942 130.204 87.4402C130.314 87.4861 130.402 87.5741 130.447 87.6846C130.493 87.7952 130.493 87.9193 130.447 88.0297C130.307 88.3919 130.245 88.7796 130.265 89.1673C130.285 89.5551 130.387 89.9342 130.564 90.2799C131.031 91.2866 131.869 92.0736 132.904 92.476C132.963 92.4849 133.02 92.5053 133.071 92.5361C133.122 92.5669 133.167 92.6075 133.202 92.6556C133.238 92.7036 133.263 92.7582 133.278 92.8162C133.292 92.8742 133.295 92.9345 133.286 92.9936C133.277 93.0527 133.257 93.1094 133.226 93.1607C133.195 93.2119 133.155 93.2565 133.107 93.292C133.059 93.3275 133.004 93.3532 132.946 93.3677C132.888 93.3821 132.828 93.385 132.769 93.3761V93.3536Z" fill="#3A011F"/>
<path d="M156.647 68.1683L157.504 67.5109C158.946 66.4051 159.218 64.3401 158.113 62.8985L147.324 48.8331C146.218 47.3915 144.153 47.1192 142.711 48.225L141.854 48.8824C140.413 49.9881 140.14 52.0532 141.246 53.4948L152.035 67.5602C153.141 69.0018 155.206 69.2741 156.647 68.1683Z" fill="white"/>
<path d="M150.082 62.1813L153.524 59.5409C153.776 59.3473 153.824 58.9857 153.63 58.7332L150.072 54.0948C149.879 53.8423 149.517 53.7947 149.265 53.9883L145.823 56.6287C145.57 56.8223 145.522 57.1839 145.716 57.4363L149.274 62.0748C149.468 62.3272 149.829 62.3749 150.082 62.1813Z" fill="#FFAAB5"/>
<path d="M151.981 59.2778C151.963 59.2558 151.95 59.2304 151.942 59.2032C151.934 59.176 151.931 59.1475 151.935 59.1194C151.938 59.0913 151.947 59.0641 151.961 59.0395C151.975 59.0149 151.994 58.9934 152.017 58.9762C152.05 58.9496 152.091 58.9334 152.134 58.9299C152.176 58.9264 152.219 58.9357 152.256 58.9565C152.294 58.9774 152.324 59.0089 152.344 59.0471C152.363 59.0852 152.371 59.1283 152.366 59.1708C152.361 59.2134 152.343 59.2534 152.315 59.2859C152.287 59.3184 152.25 59.3419 152.209 59.3534C152.168 59.3648 152.124 59.3638 152.083 59.3503C152.043 59.3368 152.007 59.3116 151.981 59.2778V59.2778Z" fill="#AAD7E8"/>
<path d="M150.896 60.1101C150.861 60.0648 150.845 60.0073 150.853 59.9503C150.86 59.8933 150.889 59.8416 150.935 59.8063C150.98 59.7711 151.037 59.7554 151.094 59.7626C151.151 59.7697 151.203 59.7993 151.238 59.8446C151.273 59.8908 151.288 59.9487 151.281 60.0059C151.273 60.0631 151.243 60.1151 151.198 60.1506C151.152 60.185 151.095 60.2 151.039 60.1925C150.982 60.1849 150.931 60.1553 150.896 60.1101V60.1101Z" fill="#AAD7E8"/>
<path d="M149.902 60.8568C149.875 60.8228 149.86 60.7819 149.857 60.7392C149.854 60.6965 149.864 60.6539 149.886 60.6169C149.907 60.5798 149.939 60.55 149.977 60.5311C150.016 60.5122 150.059 60.5052 150.101 60.5109C150.144 60.5166 150.184 60.5348 150.216 60.5631C150.248 60.5914 150.271 60.6287 150.282 60.6701C150.292 60.7114 150.291 60.7551 150.277 60.7956C150.263 60.836 150.237 60.8714 150.203 60.8973C150.158 60.9316 150.1 60.9467 150.044 60.9391C149.987 60.9315 149.936 60.9019 149.902 60.8568V60.8568Z" fill="#AAD7E8"/>
<path d="M153.952 61.8652C153.926 61.8312 153.911 61.7903 153.908 61.7476C153.905 61.7049 153.915 61.6623 153.936 61.6253C153.958 61.5882 153.99 61.5584 154.028 61.5395C154.066 61.5207 154.11 61.5136 154.152 61.5193C154.194 61.525 154.234 61.5432 154.266 61.5715C154.298 61.5999 154.321 61.6371 154.332 61.6785C154.343 61.7199 154.341 61.7636 154.327 61.804C154.313 61.8445 154.288 61.8798 154.254 61.9057C154.208 61.94 154.151 61.9551 154.094 61.9475C154.038 61.9399 153.987 61.9103 153.952 61.8652V61.8652Z" fill="#AAD7E8"/>
<path d="M152.881 62.6934C152.855 62.6595 152.839 62.6186 152.837 62.5759C152.834 62.5332 152.844 62.4906 152.865 62.4535C152.887 62.4165 152.919 62.3866 152.957 62.3678C152.995 62.3489 153.039 62.3419 153.081 62.3476C153.123 62.3533 153.163 62.3714 153.195 62.3998C153.227 62.4281 153.25 62.4653 153.261 62.5067C153.272 62.5481 153.27 62.5918 153.256 62.6323C153.242 62.6727 153.217 62.7081 153.183 62.7339C153.137 62.7683 153.08 62.7833 153.023 62.7757C152.967 62.7682 152.916 62.7386 152.881 62.6934V62.6934Z" fill="#AAD7E8"/>
<path d="M151.904 63.445C151.878 63.4111 151.863 63.3702 151.86 63.3275C151.857 63.2848 151.867 63.2422 151.888 63.2051C151.91 63.1681 151.942 63.1382 151.98 63.1194C152.019 63.1005 152.062 63.0935 152.104 63.0992C152.147 63.1048 152.186 63.123 152.218 63.1514C152.25 63.1797 152.273 63.2169 152.284 63.2583C152.295 63.2997 152.294 63.3434 152.28 63.3839C152.266 63.4243 152.24 63.4597 152.206 63.4855C152.16 63.5199 152.103 63.5349 152.047 63.5273C151.99 63.5198 151.939 63.4902 151.904 63.445V63.445Z" fill="#AAD7E8"/>
<path d="M155.721 64.1554C155.694 64.1219 155.678 64.0812 155.674 64.0385C155.671 63.9958 155.68 63.9531 155.701 63.9156C155.722 63.8782 155.753 63.8479 155.791 63.8284C155.83 63.8089 155.873 63.8013 155.915 63.8063C155.958 63.8114 155.998 63.829 156.03 63.8569C156.063 63.8848 156.086 63.9218 156.098 63.963C156.109 64.0043 156.108 64.048 156.095 64.0887C156.081 64.1294 156.056 64.1651 156.022 64.1914C156 64.2092 155.975 64.2225 155.948 64.2304C155.92 64.2382 155.892 64.2405 155.864 64.2372C155.836 64.2338 155.808 64.2249 155.784 64.2108C155.759 64.1968 155.738 64.1779 155.721 64.1554V64.1554Z" fill="#AAD7E8"/>
<path d="M154.636 64.9834C154.61 64.9495 154.594 64.9086 154.592 64.8659C154.589 64.8231 154.599 64.7806 154.62 64.7435C154.641 64.7065 154.673 64.6766 154.712 64.6577C154.75 64.6389 154.793 64.6318 154.836 64.6375C154.878 64.6432 154.918 64.6614 154.95 64.6897C154.982 64.7181 155.005 64.7553 155.016 64.7967C155.027 64.8381 155.025 64.8818 155.011 64.9222C154.997 64.9627 154.972 64.9981 154.937 65.0239C154.892 65.0583 154.835 65.0733 154.778 65.0657C154.722 65.0581 154.671 65.0285 154.636 64.9834V64.9834Z" fill="#AAD7E8"/>
<path d="M153.659 65.7306C153.633 65.6967 153.618 65.6558 153.615 65.6131C153.612 65.5704 153.622 65.5278 153.644 65.4908C153.665 65.4537 153.697 65.4239 153.735 65.405C153.774 65.3861 153.817 65.3791 153.859 65.3848C153.902 65.3905 153.941 65.4087 153.974 65.437C154.006 65.4653 154.029 65.5026 154.039 65.544C154.05 65.5854 154.049 65.629 154.035 65.6695C154.021 65.7099 153.995 65.7453 153.961 65.7711C153.915 65.8055 153.858 65.8206 153.802 65.813C153.745 65.8054 153.694 65.7758 153.659 65.7306V65.7306Z" fill="#AAD7E8"/>
<path d="M145.496 50.8305C145.461 50.7844 145.446 50.7265 145.454 50.6692C145.461 50.612 145.491 50.5601 145.536 50.5245C145.582 50.4958 145.637 50.4853 145.69 50.4948C145.743 50.5044 145.79 50.5335 145.823 50.5764C145.856 50.6192 145.871 50.6727 145.866 50.7264C145.862 50.7801 145.837 50.8301 145.797 50.8665C145.752 50.9003 145.695 50.9154 145.639 50.9087C145.583 50.902 145.532 50.874 145.496 50.8305Z" fill="#AAD7E8"/>
<path d="M144.416 51.6579C144.39 51.624 144.374 51.5831 144.371 51.5404C144.369 51.4977 144.378 51.4551 144.4 51.4181C144.421 51.381 144.453 51.3512 144.492 51.3323C144.53 51.3134 144.573 51.3064 144.616 51.3121C144.658 51.3178 144.698 51.336 144.73 51.3643C144.762 51.3926 144.785 51.4299 144.796 51.4713C144.807 51.5127 144.805 51.5564 144.791 51.5968C144.777 51.6372 144.751 51.6726 144.717 51.6985C144.672 51.7328 144.615 51.7479 144.558 51.7403C144.502 51.7327 144.45 51.7031 144.416 51.6579V51.6579Z" fill="#AAD7E8"/>
<path d="M143.439 52.4052C143.413 52.3713 143.398 52.3304 143.395 52.2877C143.392 52.245 143.402 52.2024 143.424 52.1653C143.445 52.1283 143.477 52.0984 143.515 52.0796C143.554 52.0607 143.597 52.0537 143.639 52.0594C143.682 52.0651 143.721 52.0832 143.754 52.1116C143.786 52.1399 143.809 52.1771 143.819 52.2185C143.83 52.2599 143.829 52.3036 143.815 52.3441C143.801 52.3845 143.775 52.4199 143.741 52.4457C143.695 52.4801 143.638 52.4951 143.582 52.4875C143.525 52.48 143.474 52.4504 143.439 52.4052V52.4052Z" fill="#AAD7E8"/>
<path d="M147.251 53.1301C147.225 53.0961 147.209 53.0552 147.207 53.0125C147.204 52.9698 147.214 52.9272 147.235 52.8902C147.256 52.8531 147.288 52.8233 147.327 52.8044C147.365 52.7855 147.408 52.7785 147.451 52.7842C147.493 52.7899 147.533 52.8081 147.565 52.8364C147.597 52.8648 147.62 52.902 147.631 52.9434C147.642 52.9848 147.64 53.0285 147.626 53.0689C147.612 53.1094 147.587 53.1447 147.552 53.1706C147.507 53.2049 147.45 53.22 147.393 53.2124C147.337 53.2048 147.286 53.1752 147.251 53.1301V53.1301Z" fill="#AAD7E8"/>
<path d="M146.171 53.9445C146.145 53.9106 146.13 53.8697 146.127 53.827C146.124 53.7843 146.134 53.7417 146.155 53.7046C146.177 53.6676 146.209 53.6377 146.247 53.6189C146.285 53.6 146.329 53.593 146.371 53.5987C146.413 53.6044 146.453 53.6225 146.485 53.6509C146.517 53.6792 146.54 53.7164 146.551 53.7578C146.562 53.7992 146.56 53.8429 146.546 53.8834C146.532 53.9238 146.507 53.9592 146.473 53.985C146.427 54.0194 146.37 54.0344 146.313 54.0268C146.257 54.0193 146.206 53.9897 146.171 53.9445V53.9445Z" fill="#AAD7E8"/>
<path d="M145.195 54.6961C145.168 54.6622 145.153 54.6213 145.15 54.5786C145.147 54.5359 145.157 54.4933 145.179 54.4562C145.2 54.4192 145.232 54.3893 145.27 54.3705C145.309 54.3516 145.352 54.3446 145.394 54.3503C145.437 54.3559 145.477 54.3741 145.509 54.4025C145.541 54.4308 145.564 54.468 145.575 54.5094C145.585 54.5508 145.584 54.5945 145.57 54.6349C145.556 54.6754 145.53 54.7108 145.496 54.7366C145.451 54.771 145.393 54.786 145.337 54.7784C145.28 54.7708 145.229 54.7413 145.195 54.6961V54.6961Z" fill="#AAD7E8"/>
<path d="M149.263 55.7398C149.236 55.7059 149.221 55.665 149.218 55.6223C149.215 55.5796 149.225 55.537 149.247 55.4999C149.268 55.4629 149.3 55.433 149.339 55.4142C149.377 55.3953 149.42 55.3883 149.463 55.394C149.505 55.3996 149.545 55.4178 149.577 55.4462C149.609 55.4745 149.632 55.5117 149.643 55.5531C149.654 55.5945 149.652 55.6382 149.638 55.6786C149.624 55.7191 149.598 55.7545 149.564 55.7803C149.519 55.8147 149.461 55.8297 149.405 55.8221C149.349 55.8146 149.297 55.785 149.263 55.7398V55.7398Z" fill="#AAD7E8"/>
<path d="M148.183 56.568C148.156 56.5341 148.141 56.4932 148.138 56.4505C148.135 56.4078 148.145 56.3652 148.167 56.3282C148.188 56.2911 148.22 56.2613 148.258 56.2424C148.297 56.2235 148.34 56.2165 148.382 56.2222C148.425 56.2279 148.465 56.2461 148.497 56.2744C148.529 56.3027 148.552 56.34 148.563 56.3814C148.574 56.4228 148.572 56.4664 148.558 56.5069C148.544 56.5473 148.518 56.5827 148.484 56.6085C148.439 56.6429 148.381 56.658 148.325 56.6504C148.268 56.6428 148.217 56.6132 148.183 56.568Z" fill="#AAD7E8"/>
<path d="M147.201 57.3196C147.175 57.2857 147.16 57.2448 147.157 57.2021C147.154 57.1594 147.164 57.1168 147.185 57.0798C147.207 57.0427 147.239 57.0129 147.277 56.994C147.316 56.9751 147.359 56.9681 147.401 56.9738C147.444 56.9795 147.483 56.9977 147.516 57.026C147.548 57.0543 147.571 57.0916 147.581 57.1329C147.592 57.1743 147.591 57.218 147.577 57.2585C147.563 57.2989 147.537 57.3343 147.503 57.3601C147.457 57.3945 147.4 57.4096 147.344 57.402C147.287 57.3944 147.236 57.3648 147.201 57.3196V57.3196Z" fill="#AAD7E8"/>
<path d="M139.714 65.1727L140.372 66.0297C141.478 67.4713 143.543 67.7435 144.984 66.6378L159.05 55.8489C160.491 54.7431 160.764 52.678 159.658 51.2364L159 50.3794C157.895 48.9378 155.83 48.6656 154.388 49.7714L140.323 60.5602C138.881 61.666 138.609 63.7311 139.714 65.1727Z" fill="white"/>
<path d="M145.7 58.6109L148.341 62.0532C148.534 62.3056 148.896 62.3533 149.148 62.1597L153.787 58.6017C154.039 58.4081 154.087 58.0465 153.893 57.7941L151.253 54.3518C151.059 54.0994 150.698 54.0517 150.445 54.2453L145.807 57.8033C145.554 57.9969 145.507 58.3585 145.7 58.6109Z" fill="#FFF4B5"/>
<path d="M148.601 60.5063C148.623 60.4884 148.649 60.4752 148.676 60.4673C148.703 60.4594 148.732 60.4571 148.76 60.4605C148.788 60.4638 148.815 60.4728 148.84 60.4869C148.864 60.5009 148.886 60.5198 148.903 60.5423C148.937 60.5877 148.952 60.6449 148.945 60.7014C148.937 60.7578 148.908 60.809 148.862 60.8438C148.84 60.8617 148.815 60.8749 148.788 60.8828C148.761 60.8906 148.732 60.8929 148.704 60.8896C148.676 60.8862 148.649 60.8773 148.624 60.8632C148.6 60.8492 148.578 60.8303 148.561 60.8078C148.526 60.7624 148.511 60.7052 148.519 60.6487C148.527 60.5922 148.556 60.541 148.601 60.5063V60.5063Z" fill="#AAD7E8"/>
<path d="M147.773 59.4308C147.807 59.4047 147.848 59.3893 147.891 59.3865C147.933 59.3836 147.976 59.3936 148.013 59.415C148.05 59.4364 148.08 59.4683 148.099 59.5068C148.118 59.5452 148.125 59.5883 148.119 59.6308C148.113 59.6732 148.095 59.7129 148.067 59.745C148.038 59.7771 148.001 59.8 147.96 59.8109C147.918 59.8218 147.875 59.8201 147.834 59.8061C147.794 59.7922 147.758 59.7665 147.732 59.7323C147.698 59.6869 147.683 59.6297 147.691 59.5732C147.698 59.5168 147.728 59.4656 147.773 59.4308V59.4308Z" fill="#AAD7E8"/>
<path d="M147.022 58.4446C147.067 58.4102 147.124 58.3952 147.181 58.4027C147.237 58.4103 147.289 58.4399 147.323 58.4851C147.341 58.5071 147.354 58.5324 147.362 58.5596C147.37 58.5868 147.372 58.6153 147.369 58.6435C147.366 58.6716 147.357 58.6987 147.343 58.7233C147.329 58.7479 147.31 58.7694 147.287 58.7866C147.242 58.821 147.185 58.836 147.128 58.8284C147.072 58.8208 147.021 58.7913 146.986 58.7461C146.968 58.7241 146.955 58.6988 146.947 58.6716C146.939 58.6443 146.937 58.6158 146.94 58.5877C146.943 58.5596 146.952 58.5324 146.966 58.5078C146.98 58.4833 146.999 58.4617 147.022 58.4446V58.4446Z" fill="#AAD7E8"/>
<path d="M146.013 62.486C146.059 62.4516 146.116 62.4365 146.173 62.4441C146.229 62.4517 146.28 62.4813 146.315 62.5265C146.333 62.5484 146.346 62.5738 146.354 62.601C146.362 62.6282 146.364 62.6567 146.361 62.6848C146.357 62.713 146.348 62.7401 146.334 62.7647C146.32 62.7893 146.301 62.8108 146.279 62.828C146.234 62.8632 146.176 62.8789 146.119 62.8718C146.062 62.8646 146.01 62.8351 145.975 62.7897C145.94 62.7444 145.924 62.6869 145.931 62.6299C145.939 62.5729 145.968 62.5212 146.013 62.486V62.486Z" fill="#AAD7E8"/>
<path d="M145.186 61.4062C145.219 61.3801 145.26 61.3647 145.303 61.3619C145.346 61.359 145.388 61.369 145.425 61.3904C145.463 61.4118 145.492 61.4438 145.511 61.4822C145.53 61.5206 145.537 61.5638 145.531 61.6062C145.526 61.6486 145.508 61.6883 145.479 61.7204C145.451 61.7525 145.414 61.7754 145.372 61.7863C145.331 61.7972 145.287 61.7955 145.247 61.7816C145.206 61.7676 145.171 61.7419 145.145 61.7077C145.111 61.6623 145.096 61.6051 145.103 61.5487C145.111 61.4922 145.14 61.441 145.186 61.4062Z" fill="#AAD7E8"/>
<path d="M144.438 60.4297C144.472 60.4036 144.513 60.3882 144.556 60.3854C144.599 60.3825 144.641 60.3925 144.678 60.4139C144.715 60.4353 144.745 60.4672 144.764 60.5057C144.783 60.5441 144.79 60.5872 144.784 60.6297C144.778 60.6721 144.76 60.7118 144.732 60.7439C144.704 60.776 144.666 60.7989 144.625 60.8098C144.584 60.8207 144.54 60.819 144.499 60.805C144.459 60.7911 144.424 60.7654 144.398 60.7312C144.363 60.6858 144.348 60.6286 144.356 60.5721C144.364 60.5157 144.393 60.4645 144.438 60.4297Z" fill="#AAD7E8"/>
<path d="M143.727 64.246C143.749 64.2281 143.775 64.2149 143.802 64.207C143.829 64.1991 143.858 64.1968 143.886 64.2002C143.914 64.2035 143.941 64.2125 143.966 64.2265C143.99 64.2406 144.012 64.2594 144.029 64.282C144.063 64.3274 144.078 64.3846 144.071 64.4411C144.063 64.4975 144.033 64.5487 143.988 64.5835C143.966 64.6013 143.941 64.6146 143.914 64.6225C143.887 64.6303 143.858 64.6326 143.83 64.6293C143.802 64.6259 143.775 64.617 143.75 64.6029C143.726 64.5889 143.704 64.57 143.687 64.5475C143.652 64.502 143.637 64.4449 143.645 64.3884C143.653 64.3319 143.682 64.2807 143.727 64.246V64.246Z" fill="#AAD7E8"/>
<path d="M142.895 63.1611C142.941 63.1265 142.999 63.1113 143.056 63.1189C143.113 63.1265 143.165 63.1562 143.201 63.2016C143.226 63.2357 143.241 63.2765 143.243 63.3189C143.246 63.3614 143.236 63.4036 143.214 63.4403C143.193 63.477 143.161 63.5066 143.123 63.5253C143.084 63.544 143.042 63.5509 142.999 63.5454C142.957 63.5398 142.918 63.5219 142.886 63.4939C142.854 63.4659 142.831 63.4291 142.819 63.3881C142.808 63.3471 142.809 63.3036 142.823 63.2633C142.836 63.2229 142.861 63.1874 142.895 63.1611V63.1611Z" fill="#AAD7E8"/>
<path d="M142.147 62.1845C142.181 62.1584 142.222 62.1429 142.265 62.1401C142.308 62.1373 142.35 62.1472 142.387 62.1686C142.424 62.1901 142.454 62.222 142.473 62.2604C142.492 62.2988 142.499 62.342 142.493 62.3844C142.488 62.4268 142.469 62.4666 142.441 62.4987C142.413 62.5308 142.376 62.5537 142.334 62.5646C142.293 62.5755 142.249 62.5738 142.209 62.5598C142.168 62.5458 142.133 62.5201 142.107 62.486C142.073 62.4406 142.058 62.3834 142.065 62.3269C142.073 62.2704 142.102 62.2192 142.147 62.1845Z" fill="#AAD7E8"/>
<path d="M157.053 54.0303C157.087 54.0042 157.128 53.9888 157.17 53.9859C157.213 53.9831 157.256 53.9931 157.293 54.0145C157.33 54.0359 157.36 54.0678 157.378 54.1063C157.397 54.1447 157.404 54.1878 157.399 54.2302C157.393 54.2727 157.375 54.3124 157.346 54.3445C157.318 54.3766 157.281 54.3995 157.239 54.4104C157.198 54.4213 157.154 54.4196 157.114 54.4056C157.073 54.3917 157.038 54.366 157.012 54.3318C156.978 54.2864 156.963 54.2292 156.97 54.1727C156.978 54.1163 157.008 54.0651 157.053 54.0303V54.0303Z" fill="#AAD7E8"/>
<path d="M156.225 52.9409C156.259 52.9148 156.299 52.8993 156.342 52.8965C156.385 52.8937 156.427 52.9036 156.465 52.9251C156.502 52.9465 156.531 52.9784 156.55 53.0168C156.569 53.0553 156.576 53.0984 156.57 53.1408C156.565 53.1832 156.547 53.223 156.518 53.2551C156.49 53.2872 156.453 53.3101 156.411 53.321C156.37 53.3319 156.326 53.3302 156.286 53.3162C156.245 53.3022 156.21 53.2765 156.184 53.2424C156.15 53.197 156.135 53.1398 156.142 53.0833C156.15 53.0268 156.179 52.9756 156.225 52.9409V52.9409Z" fill="#AAD7E8"/>
<path d="M155.473 51.9644C155.507 51.9383 155.548 51.9228 155.59 51.92C155.633 51.9172 155.676 51.9271 155.713 51.9486C155.75 51.97 155.78 52.0019 155.799 52.0403C155.817 52.0788 155.824 52.1219 155.819 52.1643C155.813 52.2067 155.795 52.2465 155.767 52.2786C155.738 52.3107 155.701 52.3336 155.66 52.3445C155.618 52.3554 155.575 52.3537 155.534 52.3397C155.494 52.3257 155.458 52.3 155.432 52.2659C155.398 52.2205 155.383 52.1633 155.391 52.1068C155.398 52.0503 155.428 51.9991 155.473 51.9644V51.9644Z" fill="#AAD7E8"/>
<path d="M154.762 55.7762C154.807 55.7419 154.864 55.7268 154.921 55.7344C154.977 55.742 155.029 55.7716 155.063 55.8167C155.081 55.8387 155.094 55.8641 155.102 55.8913C155.11 55.9185 155.112 55.947 155.109 55.9751C155.106 56.0032 155.097 56.0304 155.083 56.055C155.069 56.0796 155.05 56.1011 155.027 56.1183C154.982 56.1526 154.925 56.1677 154.868 56.1601C154.812 56.1525 154.761 56.1229 154.726 56.0778C154.708 56.0558 154.695 56.0304 154.687 56.0032C154.679 55.976 154.677 55.9475 154.68 55.9194C154.683 55.8913 154.692 55.8641 154.706 55.8395C154.72 55.8149 154.739 55.7934 154.762 55.7762V55.7762Z" fill="#AAD7E8"/>
<path d="M153.952 54.6957C153.986 54.6695 154.027 54.6541 154.069 54.6513C154.112 54.6485 154.155 54.6584 154.192 54.6798C154.229 54.7012 154.258 54.7332 154.277 54.7716C154.296 54.81 154.303 54.8532 154.298 54.8956C154.292 54.938 154.274 54.9778 154.245 55.0099C154.217 55.0419 154.18 55.0649 154.138 55.0758C154.097 55.0866 154.053 55.085 154.013 55.071C153.972 55.057 153.937 55.0313 153.911 54.9972C153.877 54.9517 153.862 54.8945 153.869 54.8381C153.877 54.7816 153.907 54.7304 153.952 54.6957V54.6957Z" fill="#AAD7E8"/>
<path d="M153.187 53.7192C153.221 53.693 153.262 53.6776 153.304 53.6748C153.347 53.672 153.39 53.6819 153.427 53.7033C153.464 53.7247 153.494 53.7567 153.512 53.7951C153.531 53.8335 153.538 53.8767 153.533 53.9191C153.527 53.9615 153.509 54.0013 153.48 54.0334C153.452 54.0654 153.415 54.0884 153.373 54.0993C153.332 54.1101 153.288 54.1085 153.248 54.0945C153.208 54.0805 153.172 54.0548 153.146 54.0207C153.112 53.9752 153.097 53.918 153.104 53.8616C153.112 53.8051 153.142 53.7539 153.187 53.7192V53.7192Z" fill="#AAD7E8"/>
<path d="M152.152 57.7874C152.198 57.7527 152.256 57.7376 152.313 57.7451C152.371 57.7527 152.423 57.7824 152.458 57.8279C152.493 57.8733 152.508 57.9305 152.5 57.987C152.492 58.0434 152.463 58.0946 152.418 58.1294C152.372 58.1646 152.315 58.1803 152.258 58.1732C152.201 58.166 152.149 58.1365 152.114 58.0911C152.079 58.0458 152.063 57.9883 152.07 57.9313C152.077 57.8744 152.107 57.8226 152.152 57.7874Z" fill="#AAD7E8"/>
<path d="M151.31 56.7306C151.344 56.7045 151.385 56.689 151.428 56.6862C151.47 56.6834 151.513 56.6933 151.55 56.7147C151.587 56.7362 151.617 56.7681 151.636 56.8065C151.655 56.8449 151.662 56.8881 151.656 56.9305C151.65 56.9729 151.632 57.0127 151.604 57.0448C151.575 57.0768 151.538 57.0998 151.497 57.1107C151.455 57.1215 151.412 57.1199 151.371 57.1059C151.331 57.0919 151.295 57.0662 151.27 57.0321C151.235 56.9866 151.22 56.9295 151.228 56.873C151.235 56.8165 151.265 56.7653 151.31 56.7306Z" fill="#AAD7E8"/>
<path d="M150.563 55.7307C150.597 55.7046 150.638 55.6892 150.681 55.6864C150.724 55.6836 150.766 55.6935 150.803 55.7149C150.84 55.7363 150.87 55.7683 150.889 55.8067C150.908 55.8451 150.915 55.8883 150.909 55.9307C150.903 55.9731 150.885 56.0129 150.857 56.045C150.829 56.077 150.791 56.1 150.75 56.1108C150.709 56.1217 150.665 56.1201 150.624 56.1061C150.584 56.0921 150.549 56.0664 150.523 56.0323C150.488 55.9868 150.473 55.9296 150.481 55.8732C150.489 55.8167 150.518 55.7655 150.563 55.7307Z" fill="#AAD7E8"/>
</g>
<defs>
<clipPath id="clip0_1527_3080">
<rect width="224.7" height="128.074" fill="white" transform="translate(11 26.4027)"/>
</clipPath>
</defs>
</svg>
