<svg width="20" height="20" viewBox="0 0 20 20" fill="none" xmlns="http://www.w3.org/2000/svg">
<path fill-rule="evenodd" clip-rule="evenodd" d="M9.99993 17.401C6.92342 17.401 4.29614 16.9222 4.29614 15.0049C4.29614 13.0876 6.90675 11.3176 9.99993 11.3176C13.0764 11.3176 15.7037 13.0704 15.7037 14.9877C15.7037 16.9043 13.0931 17.401 9.99993 17.401Z" stroke="#080F1A" stroke-opacity="0.4" stroke-linecap="round" stroke-linejoin="round"/>
<path fill-rule="evenodd" clip-rule="evenodd" d="M10.0003 9.60653C12.0193 9.60653 13.6556 7.97017 13.6556 5.95123C13.6556 3.93229 12.0193 2.29517 10.0003 2.29517C7.9814 2.29517 6.34426 3.93229 6.34426 5.95123C6.33746 7.96335 7.96246 9.59971 9.97458 9.60653C9.98367 9.60653 9.99201 9.60653 10.0003 9.60653Z" stroke="#080F1A" stroke-opacity="0.4" stroke-linecap="round" stroke-linejoin="round"/>
</svg>
