<svg width="54" height="26" viewBox="0 0 54 26" fill="none" xmlns="http://www.w3.org/2000/svg">
<rect width="54" height="26" rx="13" fill="white"/>
<path d="M14.2141 16.3939C14.1471 16.2503 14.1136 16.1162 14.1136 15.9917C14.1136 15.8193 14.1758 15.6805 14.3003 15.5751C14.4248 15.4602 14.5828 15.4028 14.7744 15.4028C14.8797 15.4028 14.9755 15.4219 15.0616 15.4602C15.1574 15.4985 15.2532 15.5512 15.3489 15.6182C15.7033 15.9247 16.048 16.1545 16.3832 16.3077C16.7184 16.4514 17.1158 16.5232 17.5755 16.5232C18.0926 16.5232 18.4613 16.4179 18.6815 16.2072C18.9114 15.9869 19.0359 15.7092 19.055 15.374C19.0646 15.0484 18.9928 14.7851 18.8395 14.584C18.6959 14.3733 18.5092 14.2105 18.2793 14.0956C18.0591 13.9807 17.8197 13.8945 17.5611 13.837C17.3025 13.7796 17.0727 13.7365 16.8716 13.7077C16.546 13.6503 16.2252 13.5689 15.9092 13.4635C15.6027 13.3582 15.3298 13.2193 15.0904 13.047C14.851 12.8746 14.6594 12.6639 14.5158 12.4149C14.3721 12.1564 14.3051 11.8499 14.3147 11.4956C14.3243 11.0455 14.4392 10.6624 14.6594 10.3464C14.8893 10.0208 15.1766 9.75746 15.5213 9.55635C15.8661 9.35525 16.2443 9.20681 16.6561 9.11105C17.0679 9.01529 17.4749 8.9674 17.8771 8.9674C18.2123 8.9674 18.5139 9.00092 18.7821 9.06796C19.0502 9.13499 19.3088 9.23554 19.5578 9.36961C19.6918 9.44622 19.7876 9.5372 19.8451 9.64254C19.9121 9.74788 19.9456 9.85322 19.9456 9.95856C19.9456 10.0352 19.9265 10.1214 19.8882 10.2171C19.8499 10.3033 19.7924 10.3799 19.7158 10.447C19.6488 10.5044 19.5626 10.5475 19.4572 10.5762C19.3519 10.605 19.237 10.5954 19.1125 10.5475C18.8635 10.4709 18.6145 10.4039 18.3655 10.3464C18.1165 10.2794 17.858 10.2459 17.5898 10.2459C17.3887 10.2459 17.178 10.265 16.9578 10.3033C16.7471 10.3416 16.5508 10.4087 16.3688 10.5044C16.1965 10.6002 16.048 10.7247 15.9235 10.8779C15.799 11.0215 15.7272 11.2083 15.7081 11.4381C15.6889 11.6297 15.7559 11.7924 15.9092 11.9265C16.0624 12.0606 16.23 12.1707 16.4119 12.2569C16.5939 12.3335 16.7615 12.391 16.9147 12.4293C17.0679 12.458 17.1397 12.4724 17.1302 12.4724C17.5228 12.5586 17.8867 12.6495 18.2219 12.7453C18.5666 12.8315 18.9449 12.9895 19.3567 13.2193C19.7206 13.4204 19.9983 13.6982 20.1898 14.0525C20.3814 14.3972 20.4771 14.7803 20.4771 15.2017C20.4771 15.6326 20.3957 16.0109 20.2329 16.3365C20.0797 16.6525 19.869 16.9158 19.6009 17.1265C19.3327 17.3372 19.0263 17.4952 18.6815 17.6006C18.3368 17.7155 17.9777 17.7777 17.6042 17.7873C17.2786 17.7969 16.9482 17.7681 16.613 17.7011C16.2874 17.6341 15.9762 17.5383 15.6793 17.4138C15.3825 17.2893 15.1095 17.1409 14.8605 16.9685C14.6116 16.7961 14.4009 16.6094 14.2285 16.4083L14.2141 16.3939ZM24.2214 16.9398C24.2118 17.1696 24.14 17.342 24.0059 17.4569C23.8718 17.5718 23.7138 17.6293 23.5318 17.6293C23.3691 17.6293 23.2158 17.5766 23.0722 17.4713C22.9285 17.3659 22.8423 17.2079 22.8136 16.9972V8.92431C22.8615 8.7232 22.9477 8.57477 23.0722 8.47901C23.1967 8.37366 23.3403 8.32099 23.5031 8.32099C23.6659 8.32099 23.8096 8.36888 23.9341 8.46464C24.0681 8.55083 24.1639 8.68969 24.2214 8.88122V12.8746C24.4225 12.7501 24.6044 12.6208 24.7672 12.4867C24.9396 12.3431 25.1072 12.1899 25.27 12.0271C25.4423 11.8547 25.6147 11.668 25.7871 11.4669C25.9691 11.2657 26.1702 11.0455 26.3904 10.8061C26.4958 10.7199 26.5963 10.6624 26.6921 10.6337C26.7974 10.5954 26.898 10.5762 26.9937 10.5762C27.1853 10.5762 27.3433 10.6337 27.4678 10.7486C27.5923 10.8635 27.6545 11.0024 27.6545 11.1652C27.6545 11.3184 27.5875 11.486 27.4534 11.668C27.1182 12.0606 26.8022 12.4053 26.5053 12.7022C26.2085 12.9991 25.8877 13.2768 25.5429 13.5354L28.1716 16.4657C28.3249 16.7052 28.4015 16.8871 28.4015 17.0116C28.4015 17.1744 28.3392 17.318 28.2147 17.4425C28.0998 17.5575 27.9466 17.6149 27.7551 17.6149C27.6497 17.6149 27.5444 17.5958 27.439 17.5575C27.3433 17.5192 27.2475 17.4521 27.1517 17.3564L26.1175 16.2072C25.8302 15.872 25.5477 15.5512 25.27 15.2448C25.0018 14.9383 24.705 14.6127 24.3794 14.268C24.3506 14.2871 24.3267 14.3015 24.3075 14.311C24.2884 14.311 24.2597 14.3206 24.2214 14.3398V16.9398ZM32.1039 16.9972C32.0943 17.2366 32.0177 17.4138 31.874 17.5287C31.7304 17.6436 31.5724 17.7011 31.4 17.7011C31.2276 17.7011 31.0744 17.6484 30.9403 17.5431C30.8063 17.4378 30.7249 17.275 30.6961 17.0547L30.6531 11.5961C30.7009 11.395 30.7871 11.2466 30.9116 11.1508C31.0361 11.0455 31.1845 10.9928 31.3569 10.9928C31.5101 10.9928 31.6538 11.0407 31.7879 11.1365C31.9219 11.2227 32.0129 11.3615 32.0608 11.553L32.1039 16.9972ZM30.5525 9.31215C30.5525 9.0919 30.6291 8.90516 30.7823 8.75193C30.9451 8.58913 31.1367 8.50774 31.3569 8.50774C31.5868 8.50774 31.7783 8.58913 31.9315 8.75193C32.0943 8.90516 32.1757 9.0919 32.1757 9.31215C32.1757 9.53241 32.0943 9.71915 31.9315 9.87238C31.7783 10.0256 31.5868 10.1022 31.3569 10.1022C31.1367 10.1022 30.9451 10.0256 30.7823 9.87238C30.6291 9.71915 30.5525 9.53241 30.5525 9.31215ZM34.5696 11.7254C34.6175 11.5243 34.7037 11.3759 34.8282 11.2801C34.9623 11.1748 35.1107 11.1221 35.2735 11.1221C35.4171 11.1221 35.556 11.1652 35.6901 11.2514C35.8241 11.3376 35.9199 11.4621 35.9774 11.6249C36.1881 11.4908 36.4179 11.3902 36.6669 11.3232C36.9159 11.2562 37.1648 11.2227 37.4138 11.2227C37.7969 11.2227 38.1512 11.3041 38.4768 11.4669C38.812 11.6297 39.0993 11.8499 39.3387 12.1276C39.5877 12.4053 39.7792 12.7309 39.9133 13.1044C40.0569 13.4779 40.1288 13.8705 40.1288 14.2823C40.1288 14.742 40.0521 15.1634 39.8989 15.5464C39.7553 15.9295 39.535 16.2599 39.2381 16.5376C38.9413 16.8153 38.5774 17.0355 38.1464 17.1983C37.7155 17.3516 37.2127 17.4282 36.6381 17.4282C36.5232 17.4282 36.4131 17.4282 36.3078 17.4282C36.2024 17.4282 36.0971 17.4186 35.9917 17.3994V20.3011C35.9822 20.5405 35.9008 20.7177 35.7475 20.8326C35.6039 20.9475 35.4459 21.005 35.2735 21.005C35.1107 21.005 34.9575 20.9523 34.8138 20.847C34.6798 20.7416 34.5984 20.5788 34.5696 20.3586V11.7254ZM35.9917 13.4779V16.121C36.212 16.1689 36.4275 16.1928 36.6381 16.1928C37.2415 16.1928 37.7442 16.03 38.1464 15.7044C38.5486 15.3788 38.7497 14.9287 38.7497 14.3541C38.7497 14.1339 38.7162 13.9136 38.6492 13.6934C38.5917 13.4635 38.5055 13.2576 38.3906 13.0757C38.2757 12.8937 38.1369 12.7453 37.9741 12.6304C37.8208 12.5155 37.6532 12.458 37.4713 12.458C37.1744 12.458 36.9111 12.5586 36.6812 12.7597C36.4514 12.9512 36.2551 13.1523 36.0923 13.363L35.9917 13.4779Z" fill="#0075A2"/>
</svg>
