<svg width="152" height="16" viewBox="0 0 152 16" fill="none" xmlns="http://www.w3.org/2000/svg">
<path d="M6.416 14.172H3.032V1.968H6.416C9.854 1.968 12.518 4.614 12.518 8.07C12.518 11.418 9.764 14.172 6.416 14.172ZM15.218 8.07C15.218 4.164 12.212 1.158 8.288 1.158H0.314V15H8.288C12.212 15 15.218 11.994 15.218 8.07ZM18.1053 7.998C18.1053 12.768 21.9933 15.198 26.7813 15.198C31.6053 15.198 35.3853 12.768 35.4933 8.016V7.998C35.3853 3.282 31.6053 0.78 26.7813 0.78C22.0473 0.78 18.1053 3.228 18.1053 7.998ZM32.7753 7.998C32.7753 11.454 30.2013 14.55 26.7993 14.55C23.4153 14.55 20.8053 11.472 20.8053 7.998C20.8053 4.56 23.3973 1.428 26.7993 1.428C30.1653 1.428 32.7753 4.56 32.7753 7.998ZM38.3799 7.998C38.3799 12.768 42.2679 15.198 47.0559 15.198C51.8799 15.198 55.6599 12.768 55.7679 8.016V7.998C55.6599 3.282 51.8799 0.78 47.0559 0.78C42.3219 0.78 38.3799 3.228 38.3799 7.998ZM53.0499 7.998C53.0499 11.454 50.4759 14.55 47.0739 14.55C43.6899 14.55 41.0799 11.472 41.0799 7.998C41.0799 4.56 43.6719 1.428 47.0739 1.428C50.4399 1.428 53.0499 4.56 53.0499 7.998ZM65.4765 1.158H59.6085V15H62.3265V11.274H63.2625C63.9285 11.274 64.8465 12.03 65.9265 13.542C66.6645 14.55 67.2045 15 68.6445 15H70.5165C69.9225 14.64 69.1305 14.136 68.7345 13.542C67.8885 12.39 67.3665 11.274 65.9265 11.274V11.256C68.4825 11.022 70.5165 8.844 70.5165 6.216C70.5165 3.462 68.2305 1.158 65.4765 1.158ZM64.3245 10.446H62.3265V1.968H64.3245C66.6285 1.968 68.5545 3.912 68.5545 6.216C68.5545 8.538 66.6465 10.446 64.3245 10.446ZM73.5502 7.998C73.5502 12.768 77.4382 15.198 82.2262 15.198C87.0502 15.198 90.8302 12.768 90.9382 8.016V7.998C90.8302 3.282 87.0502 0.78 82.2262 0.78C77.4922 0.78 73.5502 3.228 73.5502 7.998ZM88.2202 7.998C88.2202 11.454 85.6462 14.55 82.2442 14.55C78.8602 14.55 76.2502 11.472 76.2502 7.998C76.2502 4.56 78.8422 1.428 82.2442 1.428C85.6102 1.428 88.2202 4.56 88.2202 7.998ZM93.8248 7.998C93.8248 12.768 97.7128 15.198 102.501 15.198C107.325 15.198 111.105 12.768 111.213 8.016V7.998C111.105 3.282 107.325 0.78 102.501 0.78C97.7668 0.78 93.8248 3.228 93.8248 7.998ZM108.495 7.998C108.495 11.454 105.921 14.55 102.519 14.55C99.1348 14.55 96.5248 11.472 96.5248 7.998C96.5248 4.56 99.1168 1.428 102.519 1.428C105.885 1.428 108.495 4.56 108.495 7.998ZM137.121 1.158H136.275L130.821 12.228C129.687 11.292 128.769 9.6 128.031 7.116C127.365 4.92 126.429 2.184 125.241 1.158H122.145C123.351 2.31 124.377 4.128 125.223 6.612L122.451 12.228C121.299 11.292 120.381 9.6 119.661 7.116C118.941 4.704 118.329 2.4 116.871 1.158H113.775C115.557 2.886 116.421 5.136 117.303 8.07C118.041 10.572 119.031 12.984 120.795 14.208L121.929 15C123.135 12.534 124.341 10.086 125.547 7.638C126.429 10.266 127.293 12.858 129.183 14.208L130.299 15C132.585 10.392 134.853 5.766 137.121 1.158ZM145.782 10.302L148.302 15H151.02L143.262 0.509999L135.018 14.982H135.864L138.528 10.302H145.782ZM142.272 3.732L145.35 9.474H138.996L142.272 3.732Z" fill="#0075A2"/>
</svg>
