<svg width="160" height="203" viewBox="0 0 160 203" fill="none" xmlns="http://www.w3.org/2000/svg">
<path d="M20 111C20 77.8629 46.8629 51 80 51V51C113.137 51 140 77.8629 140 111V154H20V111Z" fill="#FFF4B5"/>
<path d="M19.8142 154H140.186L160 185H0L19.8142 154Z" fill="#FFF4B5"/>
<path d="M98 185C98 189.774 96.1036 194.352 92.7279 197.728C89.3523 201.104 84.7739 203 80 203C75.2261 203 70.6477 201.104 67.2721 197.728C63.8964 194.352 62 189.774 62 185L80 185H98Z" fill="#FFF4B5"/>
<rect x="72" y="40" width="14" height="19" rx="7" fill="#FFF4B5"/>
<path d="M87 105.928C87 109.301 91.0295 112.035 96 112.035C100.971 112.035 105 109.301 105 105.928C105 102.555 100.971 109.464 96 109.464C91.0295 109.464 87 102.555 87 105.928Z" fill="#0075A2"/>
<path d="M55 105.928C55 109.301 59.0295 112.035 64 112.035C68.9706 112.035 73.0001 109.301 73.0001 105.928C73.0001 102.555 68.9706 109.464 64 109.464C59.0295 109.464 55 102.555 55 105.928Z" fill="#0075A2"/>
<circle cx="80" cy="126" r="5" fill="#0075A2"/>
<path d="M89 2H107L89 21H107" stroke="#0075A2" stroke-width="3" stroke-linecap="round"/>
<path d="M105 38H116L105 49H116" stroke="#0075A2" stroke-width="2" stroke-linecap="round"/>
</svg>
