<svg width="186" height="129" viewBox="0 0 186 129" fill="none" xmlns="http://www.w3.org/2000/svg">
<path d="M3 122H183" stroke="#0075A2" stroke-width="5.40202" stroke-miterlimit="10" stroke-linecap="round"/>
<path d="M160.534 88.7367V81.2624C160.534 80.6623 160.271 80.0867 159.802 79.6623C159.333 79.2379 158.697 78.9996 158.034 78.9996C157.371 78.9996 156.735 79.2379 156.267 79.6623C155.798 80.0867 155.534 80.6623 155.534 81.2624V88.7367C155.534 89.3369 155.798 89.9125 156.267 90.3369C156.735 90.7612 157.371 90.9996 158.034 90.9996C158.697 90.9996 159.333 90.7612 159.802 90.3369C160.271 89.9125 160.534 89.3369 160.534 88.7367V88.7367Z" stroke="#0075A2" stroke-width="1.81643"/>
<path d="M156.452 40.9725L118.452 45.162V124.536L156.452 128.973V40.9725Z" fill="#0075A2"/>
<path d="M125.316 117.987L149.316 121V48.9994L125.35 51.4917L125.316 117.987Z" fill="#FFE56A" stroke="white" stroke-width="3.00001"/>
<path d="M27.2121 90.6759C27.5904 90.882 28.0222 90.9936 28.4636 90.9994C28.9049 91.0052 29.3401 90.9051 29.7249 90.7092C30.1096 90.5132 30.4303 90.2284 30.6543 89.8838C30.8783 89.5392 30.9975 89.147 31 88.747V81.2648C31 80.664 30.7366 80.0878 30.2678 79.663C29.7989 79.2382 29.163 78.9996 28.5 78.9996C27.8369 78.9996 27.2011 79.2382 26.7322 79.663C26.2634 80.0878 26 80.664 26 81.2648V88.747C26.0009 89.136 26.1131 89.5182 26.3255 89.8562C26.5379 90.1943 26.8434 90.4767 27.2121 90.6759V90.6759Z" stroke="#0075A2" stroke-width="1.81643"/>
<path d="M30.7012 128.973L68.7012 124.536V45.162L30.7012 40.9725V128.973Z" fill="#0075A2"/>
<path d="M61.5586 51.4917L37.5586 48.9994V121L61.5586 117.987V51.4917Z" fill="#FFE56A" stroke="white" stroke-width="3.00001"/>
<path d="M137 33.9194H49V42.7372H137V33.9194Z" fill="#0075A2" stroke="#0075A2" stroke-width="4.72677" stroke-miterlimit="10"/>
<path d="M167.659 23.1421C167.435 23.1421 167.213 23.1865 167.006 23.2728C166.798 23.3592 166.61 23.4857 166.452 23.6452C166.294 23.8046 166.168 23.9939 166.083 24.2021C165.998 24.4103 165.954 24.6333 165.955 24.8584C165.955 25.453 165.167 26.4125 163.018 27.5611C144.683 27.4598 129.816 16.4054 129.816 2.82389C129.816 2.36871 129.636 1.93219 129.315 1.61033C128.994 1.28847 128.559 1.10764 128.105 1.10764C127.651 1.10764 127.216 1.28847 126.895 1.61033C126.574 1.93219 126.394 2.36871 126.394 2.82389C126.396 4.30872 126.55 5.78945 126.852 7.24297C124.508 8.59436 112.215 10.4187 93.4277 10.4187H92.9427C74.1557 10.4187 61.8624 8.62815 59.5182 7.24297C59.8239 5.78997 59.9774 4.30889 59.9762 2.82389C59.9909 2.5899 59.9576 2.35542 59.8784 2.13483C59.7992 1.91425 59.6758 1.71227 59.5158 1.54137C59.3558 1.37047 59.1626 1.23428 58.9481 1.14117C58.7336 1.04806 58.5024 1 58.2686 1C58.0349 1 57.8037 1.04806 57.5892 1.14117C57.3747 1.23428 57.1815 1.37047 57.0215 1.54137C56.8615 1.71227 56.738 1.91425 56.6589 2.13483C56.5797 2.35542 56.5464 2.5899 56.561 2.82389C56.561 16.4054 41.6878 27.4598 23.3589 27.5611C21.2033 26.426 20.4219 25.4665 20.4219 24.8584C20.4219 24.633 20.3777 24.4098 20.2917 24.2016C20.2057 23.9933 20.0797 23.8041 19.9208 23.6448C19.7619 23.4854 19.5733 23.359 19.3657 23.2727C19.1581 23.1865 18.9357 23.1421 18.711 23.1421C18.4863 23.1421 18.2638 23.1865 18.0562 23.2727C17.8486 23.359 17.66 23.4854 17.5011 23.6448C17.3423 23.8041 17.2162 23.9933 17.1302 24.2016C17.0443 24.4098 17 24.633 17 24.8584C17 29.5139 24.6185 33.1221 40.2867 35.8992C54.3651 38.3925 73.0375 39.771 92.9224 39.7912H93.4546C113.333 39.7912 132.005 38.3925 146.084 35.8992C161.752 33.1221 169.37 29.5139 169.37 24.8584C169.37 24.4032 169.19 23.9666 168.869 23.6448C168.548 23.3229 168.113 23.1421 167.659 23.1421V23.1421Z" fill="#FFE56A"/>
<path d="M58.9961 12.7182C56.5043 19.7405 45.255 29.0618 37.4031 30.243" stroke="white" stroke-width="3.00001"/>
<path d="M126.002 12.2878C128.374 19.352 139.621 28.7367 147.451 30.0531" stroke="white" stroke-width="3.00001"/>
<path d="M151.193 29.3411C117.792 36.6506 58.7036 35.2368 35.0594 30.1685" stroke="white" stroke-width="3.00001"/>
<path d="M128.711 12.2336C106.537 18.5233 65.2474 15.0865 58.0799 12.4716" stroke="white" stroke-width="3.00001"/>
<path d="M80.5519 11.0919C79.9378 16.9624 76.5247 31.8944 72.3538 35.9225M68.427 11.0921C67.1102 17.6824 62.2305 30.9294 57 35.1938M104.802 11.0919C105.416 16.9624 108.829 31.8944 113 35.9225M92.6769 11.0919V35.9225M116.253 11.0919C117.551 17.5856 122.307 30.542 127.45 35.0002" stroke="white" stroke-width="8.00002"/>
<path d="M80.5519 11.0919C79.945 16.8937 76.6042 31.5459 72.5 35.7765C72.0488 36.2416 71.5884 36.5807 71.1214 36.7683M68.427 11.0919C66.9956 18.2558 61.3541 33.2855 55.6284 36.0926M104.802 11.0919C105.475 17.5314 109.517 34.8743 114.232 36.7683M92.6768 11.0919V38.1197M116.253 11.0919C117.446 17.0621 121.563 28.4952 126.216 33.7642C126.804 34.4299 127.4 34.9972 128 35.4427" stroke="#0075A2" stroke-width="4.00001"/>
<path d="M57.5886 2.81056C57.5886 17.4326 41.8599 29.264 22.4263 29.264" stroke="#0075A2" stroke-width="5.40202" stroke-miterlimit="10" stroke-linecap="round"/>
<path d="M127.422 2.81056C127.422 17.4326 143.15 29.264 162.584 29.264" stroke="#0075A2" stroke-width="5.40202" stroke-miterlimit="10" stroke-linecap="round"/>
<path d="M18.0276 24.8586C18.0276 32.1628 51.479 38.0616 92.7443 38.0616" stroke="#0075A2" stroke-width="5.40202" stroke-miterlimit="10" stroke-linecap="round"/>
<path d="M166.976 24.8586C166.976 32.1628 133.558 38.0819 92.2593 38.0819" stroke="#0075A2" stroke-width="5.40202" stroke-miterlimit="10" stroke-linecap="round"/>
<path d="M56.9758 7.70901C56.9758 10.1483 72.7046 12.1213 92.1382 12.1213H92.6232C112.064 12.1213 127.786 10.1483 127.786 7.70901" stroke="#0075A2" stroke-width="5.40202" stroke-miterlimit="10" stroke-linecap="round"/>
</svg>
