<svg width="210" height="173" viewBox="0 0 210 173" fill="none" xmlns="http://www.w3.org/2000/svg">
<path fill-rule="evenodd" clip-rule="evenodd" d="M5.38839 170.487H12.0971C18.7345 170.487 24.1943 165.011 24.1943 158.353C24.1943 151.48 18.9129 146.218 12.0971 146.218H5.38839V170.487ZM15.8083 144.607C23.5876 144.607 29.547 150.585 29.547 158.353C29.547 166.156 23.5876 172.134 15.8083 172.134H0V144.607H15.8083ZM53.7089 164.073C53.5827 169.769 48.9397 172.654 43.0349 172.654C37.1805 172.654 32.4365 169.769 32.4365 164.048C32.4365 158.328 37.2562 155.417 43.0349 155.417C48.9397 155.417 53.5827 158.403 53.7089 164.048V164.073ZM35.9188 164.048C35.9188 168.073 39.0479 171.591 43.0601 171.591C47.0976 171.591 50.1509 168.047 50.1509 164.048C50.1509 160.074 47.0471 156.48 43.0601 156.48C39.0226 156.48 35.9188 160.074 35.9188 164.048ZM116.245 172.654C122.15 172.654 126.793 169.769 126.919 164.073V164.048C126.793 158.403 122.15 155.417 116.245 155.417C110.467 155.417 105.647 158.328 105.647 164.048C105.647 169.769 110.391 172.654 116.245 172.654ZM116.271 171.591C112.258 171.591 109.129 168.073 109.129 164.048C109.129 160.074 112.233 156.48 116.271 156.48C120.258 156.48 123.361 160.074 123.361 164.048C123.361 168.047 120.308 171.591 116.271 171.591ZM77.3798 164.073C77.2536 169.769 72.6106 172.654 66.7058 172.654C60.8514 172.654 56.1074 169.769 56.1074 164.048C56.1074 158.328 60.9271 155.417 66.7058 155.417C72.6106 155.417 77.2536 158.403 77.3798 164.048V164.073ZM59.5897 164.048C59.5897 168.073 62.7188 171.591 66.731 171.591C70.7685 171.591 73.8218 168.047 73.8218 164.048C73.8218 160.074 70.718 156.48 66.731 156.48C62.6935 156.48 59.5897 160.074 59.5897 164.048ZM139.916 172.654C145.821 172.654 150.464 169.769 150.591 164.073V164.048C150.464 158.403 145.821 155.417 139.916 155.417C134.138 155.417 129.318 158.328 129.318 164.048C129.318 169.769 134.062 172.654 139.916 172.654ZM139.942 171.591C135.929 171.591 132.8 168.073 132.8 164.048C132.8 160.074 135.904 156.48 139.942 156.48C143.929 156.48 147.032 160.074 147.032 164.048C147.032 168.047 143.979 171.591 139.942 171.591ZM81.2533 144.607H92.8866C98.3463 144.607 102.878 149.189 102.878 154.666C102.878 159.892 98.8459 164.223 93.7787 164.688V164.724C96.2052 164.724 97.3169 166.328 98.6258 168.216L98.6259 168.216L98.6259 168.216C98.8569 168.549 99.094 168.891 99.3455 169.234C100.131 170.416 101.701 171.418 102.878 172.134H99.1671C96.3123 172.134 95.2418 171.239 93.7787 169.234C91.6376 166.228 89.8177 164.724 88.4974 164.724H86.6417V172.134H81.2533V144.607ZM86.6417 163.078H90.6028C95.2061 163.078 98.9887 159.283 98.9887 154.666C98.9887 150.084 95.1704 146.218 90.6028 146.218H86.6417V163.078ZM192.633 144.607H190.955L180.143 166.621C177.895 164.76 176.075 161.395 174.612 156.456C173.292 152.089 171.436 146.648 169.081 144.607H162.943C165.334 146.898 167.368 150.514 169.045 155.453L163.55 166.621C161.266 164.76 159.446 161.395 158.018 156.456C157.931 156.161 157.844 155.867 157.757 155.575C156.436 151.104 155.2 146.926 152.487 144.607H146.35C149.882 148.044 151.595 152.518 153.344 158.353C154.807 163.328 156.769 168.125 160.267 170.559L162.515 172.134C164.903 167.235 167.292 162.371 169.68 157.508L169.687 157.494L169.709 157.558C171.45 162.762 173.164 167.885 176.896 170.559L179.108 172.134C182.517 165.242 185.905 158.329 189.288 151.427L189.307 151.39C190.416 149.128 191.524 146.867 192.633 144.607ZM192.21 164.394C192.21 168.394 195.263 171.937 199.301 171.937C203.313 171.937 206.442 168.419 206.442 164.394C206.442 160.522 203.338 157.028 199.326 157.028C195.314 157.028 192.21 160.522 192.21 164.394ZM210 172.773H206.442V168.849C205.029 171.608 202.177 173 198.594 173C193.421 173 188.778 170.115 188.652 164.42V164.394C188.778 158.876 193.421 155.965 198.619 155.965C202.177 155.965 205.029 157.357 206.442 160.066V156.218H210V172.773Z" fill="#0075A2"/>
<path d="M15 122H195" stroke="#0075A2" stroke-width="5.6121" stroke-miterlimit="10" stroke-linecap="round"/>
<path d="M79 34H61V117H79V34Z" fill="#0075A2" stroke="#0075A2" stroke-width="4.91059" stroke-miterlimit="10"/>
<path d="M149 34H131V117H149V34Z" fill="#0075A2" stroke="#0075A2" stroke-width="4.91059" stroke-miterlimit="10"/>
<path fill-rule="evenodd" clip-rule="evenodd" d="M113 49L144 47V118H113V49Z" fill="#FFE56A" stroke="white" stroke-width="2.59722"/>
<path fill-rule="evenodd" clip-rule="evenodd" d="M69 47L101 49.5V118H69V47Z" fill="#FFE56A" stroke="white" stroke-width="2.59722"/>
<path d="M149 34.9194H61V43.7373H149V34.9194Z" fill="#0075A2" stroke="#0075A2" stroke-width="4.72677" stroke-miterlimit="10"/>
<path d="M179.659 23.1421C179.435 23.1421 179.213 23.1865 179.006 23.2728C178.798 23.3592 178.61 23.4857 178.452 23.6452C178.294 23.8046 178.168 23.9939 178.083 24.2021C177.998 24.4103 177.954 24.6333 177.955 24.8583C177.955 25.453 177.167 26.4124 175.018 27.5611C156.683 27.4598 141.816 16.4054 141.816 2.82389C141.816 2.36871 141.636 1.93219 141.315 1.61033C140.994 1.28847 140.559 1.10764 140.105 1.10764C139.651 1.10764 139.216 1.28847 138.895 1.61033C138.574 1.93219 138.394 2.36871 138.394 2.82389C138.396 4.30871 138.55 5.78945 138.852 7.24296C136.508 8.59436 124.215 10.4187 105.428 10.4187H104.943C86.1557 10.4187 73.8624 8.62814 71.5182 7.24296C71.8239 5.78997 71.9774 4.30889 71.9762 2.82389C71.9909 2.5899 71.9576 2.35542 71.8784 2.13483C71.7992 1.91425 71.6758 1.71227 71.5158 1.54137C71.3558 1.37047 71.1626 1.23428 70.9481 1.14117C70.7336 1.04806 70.5024 1 70.2686 1C70.0349 1 69.8037 1.04806 69.5892 1.14117C69.3747 1.23428 69.1815 1.37047 69.0215 1.54137C68.8615 1.71227 68.738 1.91425 68.6589 2.13483C68.5797 2.35542 68.5464 2.5899 68.561 2.82389C68.561 16.4054 53.6878 27.4598 35.3589 27.5611C33.2033 26.426 32.4219 25.4665 32.4219 24.8583C32.4219 24.633 32.3777 24.4098 32.2917 24.2015C32.2057 23.9933 32.0797 23.8041 31.9208 23.6447C31.7619 23.4854 31.5733 23.359 31.3657 23.2727C31.1581 23.1865 30.9357 23.1421 30.711 23.1421C30.4863 23.1421 30.2638 23.1865 30.0562 23.2727C29.8486 23.359 29.66 23.4854 29.5011 23.6447C29.3423 23.8041 29.2162 23.9933 29.1302 24.2015C29.0443 24.4098 29 24.633 29 24.8583C29 29.5139 36.6185 33.1221 52.2867 35.8992C66.3651 38.3925 85.0375 39.7709 104.922 39.7912H105.455C125.333 39.7912 144.005 38.3925 158.084 35.8992C173.752 33.1221 181.37 29.5139 181.37 24.8583C181.37 24.4032 181.19 23.9666 180.869 23.6447C180.548 23.3229 180.113 23.1421 179.659 23.1421Z" fill="#FFE56A"/>
<path d="M70.9961 12.7182C68.5043 19.7405 57.255 29.0618 49.4031 30.243" stroke="white" stroke-width="3.11668"/>
<path d="M138.002 12.2878C140.374 19.352 151.621 28.7367 159.451 30.0531" stroke="white" stroke-width="3.11668"/>
<path d="M163.193 29.3411C129.792 36.6505 70.7036 35.2367 47.0594 30.1685" stroke="white" stroke-width="3.11668"/>
<path d="M140.711 12.2336C118.537 18.5233 77.2474 15.0864 70.0799 12.4716" stroke="white" stroke-width="3.11668"/>
<path d="M92.5519 11.0919C91.9378 16.9624 88.5247 31.8944 84.3538 35.9225M80.427 11.0921C79.1102 17.6824 74.2305 30.9294 69 35.1938M116.802 11.0919C117.416 16.9624 120.829 31.8944 125 35.9225M104.677 11.0919V35.9225M128.253 11.0919C129.551 17.5856 134.307 30.542 139.45 35.0002" stroke="white" stroke-width="8.31114"/>
<path d="M92.5519 11.0919C91.945 16.8936 88.6042 31.5459 84.5 35.7765C84.0488 36.2416 83.5884 36.5807 83.1214 36.7683M80.427 11.0919C78.9956 18.2558 73.3541 33.2855 67.6284 36.0926M116.802 11.0919C117.475 17.5314 121.517 34.8743 126.232 36.7683M104.677 11.0919V38.1197M128.253 11.0919C129.446 17.0621 133.563 28.4952 138.216 33.7642C138.803 34.4299 139.4 34.9972 140 35.4427" stroke="#0075A2" stroke-width="4.15557"/>
<path d="M69.5886 2.81055C69.5886 17.4326 53.8599 29.264 34.4263 29.264" stroke="#0075A2" stroke-width="5.6121" stroke-miterlimit="10" stroke-linecap="round"/>
<path d="M139.422 2.81055C139.422 17.4326 155.15 29.264 174.584 29.264" stroke="#0075A2" stroke-width="5.6121" stroke-miterlimit="10" stroke-linecap="round"/>
<path d="M30.0276 24.8585C30.0276 32.1628 63.479 38.0616 104.744 38.0616" stroke="#0075A2" stroke-width="5.6121" stroke-miterlimit="10" stroke-linecap="round"/>
<path d="M178.976 24.8585C178.976 32.1628 145.558 38.0819 104.259 38.0819" stroke="#0075A2" stroke-width="5.6121" stroke-miterlimit="10" stroke-linecap="round"/>
<path d="M68.9758 7.70905C68.9758 10.1483 84.7046 12.1213 104.138 12.1213H104.623C124.064 12.1213 139.786 10.1483 139.786 7.70905" stroke="#0075A2" stroke-width="5.6121" stroke-miterlimit="10" stroke-linecap="round"/>
<rect width="2" height="12" rx="1" transform="matrix(-1 0 0 1 115 77)" fill="#0075A2"/>
<rect width="2" height="12" rx="1" transform="matrix(-1 0 0 1 101 77)" fill="#0075A2"/>
</svg>
