<svg width="338" height="338" viewBox="0 0 338 338" fill="none" xmlns="http://www.w3.org/2000/svg">
<path opacity="0.4" fill-rule="evenodd" clip-rule="evenodd" d="M169 256C217.049 256 256 217.049 256 169C256 120.951 217.049 82 169 82C120.951 82 82 120.951 82 169C82 217.049 120.951 256 169 256ZM169 211C192.196 211 211 192.196 211 169C211 145.804 192.196 127 169 127C145.804 127 127 145.804 127 169C127 192.196 145.804 211 169 211Z" fill="#FFE56A"/>
<path opacity="0.2" fill-rule="evenodd" clip-rule="evenodd" d="M169 338C262.336 338 338 262.336 338 169C338 75.6639 262.336 0 169 0C75.6639 0 0 75.6639 0 169C0 262.336 75.6639 338 169 338ZM169 211C192.196 211 211 192.196 211 169C211 145.804 192.196 127 169 127C145.804 127 127 145.804 127 169C127 192.196 145.804 211 169 211Z" fill="#FFE56A"/>
<path opacity="0.3" fill-rule="evenodd" clip-rule="evenodd" d="M169 304C243.558 304 304 243.558 304 169C304 94.4416 243.558 34 169 34C94.4416 34 34 94.4416 34 169C34 243.558 94.4416 304 169 304ZM169 211C192.196 211 211 192.196 211 169C211 145.804 192.196 127 169 127C145.804 127 127 145.804 127 169C127 192.196 145.804 211 169 211Z" fill="white"/>
</svg>
