<svg width="332" height="10" viewBox="0 0 332 10" fill="none" xmlns="http://www.w3.org/2000/svg">
<g clip-path="url(#clip0_1566_3085)">
<g clip-path="url(#clip1_1566_3085)">
<path fill-rule="evenodd" clip-rule="evenodd" d="M1.56486 8.46735C7.05816 4.50073 19.996 -0.926582 29.9126 7.2666C30.7145 7.9291 31.882 7.97984 32.7316 7.37982C38.286 3.45725 49.431 -0.611061 60.0836 7.32963C60.9292 7.95994 62.1198 7.90993 62.9412 7.24834C68.0099 3.16551 78.8211 -0.977776 91.4319 7.51419C92.2501 8.06516 93.3426 7.98689 94.1138 7.37183C99.0319 3.4493 109.333 -0.610695 120.558 7.34383C121.434 7.96409 122.647 7.85903 123.444 7.14152C128.307 2.76681 138.603 -1.65836 150.488 7.40211C151.288 8.01193 152.41 7.99026 153.21 7.38085C158.321 3.48852 168.392 -0.548393 177.613 7.14577C178.465 7.85659 179.734 7.85183 180.6 7.15771C185.845 2.95085 196.836 -1.27279 209.374 7.39736C210.241 7.99705 211.425 7.88212 212.21 7.17838C217.303 2.61317 228.511 -2.09323 242.228 7.44445C243.069 8.02895 244.21 7.93195 244.989 7.26723C249.938 3.04306 260.354 -1.3111 271.913 7.28758C272.785 7.93649 274.02 7.8453 274.822 7.11163C279.694 2.65667 289.574 -1.86594 299.956 6.90302C300.901 7.70094 302.374 7.5955 303.272 6.74521C307.609 2.63802 318.223 -3.07018 330.228 6.94163C330.613 7.26327 331.129 7.2523 331.5 7.01997V10H0V7.95762C0 8.72273 0.92293 9.08807 1.46719 8.55031C1.49807 8.51981 1.52966 8.49275 1.56486 8.46735ZM0 -99.1781V-120H227.371C161.513 -120 73.5615 -119.513 19.1719 -119.119C12.7813 -118.288 0 -113.137 0 -99.1781ZM227.416 -120C272.722 -120 307.563 -119.769 313.814 -119.119C325.486 -117.905 330.106 -111.032 331.5 -105.399V-120H227.416Z" fill="#FFFADF"/>
</g>
</g>
<defs>
<clipPath id="clip0_1566_3085">
<rect width="332" height="10" fill="white"/>
</clipPath>
<clipPath id="clip1_1566_3085">
<rect width="332" height="130" fill="white" transform="translate(0 -120)"/>
</clipPath>
</defs>
</svg>
