<svg width="186" height="129" viewBox="0 0 186 129" fill="none" xmlns="http://www.w3.org/2000/svg">
<path d="M3 122H183" stroke="#0075A2" stroke-width="5.40202" stroke-miterlimit="10" stroke-linecap="round"/>
<path d="M141 88.7371V81.2628C141 80.6627 140.842 80.0871 140.561 79.6627C140.279 79.2384 139.898 79 139.5 79C139.102 79 138.721 79.2384 138.439 79.6627C138.158 80.0871 138 80.6627 138 81.2628V88.7371C138 89.3373 138.158 89.9129 138.439 90.3372C138.721 90.7616 139.102 91 139.5 91C139.898 91 140.279 90.7616 140.561 90.3372C140.842 89.9129 141 89.3373 141 88.7371V88.7371Z" stroke="#0075A2" stroke-width="1.81643"/>
<path d="M139 41L118 45.1895V124.563L139 129V41Z" fill="#0075A2"/>
<path d="M122 117.988L135 121V49L122.018 51.4923L122 117.988Z" fill="#FFE56A" stroke="white" stroke-width="3.00001"/>
<path d="M44.7012 90.6759C44.92 90.8819 45.1698 90.9936 45.4251 90.9994C45.6804 91.0052 45.9321 90.9051 46.1547 90.7092C46.3773 90.5132 46.5628 90.2284 46.6924 89.8838C46.8219 89.5392 46.8909 89.147 46.8923 88.747V81.2648C46.8923 80.664 46.74 80.0878 46.4688 79.663C46.1975 79.2382 45.8297 78.9996 45.4462 78.9996C45.0626 78.9996 44.6948 79.2382 44.4236 79.663C44.1524 80.0878 44 80.664 44 81.2648V88.747C44.0005 89.136 44.0654 89.5182 44.1883 89.8562C44.3112 90.1943 44.4879 90.4767 44.7012 90.6759V90.6759Z" stroke="#0075A2" stroke-width="1.81643"/>
<path d="M46.7195 128.973L68.7012 124.536V45.162L46.7195 40.9725V128.973Z" fill="#0075A2"/>
<path d="M64.5695 51.4917L50.6863 48.9994V121L64.5695 117.987V51.4917Z" fill="#FFE56A" stroke="white" stroke-width="3.00001"/>
<path d="M137 33.9194H49V42.7372H137V33.9194Z" fill="#0075A2" stroke="#0075A2" stroke-width="4.72677" stroke-miterlimit="10"/>
<path d="M167.659 23.1421C167.435 23.1421 167.213 23.1865 167.006 23.2728C166.798 23.3592 166.61 23.4857 166.452 23.6452C166.294 23.8046 166.168 23.9939 166.083 24.2021C165.998 24.4103 165.954 24.6333 165.955 24.8584C165.955 25.453 165.167 26.4125 163.018 27.5611C144.683 27.4598 129.816 16.4054 129.816 2.82389C129.816 2.36871 129.636 1.93219 129.315 1.61033C128.994 1.28847 128.559 1.10764 128.105 1.10764C127.651 1.10764 127.216 1.28847 126.895 1.61033C126.574 1.93219 126.394 2.36871 126.394 2.82389C126.396 4.30872 126.55 5.78945 126.852 7.24297C124.508 8.59436 112.215 10.4187 93.4277 10.4187H92.9427C74.1557 10.4187 61.8624 8.62815 59.5182 7.24297C59.8239 5.78997 59.9774 4.30889 59.9762 2.82389C59.9909 2.5899 59.9576 2.35542 59.8784 2.13483C59.7992 1.91425 59.6758 1.71227 59.5158 1.54137C59.3558 1.37047 59.1626 1.23428 58.9481 1.14117C58.7336 1.04806 58.5024 1 58.2686 1C58.0349 1 57.8037 1.04806 57.5892 1.14117C57.3747 1.23428 57.1815 1.37047 57.0215 1.54137C56.8615 1.71227 56.738 1.91425 56.6589 2.13483C56.5797 2.35542 56.5464 2.5899 56.561 2.82389C56.561 16.4054 41.6878 27.4598 23.3589 27.5611C21.2033 26.426 20.4219 25.4665 20.4219 24.8584C20.4219 24.633 20.3777 24.4098 20.2917 24.2016C20.2057 23.9933 20.0797 23.8041 19.9208 23.6448C19.7619 23.4854 19.5733 23.359 19.3657 23.2727C19.1581 23.1865 18.9357 23.1421 18.711 23.1421C18.4863 23.1421 18.2638 23.1865 18.0562 23.2727C17.8486 23.359 17.66 23.4854 17.5011 23.6448C17.3423 23.8041 17.2162 23.9933 17.1302 24.2016C17.0443 24.4098 17 24.633 17 24.8584C17 29.5139 24.6185 33.1221 40.2867 35.8992C54.3651 38.3925 73.0375 39.771 92.9224 39.7912H93.4546C113.333 39.7912 132.005 38.3925 146.084 35.8992C161.752 33.1221 169.37 29.5139 169.37 24.8584C169.37 24.4032 169.19 23.9666 168.869 23.6448C168.548 23.3229 168.113 23.1421 167.659 23.1421Z" fill="#FFE56A"/>
<path d="M58.9961 12.7182C56.5043 19.7405 45.255 29.0618 37.4031 30.243" stroke="white" stroke-width="3.00001"/>
<path d="M126.002 12.2878C128.374 19.352 139.621 28.7367 147.451 30.0531" stroke="white" stroke-width="3.00001"/>
<path d="M151.193 29.3411C117.792 36.6506 58.7036 35.2368 35.0594 30.1685" stroke="white" stroke-width="3.00001"/>
<path d="M128.711 12.2336C106.537 18.5233 65.2474 15.0865 58.0799 12.4716" stroke="white" stroke-width="3.00001"/>
<path d="M80.5519 11.0919C79.9378 16.9624 76.5247 31.8944 72.3538 35.9225M68.427 11.0921C67.1102 17.6824 62.2305 30.9294 57 35.1938M104.802 11.0919C105.416 16.9624 108.829 31.8944 113 35.9225M92.6769 11.0919V35.9225M116.253 11.0919C117.551 17.5856 122.307 30.542 127.45 35.0002" stroke="white" stroke-width="8.00002"/>
<path d="M80.5519 11.0919C79.945 16.8936 76.6042 31.5459 72.5 35.7765C72.0488 36.2416 71.5884 36.5807 71.1214 36.7683M68.427 11.0919C66.9956 18.2558 61.3541 33.2855 55.6284 36.0926M104.802 11.0919C105.475 17.5314 109.517 34.8743 114.232 36.7683M92.6768 11.0919V38.1197M116.253 11.0919C117.446 17.0621 121.563 28.4952 126.216 33.7642C126.804 34.4299 127.4 34.9972 128 35.4427" stroke="#0075A2" stroke-width="4.00001"/>
<path d="M57.5886 2.81056C57.5886 17.4326 41.8599 29.264 22.4263 29.264" stroke="#0075A2" stroke-width="5.40202" stroke-miterlimit="10" stroke-linecap="round"/>
<path d="M127.422 2.81056C127.422 17.4326 143.15 29.264 162.584 29.264" stroke="#0075A2" stroke-width="5.40202" stroke-miterlimit="10" stroke-linecap="round"/>
<path d="M18.0276 24.8585C18.0276 32.1628 51.479 38.0616 92.7443 38.0616" stroke="#0075A2" stroke-width="5.40202" stroke-miterlimit="10" stroke-linecap="round"/>
<path d="M166.976 24.8585C166.976 32.1628 133.558 38.0819 92.2593 38.0819" stroke="#0075A2" stroke-width="5.40202" stroke-miterlimit="10" stroke-linecap="round"/>
<path d="M56.9758 7.70902C56.9758 10.1483 72.7046 12.1213 92.1382 12.1213H92.6232C112.064 12.1213 127.786 10.1483 127.786 7.70902" stroke="#0075A2" stroke-width="5.40202" stroke-miterlimit="10" stroke-linecap="round"/>
</svg>
